<mxfile host="app.diagrams.net" modified="2023-10-11T19:23:26.649Z" agent="Mozilla/5.0 (Windows NT 10.0; Win64; x64) AppleWebKit/537.36 (KHTML, like Gecko) Chrome/117.0.0.0 Safari/537.36" etag="qHTF9lK6-7FpT8PI3i2j" version="22.0.4" type="github" pages="7">
  <diagram name="DFD" id="KFDiwjgnquG4kZcUtKlA">
    <mxGraphModel dx="724" dy="390" grid="0" gridSize="10" guides="1" tooltips="1" connect="1" arrows="1" fold="1" page="0" pageScale="1" pageWidth="850" pageHeight="1100" background="none" math="0" shadow="0">
      <root>
        <mxCell id="0" />
        <mxCell id="1" parent="0" />
        <mxCell id="cpr-SET_LJG-gVqA4TEm-1" value="" style="ellipse;whiteSpace=wrap;html=1;aspect=fixed;" vertex="1" parent="1">
          <mxGeometry x="270" y="111" width="80" height="80" as="geometry" />
        </mxCell>
        <mxCell id="cpr-SET_LJG-gVqA4TEm-2" value="" style="rounded=0;whiteSpace=wrap;html=1;" vertex="1" parent="1">
          <mxGeometry x="380" y="51" width="90" height="40" as="geometry" />
        </mxCell>
        <mxCell id="cpr-SET_LJG-gVqA4TEm-3" value="" style="curved=1;endArrow=classic;html=1;rounded=0;exitX=0.239;exitY=0.06;exitDx=0;exitDy=0;exitPerimeter=0;entryX=0;entryY=0;entryDx=0;entryDy=0;" edge="1" parent="1" source="cpr-SET_LJG-gVqA4TEm-1" target="cpr-SET_LJG-gVqA4TEm-2">
          <mxGeometry width="50" height="50" relative="1" as="geometry">
            <mxPoint x="125" y="150" as="sourcePoint" />
            <mxPoint x="175" y="100" as="targetPoint" />
            <Array as="points">
              <mxPoint x="240" y="40" />
              <mxPoint x="350" y="20" />
            </Array>
          </mxGeometry>
        </mxCell>
        <mxCell id="cpr-SET_LJG-gVqA4TEm-5" value="" style="curved=1;endArrow=classic;html=1;rounded=0;entryX=0.5;entryY=0;entryDx=0;entryDy=0;exitX=0;exitY=0.25;exitDx=0;exitDy=0;" edge="1" parent="1" target="cpr-SET_LJG-gVqA4TEm-1">
          <mxGeometry width="50" height="50" relative="1" as="geometry">
            <mxPoint x="380" y="71" as="sourcePoint" />
            <mxPoint x="310" y="121" as="targetPoint" />
            <Array as="points">
              <mxPoint x="350" y="31" />
              <mxPoint x="300" y="61" />
            </Array>
          </mxGeometry>
        </mxCell>
        <mxCell id="cpr-SET_LJG-gVqA4TEm-6" value="" style="curved=1;endArrow=classic;html=1;rounded=0;entryX=0.794;entryY=0.128;entryDx=0;entryDy=0;entryPerimeter=0;exitX=0;exitY=0.75;exitDx=0;exitDy=0;" edge="1" parent="1" target="cpr-SET_LJG-gVqA4TEm-1">
          <mxGeometry width="50" height="50" relative="1" as="geometry">
            <mxPoint x="380" y="91" as="sourcePoint" />
            <mxPoint x="326.64" y="125.32" as="targetPoint" />
            <Array as="points">
              <mxPoint x="360" y="51" />
              <mxPoint x="320" y="71" />
            </Array>
          </mxGeometry>
        </mxCell>
        <mxCell id="cpr-SET_LJG-gVqA4TEm-7" value="" style="curved=1;endArrow=classic;html=1;rounded=0;entryX=0.959;entryY=0.277;entryDx=0;entryDy=0;entryPerimeter=0;exitX=0;exitY=1;exitDx=0;exitDy=0;" edge="1" parent="1" source="cpr-SET_LJG-gVqA4TEm-2" target="cpr-SET_LJG-gVqA4TEm-1">
          <mxGeometry width="50" height="50" relative="1" as="geometry">
            <mxPoint x="390" y="111" as="sourcePoint" />
            <mxPoint x="344" y="141" as="targetPoint" />
            <Array as="points">
              <mxPoint x="370" y="81" />
              <mxPoint x="340" y="81" />
            </Array>
          </mxGeometry>
        </mxCell>
        <mxCell id="cpr-SET_LJG-gVqA4TEm-8" value="" style="curved=1;endArrow=classic;html=1;rounded=0;exitX=0;exitY=1;exitDx=0;exitDy=0;entryX=1;entryY=0.5;entryDx=0;entryDy=0;" edge="1" parent="1" source="cpr-SET_LJG-gVqA4TEm-2" target="cpr-SET_LJG-gVqA4TEm-1">
          <mxGeometry width="50" height="50" relative="1" as="geometry">
            <mxPoint x="350" y="141" as="sourcePoint" />
            <mxPoint x="380" y="161" as="targetPoint" />
            <Array as="points">
              <mxPoint x="410" y="111" />
              <mxPoint x="400" y="141" />
              <mxPoint x="360" y="151" />
            </Array>
          </mxGeometry>
        </mxCell>
        <mxCell id="cpr-SET_LJG-gVqA4TEm-10" value="USER" style="text;html=1;strokeColor=none;fillColor=none;align=center;verticalAlign=middle;whiteSpace=wrap;rounded=0;" vertex="1" parent="1">
          <mxGeometry x="395" y="56" width="60" height="30" as="geometry" />
        </mxCell>
        <mxCell id="cpr-SET_LJG-gVqA4TEm-11" value="PROJECT&lt;br&gt;BUDDY&lt;br&gt;SYSTEM&lt;br&gt;0" style="text;html=1;strokeColor=none;fillColor=none;align=center;verticalAlign=middle;whiteSpace=wrap;rounded=0;" vertex="1" parent="1">
          <mxGeometry x="280" y="140" width="60" height="30" as="geometry" />
        </mxCell>
        <mxCell id="cpr-SET_LJG-gVqA4TEm-12" value="&lt;font style=&quot;font-size: 6px;&quot;&gt;registered&lt;/font&gt;" style="text;html=1;strokeColor=none;fillColor=none;align=center;verticalAlign=middle;whiteSpace=wrap;rounded=0;rotation=-15;" vertex="1" parent="1">
          <mxGeometry x="260" y="20" width="50" height="10" as="geometry" />
        </mxCell>
        <mxCell id="cpr-SET_LJG-gVqA4TEm-15" value="&lt;font style=&quot;font-size: 6px;&quot;&gt;user details&lt;/font&gt;" style="text;html=1;strokeColor=none;fillColor=none;align=center;verticalAlign=middle;whiteSpace=wrap;rounded=0;rotation=-60;" vertex="1" parent="1">
          <mxGeometry x="273" y="44" width="60" height="30" as="geometry" />
        </mxCell>
        <mxCell id="cpr-SET_LJG-gVqA4TEm-16" value="&lt;span style=&quot;font-size: 6px;&quot;&gt;Project Details&lt;br&gt;&lt;br&gt;&lt;/span&gt;" style="text;html=1;strokeColor=none;fillColor=none;align=center;verticalAlign=middle;whiteSpace=wrap;rounded=0;rotation=-65;" vertex="1" parent="1">
          <mxGeometry x="310" y="68" width="41" height="4" as="geometry" />
        </mxCell>
        <mxCell id="cpr-SET_LJG-gVqA4TEm-21" value="&lt;font style=&quot;font-size: 5px;&quot;&gt;Collaboration Request&lt;/font&gt;" style="text;html=1;strokeColor=none;fillColor=none;align=center;verticalAlign=middle;whiteSpace=wrap;rounded=0;rotation=-65;" vertex="1" parent="1">
          <mxGeometry x="337.36" y="101.86000000000001" width="42.27" height="1" as="geometry" />
        </mxCell>
        <mxCell id="cpr-SET_LJG-gVqA4TEm-22" value="&lt;font style=&quot;font-size: 6px;&quot;&gt;use discussion forum&lt;/font&gt;" style="text;html=1;strokeColor=none;fillColor=none;align=center;verticalAlign=middle;whiteSpace=wrap;rounded=0;rotation=-30;" vertex="1" parent="1">
          <mxGeometry x="367" y="131" width="60" height="30" as="geometry" />
        </mxCell>
        <mxCell id="cpr-SET_LJG-gVqA4TEm-29" value="Context Diagram" style="text;html=1;strokeColor=none;fillColor=none;align=center;verticalAlign=middle;whiteSpace=wrap;rounded=0;" vertex="1" parent="1">
          <mxGeometry x="120" y="10" width="60" height="30" as="geometry" />
        </mxCell>
        <mxCell id="cpr-SET_LJG-gVqA4TEm-30" value="LVL 1:" style="text;html=1;strokeColor=none;fillColor=none;align=center;verticalAlign=middle;whiteSpace=wrap;rounded=0;" vertex="1" parent="1">
          <mxGeometry x="4" y="174" width="60" height="30" as="geometry" />
        </mxCell>
        <mxCell id="cpr-SET_LJG-gVqA4TEm-31" value="" style="ellipse;whiteSpace=wrap;html=1;aspect=fixed;" vertex="1" parent="1">
          <mxGeometry x="120" y="270" width="60" height="60" as="geometry" />
        </mxCell>
        <mxCell id="cpr-SET_LJG-gVqA4TEm-32" value="" style="ellipse;whiteSpace=wrap;html=1;aspect=fixed;" vertex="1" parent="1">
          <mxGeometry x="460" y="270" width="60" height="60" as="geometry" />
        </mxCell>
        <mxCell id="cpr-SET_LJG-gVqA4TEm-35" value="" style="ellipse;whiteSpace=wrap;html=1;aspect=fixed;" vertex="1" parent="1">
          <mxGeometry x="461" y="380" width="60" height="60" as="geometry" />
        </mxCell>
        <mxCell id="cpr-SET_LJG-gVqA4TEm-37" value="" style="endArrow=none;html=1;rounded=0;" edge="1" parent="1">
          <mxGeometry width="50" height="50" relative="1" as="geometry">
            <mxPoint x="280" y="299.66" as="sourcePoint" />
            <mxPoint x="360" y="299.66" as="targetPoint" />
          </mxGeometry>
        </mxCell>
        <mxCell id="cpr-SET_LJG-gVqA4TEm-38" value="" style="endArrow=none;html=1;rounded=0;" edge="1" parent="1">
          <mxGeometry width="50" height="50" relative="1" as="geometry">
            <mxPoint x="280" y="320" as="sourcePoint" />
            <mxPoint x="360" y="320" as="targetPoint" />
          </mxGeometry>
        </mxCell>
        <mxCell id="cpr-SET_LJG-gVqA4TEm-39" value="" style="endArrow=none;html=1;rounded=0;" edge="1" parent="1">
          <mxGeometry width="50" height="50" relative="1" as="geometry">
            <mxPoint x="220" y="400" as="sourcePoint" />
            <mxPoint x="300" y="400" as="targetPoint" />
          </mxGeometry>
        </mxCell>
        <mxCell id="cpr-SET_LJG-gVqA4TEm-40" value="" style="endArrow=none;html=1;rounded=0;" edge="1" parent="1">
          <mxGeometry width="50" height="50" relative="1" as="geometry">
            <mxPoint x="220" y="418.82" as="sourcePoint" />
            <mxPoint x="300" y="418.82" as="targetPoint" />
          </mxGeometry>
        </mxCell>
        <mxCell id="cpr-SET_LJG-gVqA4TEm-41" value="" style="curved=1;endArrow=classic;html=1;rounded=0;entryX=1;entryY=0;entryDx=0;entryDy=0;" edge="1" parent="1" target="cpr-SET_LJG-gVqA4TEm-32">
          <mxGeometry width="50" height="50" relative="1" as="geometry">
            <mxPoint x="620" y="240" as="sourcePoint" />
            <mxPoint x="650" y="250" as="targetPoint" />
            <Array as="points">
              <mxPoint x="600" y="270" />
              <mxPoint x="560" y="280" />
            </Array>
          </mxGeometry>
        </mxCell>
        <mxCell id="cpr-SET_LJG-gVqA4TEm-42" value="" style="curved=1;endArrow=classic;html=1;rounded=0;" edge="1" parent="1">
          <mxGeometry width="50" height="50" relative="1" as="geometry">
            <mxPoint x="20" y="310" as="sourcePoint" />
            <mxPoint x="130" y="280" as="targetPoint" />
            <Array as="points">
              <mxPoint x="40" y="280" />
              <mxPoint x="80" y="260" />
            </Array>
          </mxGeometry>
        </mxCell>
        <mxCell id="cpr-SET_LJG-gVqA4TEm-43" value="" style="curved=1;endArrow=classic;html=1;rounded=0;" edge="1" parent="1">
          <mxGeometry width="50" height="50" relative="1" as="geometry">
            <mxPoint x="180" y="300" as="sourcePoint" />
            <mxPoint x="300" y="300" as="targetPoint" />
            <Array as="points">
              <mxPoint x="220" y="260" />
              <mxPoint x="280" y="270" />
            </Array>
          </mxGeometry>
        </mxCell>
        <mxCell id="cpr-SET_LJG-gVqA4TEm-44" value="" style="curved=1;endArrow=classic;html=1;rounded=0;entryX=0;entryY=0;entryDx=0;entryDy=0;" edge="1" parent="1" target="cpr-SET_LJG-gVqA4TEm-32">
          <mxGeometry width="50" height="50" relative="1" as="geometry">
            <mxPoint x="338" y="300" as="sourcePoint" />
            <mxPoint x="438" y="300" as="targetPoint" />
            <Array as="points">
              <mxPoint x="378" y="260" />
            </Array>
          </mxGeometry>
        </mxCell>
        <mxCell id="cpr-SET_LJG-gVqA4TEm-45" value="" style="endArrow=classic;html=1;rounded=0;entryX=0.5;entryY=0;entryDx=0;entryDy=0;exitX=0.5;exitY=1;exitDx=0;exitDy=0;" edge="1" parent="1" source="cpr-SET_LJG-gVqA4TEm-32" target="cpr-SET_LJG-gVqA4TEm-35">
          <mxGeometry width="50" height="50" relative="1" as="geometry">
            <mxPoint x="540" y="350" as="sourcePoint" />
            <mxPoint x="590" y="300" as="targetPoint" />
          </mxGeometry>
        </mxCell>
        <mxCell id="cpr-SET_LJG-gVqA4TEm-46" value="" style="endArrow=classic;html=1;rounded=0;entryX=0.5;entryY=0;entryDx=0;entryDy=0;exitX=0.5;exitY=1;exitDx=0;exitDy=0;" edge="1" parent="1">
          <mxGeometry width="50" height="50" relative="1" as="geometry">
            <mxPoint x="490.5" y="440" as="sourcePoint" />
            <mxPoint x="491" y="510" as="targetPoint" />
          </mxGeometry>
        </mxCell>
        <mxCell id="cpr-SET_LJG-gVqA4TEm-47" value="" style="curved=1;endArrow=classic;html=1;rounded=0;entryX=1;entryY=0.5;entryDx=0;entryDy=0;" edge="1" parent="1" target="cpr-SET_LJG-gVqA4TEm-35">
          <mxGeometry width="50" height="50" relative="1" as="geometry">
            <mxPoint x="640" y="420" as="sourcePoint" />
            <mxPoint x="540" y="419" as="targetPoint" />
            <Array as="points">
              <mxPoint x="620" y="430" />
              <mxPoint x="590" y="430" />
            </Array>
          </mxGeometry>
        </mxCell>
        <mxCell id="cpr-SET_LJG-gVqA4TEm-48" value="" style="curved=1;endArrow=classic;html=1;rounded=0;entryX=1;entryY=1;entryDx=0;entryDy=0;" edge="1" parent="1" target="cpr-SET_LJG-gVqA4TEm-35">
          <mxGeometry width="50" height="50" relative="1" as="geometry">
            <mxPoint x="630" y="450" as="sourcePoint" />
            <mxPoint x="560" y="459" as="targetPoint" />
            <Array as="points">
              <mxPoint x="600" y="460" />
              <mxPoint x="540" y="450" />
            </Array>
          </mxGeometry>
        </mxCell>
        <mxCell id="cpr-SET_LJG-gVqA4TEm-49" value="" style="curved=1;endArrow=classic;html=1;rounded=0;entryX=1;entryY=0;entryDx=0;entryDy=0;" edge="1" parent="1" target="cpr-SET_LJG-gVqA4TEm-35">
          <mxGeometry width="50" height="50" relative="1" as="geometry">
            <mxPoint x="629" y="350" as="sourcePoint" />
            <mxPoint x="520" y="389" as="targetPoint" />
            <Array as="points">
              <mxPoint x="609" y="380" />
              <mxPoint x="569" y="390" />
            </Array>
          </mxGeometry>
        </mxCell>
        <mxCell id="cpr-SET_LJG-gVqA4TEm-59" value="&lt;font style=&quot;font-size: 8px;&quot;&gt;User details&lt;/font&gt;" style="text;html=1;strokeColor=none;fillColor=none;align=center;verticalAlign=middle;whiteSpace=wrap;rounded=0;rotation=0;" vertex="1" parent="1">
          <mxGeometry y="310" width="60" height="20" as="geometry" />
        </mxCell>
        <mxCell id="cpr-SET_LJG-gVqA4TEm-60" value="&lt;font style=&quot;font-size: 8px;&quot;&gt;Login Details&lt;/font&gt;" style="text;html=1;strokeColor=none;fillColor=none;align=center;verticalAlign=middle;whiteSpace=wrap;rounded=0;rotation=0;" vertex="1" parent="1">
          <mxGeometry x="590" y="220" width="60" height="20" as="geometry" />
        </mxCell>
        <mxCell id="cpr-SET_LJG-gVqA4TEm-62" value="&lt;font style=&quot;font-size: 8px;&quot;&gt;collaboration request&lt;/font&gt;" style="text;html=1;strokeColor=none;fillColor=none;align=center;verticalAlign=middle;whiteSpace=wrap;rounded=0;rotation=0;" vertex="1" parent="1">
          <mxGeometry x="627" y="440" width="83" height="20" as="geometry" />
        </mxCell>
        <mxCell id="cpr-SET_LJG-gVqA4TEm-63" value="&lt;font style=&quot;font-size: 8px;&quot;&gt;view discussion forum&lt;/font&gt;" style="text;html=1;strokeColor=none;fillColor=none;align=center;verticalAlign=middle;whiteSpace=wrap;rounded=0;rotation=0;" vertex="1" parent="1">
          <mxGeometry x="638" y="408" width="92" height="20" as="geometry" />
        </mxCell>
        <mxCell id="cpr-SET_LJG-gVqA4TEm-64" value="&lt;font style=&quot;font-size: 8px;&quot;&gt;project details&lt;/font&gt;" style="text;html=1;strokeColor=none;fillColor=none;align=center;verticalAlign=middle;whiteSpace=wrap;rounded=0;rotation=0;" vertex="1" parent="1">
          <mxGeometry x="630" y="330" width="60" height="20" as="geometry" />
        </mxCell>
        <mxCell id="cpr-SET_LJG-gVqA4TEm-67" value="&lt;span style=&quot;font-size: 8px;&quot;&gt;discussions&lt;/span&gt;" style="text;html=1;strokeColor=none;fillColor=none;align=center;verticalAlign=middle;whiteSpace=wrap;rounded=0;rotation=0;" vertex="1" parent="1">
          <mxGeometry x="479" y="468" width="83" height="20" as="geometry" />
        </mxCell>
        <mxCell id="cpr-SET_LJG-gVqA4TEm-68" value="&lt;font style=&quot;font-size: 8px;&quot;&gt;project details&lt;/font&gt;" style="text;html=1;strokeColor=none;fillColor=none;align=center;verticalAlign=middle;whiteSpace=wrap;rounded=0;rotation=0;" vertex="1" parent="1">
          <mxGeometry x="340" y="348" width="60" height="20" as="geometry" />
        </mxCell>
        <mxCell id="cpr-SET_LJG-gVqA4TEm-69" value="&lt;font style=&quot;font-size: 8px;&quot;&gt;collaborate on&lt;/font&gt;" style="text;html=1;strokeColor=none;fillColor=none;align=center;verticalAlign=middle;whiteSpace=wrap;rounded=0;rotation=0;" vertex="1" parent="1">
          <mxGeometry x="328.5" y="468" width="60" height="20" as="geometry" />
        </mxCell>
        <mxCell id="cpr-SET_LJG-gVqA4TEm-71" value="&lt;font style=&quot;font-size: 8px;&quot;&gt;User Details&lt;/font&gt;" style="text;html=1;strokeColor=none;fillColor=none;align=center;verticalAlign=middle;whiteSpace=wrap;rounded=0;rotation=0;" vertex="1" parent="1">
          <mxGeometry x="290" y="300" width="60" height="20" as="geometry" />
        </mxCell>
        <mxCell id="cpr-SET_LJG-gVqA4TEm-73" value="&lt;span style=&quot;font-size: 8px;&quot;&gt;Project Data&lt;/span&gt;" style="text;html=1;strokeColor=none;fillColor=none;align=center;verticalAlign=middle;whiteSpace=wrap;rounded=0;rotation=0;" vertex="1" parent="1">
          <mxGeometry x="230" y="400" width="60" height="20" as="geometry" />
        </mxCell>
        <mxCell id="cpr-SET_LJG-gVqA4TEm-74" value="&lt;span style=&quot;font-size: 8px;&quot;&gt;User Registration&lt;br&gt;0.1&lt;br&gt;&lt;/span&gt;" style="text;html=1;strokeColor=none;fillColor=none;align=center;verticalAlign=middle;whiteSpace=wrap;rounded=0;rotation=0;" vertex="1" parent="1">
          <mxGeometry x="120" y="290" width="60" height="20" as="geometry" />
        </mxCell>
        <mxCell id="cpr-SET_LJG-gVqA4TEm-75" value="&lt;span style=&quot;font-size: 8px;&quot;&gt;Authentication&lt;br&gt;0.2&lt;br&gt;&lt;/span&gt;" style="text;html=1;strokeColor=none;fillColor=none;align=center;verticalAlign=middle;whiteSpace=wrap;rounded=0;rotation=0;" vertex="1" parent="1">
          <mxGeometry x="460" y="290" width="60" height="20" as="geometry" />
        </mxCell>
        <mxCell id="cpr-SET_LJG-gVqA4TEm-76" value="&lt;span style=&quot;font-size: 8px;&quot;&gt;Display Dashboard&lt;br&gt;0.3&lt;br&gt;&lt;/span&gt;" style="text;html=1;strokeColor=none;fillColor=none;align=center;verticalAlign=middle;whiteSpace=wrap;rounded=0;rotation=0;" vertex="1" parent="1">
          <mxGeometry x="460" y="400" width="60" height="20" as="geometry" />
        </mxCell>
        <mxCell id="g6qFNmTCCK4_-90a8rft-1" value="&lt;font style=&quot;font-size: 8px;&quot;&gt;Access&lt;/font&gt;" style="text;html=1;strokeColor=none;fillColor=none;align=center;verticalAlign=middle;whiteSpace=wrap;rounded=0;" vertex="1" parent="1">
          <mxGeometry x="454" y="337" width="41" height="24" as="geometry" />
        </mxCell>
        <mxCell id="g6qFNmTCCK4_-90a8rft-2" value="" style="curved=1;endArrow=classic;html=1;rounded=0;entryX=1;entryY=0;entryDx=0;entryDy=0;" edge="1" parent="1">
          <mxGeometry width="50" height="50" relative="1" as="geometry">
            <mxPoint x="672" y="381" as="sourcePoint" />
            <mxPoint x="520" y="403" as="targetPoint" />
            <Array as="points">
              <mxPoint x="619" y="409" />
              <mxPoint x="580" y="419" />
            </Array>
          </mxGeometry>
        </mxCell>
        <mxCell id="g6qFNmTCCK4_-90a8rft-3" value="&lt;font style=&quot;font-size: 8px;&quot;&gt;View Project&lt;/font&gt;" style="text;html=1;strokeColor=none;fillColor=none;align=center;verticalAlign=middle;whiteSpace=wrap;rounded=0;" vertex="1" parent="1">
          <mxGeometry x="670" y="364" width="60" height="30" as="geometry" />
        </mxCell>
        <mxCell id="g6qFNmTCCK4_-90a8rft-5" value="" style="endArrow=classic;html=1;rounded=0;exitX=0;exitY=1;exitDx=0;exitDy=0;" edge="1" parent="1" source="cpr-SET_LJG-gVqA4TEm-35" target="g6qFNmTCCK4_-90a8rft-6">
          <mxGeometry width="50" height="50" relative="1" as="geometry">
            <mxPoint x="562" y="431" as="sourcePoint" />
            <mxPoint x="439" y="525" as="targetPoint" />
          </mxGeometry>
        </mxCell>
        <mxCell id="g6qFNmTCCK4_-90a8rft-6" value="&lt;font style=&quot;font-size: 8px;&quot;&gt;Project List&lt;/font&gt;" style="text;html=1;strokeColor=none;fillColor=none;align=center;verticalAlign=middle;whiteSpace=wrap;rounded=0;" vertex="1" parent="1">
          <mxGeometry x="409" y="509.9999999999999" width="60" height="30" as="geometry" />
        </mxCell>
        <mxCell id="g6qFNmTCCK4_-90a8rft-7" value="" style="curved=1;endArrow=classic;html=1;rounded=0;entryX=0.5;entryY=1;entryDx=0;entryDy=0;exitX=0;exitY=1;exitDx=0;exitDy=0;" edge="1" parent="1" source="cpr-SET_LJG-gVqA4TEm-35" target="cpr-SET_LJG-gVqA4TEm-73">
          <mxGeometry width="50" height="50" relative="1" as="geometry">
            <mxPoint x="562" y="431" as="sourcePoint" />
            <mxPoint x="612" y="381" as="targetPoint" />
            <Array as="points">
              <mxPoint x="442" y="452" />
              <mxPoint x="310" y="461" />
            </Array>
          </mxGeometry>
        </mxCell>
        <mxCell id="g6qFNmTCCK4_-90a8rft-8" value="" style="curved=1;endArrow=classic;html=1;rounded=0;entryX=0.5;entryY=0;entryDx=0;entryDy=0;exitX=0;exitY=0;exitDx=0;exitDy=0;" edge="1" parent="1" source="cpr-SET_LJG-gVqA4TEm-35" target="cpr-SET_LJG-gVqA4TEm-73">
          <mxGeometry width="50" height="50" relative="1" as="geometry">
            <mxPoint x="480" y="441" as="sourcePoint" />
            <mxPoint x="270" y="430" as="targetPoint" />
            <Array as="points">
              <mxPoint x="436" y="345" />
              <mxPoint x="294" y="353" />
            </Array>
          </mxGeometry>
        </mxCell>
      </root>
    </mxGraphModel>
  </diagram>
  <diagram id="zAcE1pOMBUipbtCgCRk4" name="Schematic Diagram">
    <mxGraphModel dx="778" dy="419" grid="0" gridSize="10" guides="1" tooltips="1" connect="1" arrows="1" fold="1" page="0" pageScale="1" pageWidth="850" pageHeight="1100" math="0" shadow="0">
      <root>
        <mxCell id="0" />
        <mxCell id="1" parent="0" />
        <mxCell id="c7slLOBqW4r7M82rct8n-1" value="" style="rounded=0;whiteSpace=wrap;html=1;" vertex="1" parent="1">
          <mxGeometry x="360" y="200" width="160" height="40" as="geometry" />
        </mxCell>
        <mxCell id="c7slLOBqW4r7M82rct8n-2" value="" style="rounded=0;whiteSpace=wrap;html=1;" vertex="1" parent="1">
          <mxGeometry x="360" y="280" width="160" height="40" as="geometry" />
        </mxCell>
        <mxCell id="c7slLOBqW4r7M82rct8n-3" value="" style="rounded=0;whiteSpace=wrap;html=1;" vertex="1" parent="1">
          <mxGeometry x="480" y="400" width="160" height="40" as="geometry" />
        </mxCell>
        <mxCell id="c7slLOBqW4r7M82rct8n-4" value="" style="rounded=0;whiteSpace=wrap;html=1;" vertex="1" parent="1">
          <mxGeometry x="240" y="480" width="160" height="40" as="geometry" />
        </mxCell>
        <mxCell id="c7slLOBqW4r7M82rct8n-5" value="" style="rounded=0;whiteSpace=wrap;html=1;" vertex="1" parent="1">
          <mxGeometry x="240" y="400" width="160" height="40" as="geometry" />
        </mxCell>
        <mxCell id="c7slLOBqW4r7M82rct8n-6" value="" style="rounded=0;whiteSpace=wrap;html=1;" vertex="1" parent="1">
          <mxGeometry x="240" y="560" width="160" height="40" as="geometry" />
        </mxCell>
        <mxCell id="c7slLOBqW4r7M82rct8n-7" value="" style="endArrow=classic;startArrow=classic;html=1;rounded=0;entryX=0.5;entryY=1;entryDx=0;entryDy=0;exitX=0.5;exitY=0;exitDx=0;exitDy=0;" edge="1" parent="1" source="c7slLOBqW4r7M82rct8n-2" target="c7slLOBqW4r7M82rct8n-1">
          <mxGeometry width="50" height="50" relative="1" as="geometry">
            <mxPoint x="420" y="300" as="sourcePoint" />
            <mxPoint x="470" y="250" as="targetPoint" />
          </mxGeometry>
        </mxCell>
        <mxCell id="c7slLOBqW4r7M82rct8n-11" value="" style="endArrow=classic;html=1;rounded=0;exitX=0.5;exitY=1;exitDx=0;exitDy=0;entryX=0.5;entryY=0;entryDx=0;entryDy=0;" edge="1" parent="1" source="c7slLOBqW4r7M82rct8n-5" target="c7slLOBqW4r7M82rct8n-4">
          <mxGeometry width="50" height="50" relative="1" as="geometry">
            <mxPoint x="420" y="420" as="sourcePoint" />
            <mxPoint x="470" y="370" as="targetPoint" />
          </mxGeometry>
        </mxCell>
        <mxCell id="c7slLOBqW4r7M82rct8n-12" value="" style="endArrow=classic;html=1;rounded=0;exitX=0.5;exitY=1;exitDx=0;exitDy=0;entryX=0.5;entryY=0;entryDx=0;entryDy=0;" edge="1" parent="1" source="c7slLOBqW4r7M82rct8n-4" target="c7slLOBqW4r7M82rct8n-6">
          <mxGeometry width="50" height="50" relative="1" as="geometry">
            <mxPoint x="330" y="450" as="sourcePoint" />
            <mxPoint x="330" y="490" as="targetPoint" />
          </mxGeometry>
        </mxCell>
        <mxCell id="c7slLOBqW4r7M82rct8n-13" value="USER&lt;br&gt;" style="text;html=1;strokeColor=none;fillColor=none;align=center;verticalAlign=middle;whiteSpace=wrap;rounded=0;" vertex="1" parent="1">
          <mxGeometry x="410" y="205" width="60" height="30" as="geometry" />
        </mxCell>
        <mxCell id="c7slLOBqW4r7M82rct8n-15" value="PROJECT BUDDY" style="text;html=1;strokeColor=none;fillColor=none;align=center;verticalAlign=middle;whiteSpace=wrap;rounded=0;" vertex="1" parent="1">
          <mxGeometry x="410" y="285" width="60" height="30" as="geometry" />
        </mxCell>
        <mxCell id="c7slLOBqW4r7M82rct8n-16" value="PROJECT LISTING" style="text;html=1;strokeColor=none;fillColor=none;align=center;verticalAlign=middle;whiteSpace=wrap;rounded=0;" vertex="1" parent="1">
          <mxGeometry x="290" y="405" width="60" height="30" as="geometry" />
        </mxCell>
        <mxCell id="c7slLOBqW4r7M82rct8n-17" value="DISCUSSION FOURM" style="text;html=1;strokeColor=none;fillColor=none;align=center;verticalAlign=middle;whiteSpace=wrap;rounded=0;" vertex="1" parent="1">
          <mxGeometry x="530" y="405" width="60" height="30" as="geometry" />
        </mxCell>
        <mxCell id="c7slLOBqW4r7M82rct8n-18" value="TRACK PROGRESS" style="text;html=1;strokeColor=none;fillColor=none;align=center;verticalAlign=middle;whiteSpace=wrap;rounded=0;" vertex="1" parent="1">
          <mxGeometry x="290" y="565" width="60" height="30" as="geometry" />
        </mxCell>
        <mxCell id="c7slLOBqW4r7M82rct8n-19" value="COLLABORATION" style="text;html=1;strokeColor=none;fillColor=none;align=center;verticalAlign=middle;whiteSpace=wrap;rounded=0;" vertex="1" parent="1">
          <mxGeometry x="290" y="485" width="60" height="30" as="geometry" />
        </mxCell>
        <mxCell id="p-wwputETJwnoI51UmFn-1" value="" style="endArrow=classic;html=1;rounded=0;exitX=0.5;exitY=1;exitDx=0;exitDy=0;entryX=0.5;entryY=0;entryDx=0;entryDy=0;" edge="1" parent="1" source="c7slLOBqW4r7M82rct8n-2" target="c7slLOBqW4r7M82rct8n-3">
          <mxGeometry width="50" height="50" relative="1" as="geometry">
            <mxPoint x="402" y="429" as="sourcePoint" />
            <mxPoint x="452" y="379" as="targetPoint" />
          </mxGeometry>
        </mxCell>
        <mxCell id="p-wwputETJwnoI51UmFn-2" value="" style="endArrow=classic;html=1;rounded=0;exitX=0.5;exitY=1;exitDx=0;exitDy=0;entryX=0.5;entryY=0;entryDx=0;entryDy=0;" edge="1" parent="1" source="c7slLOBqW4r7M82rct8n-2" target="c7slLOBqW4r7M82rct8n-5">
          <mxGeometry width="50" height="50" relative="1" as="geometry">
            <mxPoint x="272" y="359" as="sourcePoint" />
            <mxPoint x="322" y="309" as="targetPoint" />
          </mxGeometry>
        </mxCell>
      </root>
    </mxGraphModel>
  </diagram>
  <diagram id="0McOWyr9VJEcnxbk-rk6" name="LVL2 DFD">
    <mxGraphModel dx="2113" dy="1692" grid="0" gridSize="10" guides="1" tooltips="1" connect="1" arrows="1" fold="1" page="0" pageScale="1" pageWidth="850" pageHeight="1100" math="0" shadow="0">
      <root>
        <mxCell id="0" />
        <mxCell id="1" parent="0" />
        <mxCell id="K7GozBwgkOEYihb8h9Jw-1" value="" style="ellipse;whiteSpace=wrap;html=1;aspect=fixed;" vertex="1" parent="1">
          <mxGeometry x="-324" y="-889" width="80" height="80" as="geometry" />
        </mxCell>
        <mxCell id="K7GozBwgkOEYihb8h9Jw-2" value="" style="endArrow=none;html=1;rounded=0;" edge="1" parent="1">
          <mxGeometry width="50" height="50" relative="1" as="geometry">
            <mxPoint y="-890" as="sourcePoint" />
            <mxPoint x="-120" y="-891" as="targetPoint" />
          </mxGeometry>
        </mxCell>
        <mxCell id="K7GozBwgkOEYihb8h9Jw-3" value="" style="endArrow=none;html=1;rounded=0;" edge="1" parent="1">
          <mxGeometry width="50" height="50" relative="1" as="geometry">
            <mxPoint y="-850" as="sourcePoint" />
            <mxPoint x="-120" y="-851" as="targetPoint" />
          </mxGeometry>
        </mxCell>
        <mxCell id="K7GozBwgkOEYihb8h9Jw-4" value="" style="ellipse;whiteSpace=wrap;html=1;aspect=fixed;" vertex="1" parent="1">
          <mxGeometry x="-480" y="-730" width="80" height="80" as="geometry" />
        </mxCell>
        <mxCell id="K7GozBwgkOEYihb8h9Jw-5" value="" style="ellipse;whiteSpace=wrap;html=1;aspect=fixed;" vertex="1" parent="1">
          <mxGeometry x="-200" y="-730" width="80" height="80" as="geometry" />
        </mxCell>
        <mxCell id="K7GozBwgkOEYihb8h9Jw-7" value="" style="curved=1;endArrow=classic;html=1;rounded=0;entryX=0;entryY=0;entryDx=0;entryDy=0;" edge="1" parent="1" target="K7GozBwgkOEYihb8h9Jw-1">
          <mxGeometry width="50" height="50" relative="1" as="geometry">
            <mxPoint x="-440" y="-880" as="sourcePoint" />
            <mxPoint x="-470" y="-940" as="targetPoint" />
            <Array as="points">
              <mxPoint x="-400" y="-870" />
            </Array>
          </mxGeometry>
        </mxCell>
        <mxCell id="K7GozBwgkOEYihb8h9Jw-8" value="" style="endArrow=classic;html=1;rounded=0;entryX=1;entryY=0;entryDx=0;entryDy=0;" edge="1" parent="1" target="K7GozBwgkOEYihb8h9Jw-1">
          <mxGeometry width="50" height="50" relative="1" as="geometry">
            <mxPoint x="-130" y="-877" as="sourcePoint" />
            <mxPoint x="-370" y="-720" as="targetPoint" />
          </mxGeometry>
        </mxCell>
        <mxCell id="K7GozBwgkOEYihb8h9Jw-9" value="" style="endArrow=classic;html=1;rounded=0;exitX=0;exitY=1;exitDx=0;exitDy=0;entryX=1;entryY=0;entryDx=0;entryDy=0;" edge="1" parent="1" source="K7GozBwgkOEYihb8h9Jw-1" target="K7GozBwgkOEYihb8h9Jw-4">
          <mxGeometry width="50" height="50" relative="1" as="geometry">
            <mxPoint x="-350" y="-710" as="sourcePoint" />
            <mxPoint x="-300" y="-760" as="targetPoint" />
          </mxGeometry>
        </mxCell>
        <mxCell id="K7GozBwgkOEYihb8h9Jw-10" value="" style="endArrow=classic;html=1;rounded=0;exitX=1;exitY=1;exitDx=0;exitDy=0;entryX=0;entryY=0;entryDx=0;entryDy=0;" edge="1" parent="1" source="K7GozBwgkOEYihb8h9Jw-1" target="K7GozBwgkOEYihb8h9Jw-5">
          <mxGeometry width="50" height="50" relative="1" as="geometry">
            <mxPoint x="-290" y="-700" as="sourcePoint" />
            <mxPoint x="-240" y="-750" as="targetPoint" />
          </mxGeometry>
        </mxCell>
        <mxCell id="K7GozBwgkOEYihb8h9Jw-11" value="" style="curved=1;endArrow=classic;html=1;rounded=0;exitX=1;exitY=0;exitDx=0;exitDy=0;" edge="1" parent="1" source="K7GozBwgkOEYihb8h9Jw-5">
          <mxGeometry width="50" height="50" relative="1" as="geometry">
            <mxPoint x="-50" y="-620" as="sourcePoint" />
            <mxPoint x="-60" y="-850" as="targetPoint" />
            <Array as="points">
              <mxPoint x="-50" y="-718" />
            </Array>
          </mxGeometry>
        </mxCell>
        <mxCell id="K7GozBwgkOEYihb8h9Jw-12" value="" style="curved=1;endArrow=classic;html=1;rounded=0;exitX=0;exitY=1;exitDx=0;exitDy=0;" edge="1" parent="1" source="K7GozBwgkOEYihb8h9Jw-4">
          <mxGeometry width="50" height="50" relative="1" as="geometry">
            <mxPoint x="-530" y="-510" as="sourcePoint" />
            <mxPoint x="-560" y="-610" as="targetPoint" />
            <Array as="points">
              <mxPoint x="-500" y="-600" />
            </Array>
          </mxGeometry>
        </mxCell>
        <mxCell id="K7GozBwgkOEYihb8h9Jw-13" value="" style="ellipse;whiteSpace=wrap;html=1;aspect=fixed;" vertex="1" parent="1">
          <mxGeometry x="-730" y="-480" width="80" height="80" as="geometry" />
        </mxCell>
        <mxCell id="K7GozBwgkOEYihb8h9Jw-14" value="" style="ellipse;whiteSpace=wrap;html=1;aspect=fixed;" vertex="1" parent="1">
          <mxGeometry x="-294" y="-480" width="80" height="80" as="geometry" />
        </mxCell>
        <mxCell id="K7GozBwgkOEYihb8h9Jw-15" value="" style="ellipse;whiteSpace=wrap;html=1;aspect=fixed;" vertex="1" parent="1">
          <mxGeometry x="-530" y="-280" width="80" height="80" as="geometry" />
        </mxCell>
        <mxCell id="K7GozBwgkOEYihb8h9Jw-16" value="" style="ellipse;whiteSpace=wrap;html=1;aspect=fixed;" vertex="1" parent="1">
          <mxGeometry x="-290" y="-280" width="80" height="80" as="geometry" />
        </mxCell>
        <mxCell id="K7GozBwgkOEYihb8h9Jw-17" value="" style="endArrow=none;html=1;rounded=0;" edge="1" parent="1">
          <mxGeometry width="50" height="50" relative="1" as="geometry">
            <mxPoint x="-530" y="-460" as="sourcePoint" />
            <mxPoint x="-450" y="-460" as="targetPoint" />
          </mxGeometry>
        </mxCell>
        <mxCell id="K7GozBwgkOEYihb8h9Jw-18" value="" style="endArrow=none;html=1;rounded=0;" edge="1" parent="1">
          <mxGeometry width="50" height="50" relative="1" as="geometry">
            <mxPoint x="-530" y="-420" as="sourcePoint" />
            <mxPoint x="-450" y="-420" as="targetPoint" />
          </mxGeometry>
        </mxCell>
        <mxCell id="K7GozBwgkOEYihb8h9Jw-19" value="" style="endArrow=classic;html=1;rounded=0;entryX=0;entryY=0.5;entryDx=0;entryDy=0;" edge="1" parent="1" target="K7GozBwgkOEYihb8h9Jw-13">
          <mxGeometry width="50" height="50" relative="1" as="geometry">
            <mxPoint x="-840" y="-440" as="sourcePoint" />
            <mxPoint x="-790" y="-470" as="targetPoint" />
          </mxGeometry>
        </mxCell>
        <mxCell id="K7GozBwgkOEYihb8h9Jw-20" value="" style="endArrow=classic;html=1;rounded=0;exitX=1;exitY=0.5;exitDx=0;exitDy=0;" edge="1" parent="1" source="K7GozBwgkOEYihb8h9Jw-13">
          <mxGeometry width="50" height="50" relative="1" as="geometry">
            <mxPoint x="-390" y="-200" as="sourcePoint" />
            <mxPoint x="-540" y="-440" as="targetPoint" />
          </mxGeometry>
        </mxCell>
        <mxCell id="K7GozBwgkOEYihb8h9Jw-21" value="" style="endArrow=classic;html=1;rounded=0;entryX=0;entryY=0.5;entryDx=0;entryDy=0;" edge="1" parent="1" target="K7GozBwgkOEYihb8h9Jw-15">
          <mxGeometry width="50" height="50" relative="1" as="geometry">
            <mxPoint x="-650" y="-240" as="sourcePoint" />
            <mxPoint x="-600" y="-250" as="targetPoint" />
          </mxGeometry>
        </mxCell>
        <mxCell id="K7GozBwgkOEYihb8h9Jw-22" value="" style="endArrow=classic;html=1;rounded=0;entryX=0.5;entryY=0;entryDx=0;entryDy=0;" edge="1" parent="1" target="K7GozBwgkOEYihb8h9Jw-15">
          <mxGeometry width="50" height="50" relative="1" as="geometry">
            <mxPoint x="-490" y="-420" as="sourcePoint" />
            <mxPoint x="-450" y="-370" as="targetPoint" />
          </mxGeometry>
        </mxCell>
        <mxCell id="K7GozBwgkOEYihb8h9Jw-23" value="" style="endArrow=classic;html=1;rounded=0;exitX=0.5;exitY=1;exitDx=0;exitDy=0;" edge="1" parent="1" source="K7GozBwgkOEYihb8h9Jw-15">
          <mxGeometry width="50" height="50" relative="1" as="geometry">
            <mxPoint x="-480" y="-60" as="sourcePoint" />
            <mxPoint x="-490" y="-120" as="targetPoint" />
          </mxGeometry>
        </mxCell>
        <mxCell id="K7GozBwgkOEYihb8h9Jw-24" value="" style="curved=1;endArrow=classic;html=1;rounded=0;entryX=1;entryY=0;entryDx=0;entryDy=0;" edge="1" parent="1" target="K7GozBwgkOEYihb8h9Jw-14">
          <mxGeometry width="50" height="50" relative="1" as="geometry">
            <mxPoint x="-100" y="-520" as="sourcePoint" />
            <mxPoint x="-20" y="-490" as="targetPoint" />
            <Array as="points">
              <mxPoint x="-70" y="-490" />
            </Array>
          </mxGeometry>
        </mxCell>
        <mxCell id="K7GozBwgkOEYihb8h9Jw-25" value="" style="endArrow=classic;html=1;rounded=0;" edge="1" parent="1" source="K7GozBwgkOEYihb8h9Jw-14">
          <mxGeometry width="50" height="50" relative="1" as="geometry">
            <mxPoint x="-300" y="-440" as="sourcePoint" />
            <mxPoint x="-440" y="-440" as="targetPoint" />
          </mxGeometry>
        </mxCell>
        <mxCell id="K7GozBwgkOEYihb8h9Jw-26" value="" style="endArrow=classic;html=1;rounded=0;entryX=0;entryY=0;entryDx=0;entryDy=0;" edge="1" parent="1" target="K7GozBwgkOEYihb8h9Jw-16">
          <mxGeometry width="50" height="50" relative="1" as="geometry">
            <mxPoint x="-360" y="-300" as="sourcePoint" />
            <mxPoint x="-370" y="-290" as="targetPoint" />
          </mxGeometry>
        </mxCell>
        <mxCell id="K7GozBwgkOEYihb8h9Jw-27" value="" style="endArrow=classic;html=1;rounded=0;entryX=0.5;entryY=0;entryDx=0;entryDy=0;" edge="1" parent="1" target="K7GozBwgkOEYihb8h9Jw-16">
          <mxGeometry width="50" height="50" relative="1" as="geometry">
            <mxPoint x="-250" y="-330" as="sourcePoint" />
            <mxPoint x="-210" y="-360" as="targetPoint" />
          </mxGeometry>
        </mxCell>
        <mxCell id="K7GozBwgkOEYihb8h9Jw-28" value="" style="endArrow=classic;html=1;rounded=0;exitX=0.5;exitY=1;exitDx=0;exitDy=0;" edge="1" parent="1" source="K7GozBwgkOEYihb8h9Jw-16">
          <mxGeometry width="50" height="50" relative="1" as="geometry">
            <mxPoint x="-240" y="-70" as="sourcePoint" />
            <mxPoint x="-250" y="-120" as="targetPoint" />
          </mxGeometry>
        </mxCell>
        <mxCell id="K7GozBwgkOEYihb8h9Jw-29" value="" style="endArrow=classic;html=1;rounded=0;exitX=1;exitY=0.5;exitDx=0;exitDy=0;" edge="1" parent="1" source="K7GozBwgkOEYihb8h9Jw-16">
          <mxGeometry width="50" height="50" relative="1" as="geometry">
            <mxPoint x="-180" y="-220" as="sourcePoint" />
            <mxPoint x="-130" y="-240" as="targetPoint" />
          </mxGeometry>
        </mxCell>
        <mxCell id="K7GozBwgkOEYihb8h9Jw-30" value="" style="endArrow=none;html=1;rounded=0;" edge="1" parent="1">
          <mxGeometry width="50" height="50" relative="1" as="geometry">
            <mxPoint x="-130" y="-260" as="sourcePoint" />
            <mxPoint x="-50" y="-260" as="targetPoint" />
          </mxGeometry>
        </mxCell>
        <mxCell id="K7GozBwgkOEYihb8h9Jw-31" value="" style="endArrow=none;html=1;rounded=0;" edge="1" parent="1">
          <mxGeometry width="50" height="50" relative="1" as="geometry">
            <mxPoint x="-130" y="-220" as="sourcePoint" />
            <mxPoint x="-50" y="-220" as="targetPoint" />
          </mxGeometry>
        </mxCell>
        <mxCell id="K7GozBwgkOEYihb8h9Jw-32" value="User Details" style="text;html=1;strokeColor=none;fillColor=none;align=center;verticalAlign=middle;whiteSpace=wrap;rounded=0;" vertex="1" parent="1">
          <mxGeometry x="-500" y="-910" width="60" height="30" as="geometry" />
        </mxCell>
        <mxCell id="K7GozBwgkOEYihb8h9Jw-33" value="User Details" style="text;html=1;strokeColor=none;fillColor=none;align=center;verticalAlign=middle;whiteSpace=wrap;rounded=0;" vertex="1" parent="1">
          <mxGeometry x="-107" y="-886" width="90" height="30" as="geometry" />
        </mxCell>
        <mxCell id="K7GozBwgkOEYihb8h9Jw-34" value="User Details" style="text;html=1;strokeColor=none;fillColor=none;align=center;verticalAlign=middle;whiteSpace=wrap;rounded=0;rotation=-60;" vertex="1" parent="1">
          <mxGeometry x="-90" y="-760" width="90" height="30" as="geometry" />
        </mxCell>
        <mxCell id="K7GozBwgkOEYihb8h9Jw-35" value="Already Exists" style="text;html=1;strokeColor=none;fillColor=none;align=center;verticalAlign=middle;whiteSpace=wrap;rounded=0;" vertex="1" parent="1">
          <mxGeometry x="-410" y="-809" width="60" height="30" as="geometry" />
        </mxCell>
        <mxCell id="K7GozBwgkOEYihb8h9Jw-36" value="Does Not Exist" style="text;html=1;strokeColor=none;fillColor=none;align=center;verticalAlign=middle;whiteSpace=wrap;rounded=0;" vertex="1" parent="1">
          <mxGeometry x="-230" y="-809" width="60" height="30" as="geometry" />
        </mxCell>
        <mxCell id="K7GozBwgkOEYihb8h9Jw-37" value="User Already Exists" style="text;html=1;strokeColor=none;fillColor=none;align=center;verticalAlign=middle;whiteSpace=wrap;rounded=0;" vertex="1" parent="1">
          <mxGeometry x="-500" y="-620" width="60" height="30" as="geometry" />
        </mxCell>
        <mxCell id="K7GozBwgkOEYihb8h9Jw-38" value="Check Already Exists&lt;br&gt;0.1.1" style="text;html=1;strokeColor=none;fillColor=none;align=center;verticalAlign=middle;whiteSpace=wrap;rounded=0;" vertex="1" parent="1">
          <mxGeometry x="-314" y="-864" width="60" height="30" as="geometry" />
        </mxCell>
        <mxCell id="K7GozBwgkOEYihb8h9Jw-39" value="Error Message Generation&lt;br&gt;0.1.2&lt;br&gt;" style="text;html=1;strokeColor=none;fillColor=none;align=center;verticalAlign=middle;whiteSpace=wrap;rounded=0;" vertex="1" parent="1">
          <mxGeometry x="-470" y="-705" width="60" height="30" as="geometry" />
        </mxCell>
        <mxCell id="K7GozBwgkOEYihb8h9Jw-40" value="Register User&lt;br&gt;0.1.3" style="text;html=1;strokeColor=none;fillColor=none;align=center;verticalAlign=middle;whiteSpace=wrap;rounded=0;" vertex="1" parent="1">
          <mxGeometry x="-190" y="-705" width="60" height="30" as="geometry" />
        </mxCell>
        <mxCell id="K7GozBwgkOEYihb8h9Jw-41" value="Project Details" style="text;html=1;strokeColor=none;fillColor=none;align=center;verticalAlign=middle;whiteSpace=wrap;rounded=0;" vertex="1" parent="1">
          <mxGeometry x="-830" y="-470" width="60" height="30" as="geometry" />
        </mxCell>
        <mxCell id="K7GozBwgkOEYihb8h9Jw-42" value="Project Data" style="text;html=1;strokeColor=none;fillColor=none;align=center;verticalAlign=middle;whiteSpace=wrap;rounded=0;" vertex="1" parent="1">
          <mxGeometry x="-521" y="-455" width="60" height="30" as="geometry" />
        </mxCell>
        <mxCell id="K7GozBwgkOEYihb8h9Jw-43" value="Collaboration Details" style="text;html=1;strokeColor=none;fillColor=none;align=center;verticalAlign=middle;whiteSpace=wrap;rounded=0;" vertex="1" parent="1">
          <mxGeometry x="-400" y="-470" width="60" height="30" as="geometry" />
        </mxCell>
        <mxCell id="K7GozBwgkOEYihb8h9Jw-44" value="Collaborate On" style="text;html=1;strokeColor=none;fillColor=none;align=center;verticalAlign=middle;whiteSpace=wrap;rounded=0;" vertex="1" parent="1">
          <mxGeometry x="-130" y="-550" width="60" height="30" as="geometry" />
        </mxCell>
        <mxCell id="K7GozBwgkOEYihb8h9Jw-45" value="View Project" style="text;html=1;strokeColor=none;fillColor=none;align=center;verticalAlign=middle;whiteSpace=wrap;rounded=0;" vertex="1" parent="1">
          <mxGeometry x="-640" y="-270" width="60" height="30" as="geometry" />
        </mxCell>
        <mxCell id="K7GozBwgkOEYihb8h9Jw-46" value="Show Project With Details" style="text;html=1;strokeColor=none;fillColor=none;align=center;verticalAlign=middle;whiteSpace=wrap;rounded=0;" vertex="1" parent="1">
          <mxGeometry x="-520" y="-110" width="60" height="30" as="geometry" />
        </mxCell>
        <mxCell id="K7GozBwgkOEYihb8h9Jw-47" value="Project Listing&lt;br&gt;0.3.1" style="text;html=1;strokeColor=none;fillColor=none;align=center;verticalAlign=middle;whiteSpace=wrap;rounded=0;" vertex="1" parent="1">
          <mxGeometry x="-720" y="-455" width="60" height="30" as="geometry" />
        </mxCell>
        <mxCell id="K7GozBwgkOEYihb8h9Jw-48" value="Collaborator Management&lt;br&gt;0.3.2" style="text;html=1;strokeColor=none;fillColor=none;align=center;verticalAlign=middle;whiteSpace=wrap;rounded=0;" vertex="1" parent="1">
          <mxGeometry x="-284" y="-455" width="60" height="30" as="geometry" />
        </mxCell>
        <mxCell id="K7GozBwgkOEYihb8h9Jw-49" value="View Project&lt;br&gt;0.3.3" style="text;html=1;strokeColor=none;fillColor=none;align=center;verticalAlign=middle;whiteSpace=wrap;rounded=0;" vertex="1" parent="1">
          <mxGeometry x="-521" y="-255" width="60" height="30" as="geometry" />
        </mxCell>
        <mxCell id="K7GozBwgkOEYihb8h9Jw-50" value="Message" style="text;html=1;strokeColor=none;fillColor=none;align=center;verticalAlign=middle;whiteSpace=wrap;rounded=0;" vertex="1" parent="1">
          <mxGeometry x="-420" y="-320" width="60" height="30" as="geometry" />
        </mxCell>
        <mxCell id="K7GozBwgkOEYihb8h9Jw-51" value="View Discussion Forum" style="text;html=1;strokeColor=none;fillColor=none;align=center;verticalAlign=middle;whiteSpace=wrap;rounded=0;" vertex="1" parent="1">
          <mxGeometry x="-280" y="-368" width="60" height="30" as="geometry" />
        </mxCell>
        <mxCell id="K7GozBwgkOEYihb8h9Jw-52" value="Discussion" style="text;html=1;strokeColor=none;fillColor=none;align=center;verticalAlign=middle;whiteSpace=wrap;rounded=0;" vertex="1" parent="1">
          <mxGeometry x="-120" y="-256" width="60" height="30" as="geometry" />
        </mxCell>
        <mxCell id="K7GozBwgkOEYihb8h9Jw-53" value="Show Messages" style="text;html=1;strokeColor=none;fillColor=none;align=center;verticalAlign=middle;whiteSpace=wrap;rounded=0;" vertex="1" parent="1">
          <mxGeometry x="-237" y="-170" width="60" height="30" as="geometry" />
        </mxCell>
        <mxCell id="K7GozBwgkOEYihb8h9Jw-54" value="Discussion Forum Tracker&lt;br&gt;0.3.4" style="text;html=1;strokeColor=none;fillColor=none;align=center;verticalAlign=middle;whiteSpace=wrap;rounded=0;" vertex="1" parent="1">
          <mxGeometry x="-280" y="-253" width="60" height="30" as="geometry" />
        </mxCell>
      </root>
    </mxGraphModel>
  </diagram>
  <diagram id="CzkYEe54Dy5R0U4Xg_Zs" name="ER">
    <mxGraphModel dx="1900" dy="1209" grid="0" gridSize="10" guides="1" tooltips="1" connect="1" arrows="1" fold="1" page="0" pageScale="1" pageWidth="850" pageHeight="1100" math="0" shadow="0">
      <root>
        <mxCell id="0" />
        <mxCell id="1" parent="0" />
        <mxCell id="4jKNq6Q--q4MzQR4nOdX-1" value="" style="rhombus;whiteSpace=wrap;html=1;" vertex="1" parent="1">
          <mxGeometry x="-160" y="240" width="80" height="80" as="geometry" />
        </mxCell>
        <mxCell id="4jKNq6Q--q4MzQR4nOdX-2" value="" style="rounded=0;whiteSpace=wrap;html=1;" vertex="1" parent="1">
          <mxGeometry x="-180" width="120" height="60" as="geometry" />
        </mxCell>
        <mxCell id="4jKNq6Q--q4MzQR4nOdX-3" value="" style="rhombus;whiteSpace=wrap;html=1;" vertex="1" parent="1">
          <mxGeometry x="400" y="240" width="80" height="80" as="geometry" />
        </mxCell>
        <mxCell id="4jKNq6Q--q4MzQR4nOdX-4" value="" style="rounded=0;whiteSpace=wrap;html=1;" vertex="1" parent="1">
          <mxGeometry x="380" y="400" width="120" height="60" as="geometry" />
        </mxCell>
        <mxCell id="4jKNq6Q--q4MzQR4nOdX-5" value="" style="rounded=0;whiteSpace=wrap;html=1;" vertex="1" parent="1">
          <mxGeometry x="-180" y="400" width="120" height="60" as="geometry" />
        </mxCell>
        <mxCell id="4jKNq6Q--q4MzQR4nOdX-6" value="" style="ellipse;whiteSpace=wrap;html=1;" vertex="1" parent="1">
          <mxGeometry x="50" y="-160" width="90" height="50" as="geometry" />
        </mxCell>
        <mxCell id="4jKNq6Q--q4MzQR4nOdX-7" value="" style="ellipse;whiteSpace=wrap;html=1;" vertex="1" parent="1">
          <mxGeometry x="20" y="-45" width="90" height="50" as="geometry" />
        </mxCell>
        <mxCell id="4jKNq6Q--q4MzQR4nOdX-9" value="" style="ellipse;whiteSpace=wrap;html=1;" vertex="1" parent="1">
          <mxGeometry x="20" y="10" width="90" height="50" as="geometry" />
        </mxCell>
        <mxCell id="4jKNq6Q--q4MzQR4nOdX-10" value="" style="ellipse;whiteSpace=wrap;html=1;" vertex="1" parent="1">
          <mxGeometry x="10" y="-100" width="90" height="50" as="geometry" />
        </mxCell>
        <mxCell id="4jKNq6Q--q4MzQR4nOdX-11" value="" style="ellipse;whiteSpace=wrap;html=1;" vertex="1" parent="1">
          <mxGeometry x="-60" y="-170" width="90" height="50" as="geometry" />
        </mxCell>
        <mxCell id="4jKNq6Q--q4MzQR4nOdX-12" value="" style="ellipse;whiteSpace=wrap;html=1;" vertex="1" parent="1">
          <mxGeometry x="-160" y="-160" width="90" height="50" as="geometry" />
        </mxCell>
        <mxCell id="4jKNq6Q--q4MzQR4nOdX-13" value="" style="ellipse;whiteSpace=wrap;html=1;" vertex="1" parent="1">
          <mxGeometry x="-260" y="-180" width="90" height="50" as="geometry" />
        </mxCell>
        <mxCell id="4jKNq6Q--q4MzQR4nOdX-14" value="" style="ellipse;whiteSpace=wrap;html=1;" vertex="1" parent="1">
          <mxGeometry x="-300" y="-130" width="90" height="50" as="geometry" />
        </mxCell>
        <mxCell id="4jKNq6Q--q4MzQR4nOdX-15" value="" style="ellipse;whiteSpace=wrap;html=1;" vertex="1" parent="1">
          <mxGeometry x="-320" y="-70" width="90" height="50" as="geometry" />
        </mxCell>
        <mxCell id="4jKNq6Q--q4MzQR4nOdX-16" value="" style="ellipse;whiteSpace=wrap;html=1;" vertex="1" parent="1">
          <mxGeometry x="-320" y="-10" width="90" height="50" as="geometry" />
        </mxCell>
        <mxCell id="4jKNq6Q--q4MzQR4nOdX-17" value="" style="ellipse;whiteSpace=wrap;html=1;" vertex="1" parent="1">
          <mxGeometry x="-300" y="50" width="90" height="50" as="geometry" />
        </mxCell>
        <mxCell id="4jKNq6Q--q4MzQR4nOdX-19" value="" style="ellipse;whiteSpace=wrap;html=1;" vertex="1" parent="1">
          <mxGeometry x="240" y="340" width="100" height="60" as="geometry" />
        </mxCell>
        <mxCell id="4jKNq6Q--q4MzQR4nOdX-20" value="" style="ellipse;whiteSpace=wrap;html=1;" vertex="1" parent="1">
          <mxGeometry x="240" y="420" width="100" height="60" as="geometry" />
        </mxCell>
        <mxCell id="4jKNq6Q--q4MzQR4nOdX-21" value="" style="ellipse;whiteSpace=wrap;html=1;" vertex="1" parent="1">
          <mxGeometry x="-270" y="320" width="100" height="60" as="geometry" />
        </mxCell>
        <mxCell id="4jKNq6Q--q4MzQR4nOdX-22" value="" style="ellipse;whiteSpace=wrap;html=1;" vertex="1" parent="1">
          <mxGeometry x="-200" y="530" width="100" height="60" as="geometry" />
        </mxCell>
        <mxCell id="4jKNq6Q--q4MzQR4nOdX-23" value="" style="ellipse;whiteSpace=wrap;html=1;" vertex="1" parent="1">
          <mxGeometry x="-310" y="500" width="100" height="60" as="geometry" />
        </mxCell>
        <mxCell id="4jKNq6Q--q4MzQR4nOdX-24" value="" style="ellipse;whiteSpace=wrap;html=1;" vertex="1" parent="1">
          <mxGeometry x="-330" y="430" width="100" height="60" as="geometry" />
        </mxCell>
        <mxCell id="4jKNq6Q--q4MzQR4nOdX-25" value="" style="ellipse;whiteSpace=wrap;html=1;" vertex="1" parent="1">
          <mxGeometry x="-370" y="360" width="100" height="60" as="geometry" />
        </mxCell>
        <mxCell id="4jKNq6Q--q4MzQR4nOdX-27" value="" style="endArrow=none;html=1;rounded=0;entryX=0.5;entryY=1;entryDx=0;entryDy=0;exitX=0.5;exitY=0;exitDx=0;exitDy=0;" edge="1" parent="1" source="4jKNq6Q--q4MzQR4nOdX-1" target="4jKNq6Q--q4MzQR4nOdX-2">
          <mxGeometry width="50" height="50" relative="1" as="geometry">
            <mxPoint x="-150" y="170" as="sourcePoint" />
            <mxPoint x="-100" y="120" as="targetPoint" />
          </mxGeometry>
        </mxCell>
        <mxCell id="4jKNq6Q--q4MzQR4nOdX-28" value="" style="endArrow=none;html=1;rounded=0;exitX=0.5;exitY=0;exitDx=0;exitDy=0;" edge="1" parent="1" source="4jKNq6Q--q4MzQR4nOdX-5">
          <mxGeometry width="50" height="50" relative="1" as="geometry">
            <mxPoint x="-110" y="250" as="sourcePoint" />
            <mxPoint x="-120" y="320" as="targetPoint" />
          </mxGeometry>
        </mxCell>
        <mxCell id="4jKNq6Q--q4MzQR4nOdX-29" value="" style="endArrow=none;html=1;rounded=0;entryX=0.5;entryY=1;entryDx=0;entryDy=0;exitX=0.5;exitY=0;exitDx=0;exitDy=0;" edge="1" parent="1" source="4jKNq6Q--q4MzQR4nOdX-4" target="4jKNq6Q--q4MzQR4nOdX-3">
          <mxGeometry width="50" height="50" relative="1" as="geometry">
            <mxPoint x="450" y="380" as="sourcePoint" />
            <mxPoint x="500" y="330" as="targetPoint" />
          </mxGeometry>
        </mxCell>
        <mxCell id="4jKNq6Q--q4MzQR4nOdX-30" value="" style="endArrow=none;html=1;rounded=0;entryX=1;entryY=1;entryDx=0;entryDy=0;exitX=0.5;exitY=0;exitDx=0;exitDy=0;" edge="1" parent="1" source="4jKNq6Q--q4MzQR4nOdX-3" target="4jKNq6Q--q4MzQR4nOdX-2">
          <mxGeometry width="50" height="50" relative="1" as="geometry">
            <mxPoint x="110" y="180" as="sourcePoint" />
            <mxPoint x="160" y="130" as="targetPoint" />
          </mxGeometry>
        </mxCell>
        <mxCell id="4jKNq6Q--q4MzQR4nOdX-31" value="" style="endArrow=none;html=1;rounded=0;entryX=1;entryY=0.5;entryDx=0;entryDy=0;exitX=0;exitY=1;exitDx=0;exitDy=0;" edge="1" parent="1" source="4jKNq6Q--q4MzQR4nOdX-4" target="4jKNq6Q--q4MzQR4nOdX-20">
          <mxGeometry width="50" height="50" relative="1" as="geometry">
            <mxPoint x="330" y="540" as="sourcePoint" />
            <mxPoint x="380" y="490" as="targetPoint" />
          </mxGeometry>
        </mxCell>
        <mxCell id="4jKNq6Q--q4MzQR4nOdX-32" value="" style="endArrow=none;html=1;rounded=0;exitX=1;exitY=0.5;exitDx=0;exitDy=0;entryX=0;entryY=0;entryDx=0;entryDy=0;" edge="1" parent="1" source="4jKNq6Q--q4MzQR4nOdX-19" target="4jKNq6Q--q4MzQR4nOdX-4">
          <mxGeometry width="50" height="50" relative="1" as="geometry">
            <mxPoint x="370" y="390" as="sourcePoint" />
            <mxPoint x="420" y="340" as="targetPoint" />
          </mxGeometry>
        </mxCell>
        <mxCell id="4jKNq6Q--q4MzQR4nOdX-33" value="" style="endArrow=none;html=1;rounded=0;exitX=0.5;exitY=0;exitDx=0;exitDy=0;entryX=0.5;entryY=1;entryDx=0;entryDy=0;" edge="1" parent="1" source="4jKNq6Q--q4MzQR4nOdX-22" target="4jKNq6Q--q4MzQR4nOdX-5">
          <mxGeometry width="50" height="50" relative="1" as="geometry">
            <mxPoint x="-30" y="550" as="sourcePoint" />
            <mxPoint x="20" y="500" as="targetPoint" />
          </mxGeometry>
        </mxCell>
        <mxCell id="4jKNq6Q--q4MzQR4nOdX-34" value="" style="endArrow=none;html=1;rounded=0;exitX=1;exitY=0;exitDx=0;exitDy=0;entryX=0;entryY=1;entryDx=0;entryDy=0;" edge="1" parent="1" source="4jKNq6Q--q4MzQR4nOdX-23" target="4jKNq6Q--q4MzQR4nOdX-5">
          <mxGeometry width="50" height="50" relative="1" as="geometry">
            <mxPoint x="-190" y="520" as="sourcePoint" />
            <mxPoint x="-140" y="470" as="targetPoint" />
          </mxGeometry>
        </mxCell>
        <mxCell id="4jKNq6Q--q4MzQR4nOdX-35" value="" style="endArrow=none;html=1;rounded=0;exitX=1;exitY=0.5;exitDx=0;exitDy=0;entryX=0;entryY=0.75;entryDx=0;entryDy=0;" edge="1" parent="1" source="4jKNq6Q--q4MzQR4nOdX-24" target="4jKNq6Q--q4MzQR4nOdX-5">
          <mxGeometry width="50" height="50" relative="1" as="geometry">
            <mxPoint x="-220" y="470" as="sourcePoint" />
            <mxPoint x="-170" y="420" as="targetPoint" />
          </mxGeometry>
        </mxCell>
        <mxCell id="4jKNq6Q--q4MzQR4nOdX-36" value="" style="endArrow=none;html=1;rounded=0;exitX=1;exitY=0.5;exitDx=0;exitDy=0;entryX=0;entryY=0.5;entryDx=0;entryDy=0;" edge="1" parent="1" source="4jKNq6Q--q4MzQR4nOdX-25" target="4jKNq6Q--q4MzQR4nOdX-5">
          <mxGeometry width="50" height="50" relative="1" as="geometry">
            <mxPoint x="-250" y="440" as="sourcePoint" />
            <mxPoint x="-200" y="390" as="targetPoint" />
          </mxGeometry>
        </mxCell>
        <mxCell id="4jKNq6Q--q4MzQR4nOdX-37" value="" style="endArrow=none;html=1;rounded=0;exitX=1;exitY=1;exitDx=0;exitDy=0;entryX=0.25;entryY=0;entryDx=0;entryDy=0;" edge="1" parent="1" source="4jKNq6Q--q4MzQR4nOdX-21" target="4jKNq6Q--q4MzQR4nOdX-5">
          <mxGeometry width="50" height="50" relative="1" as="geometry">
            <mxPoint x="-60" y="400" as="sourcePoint" />
            <mxPoint x="-10" y="350" as="targetPoint" />
          </mxGeometry>
        </mxCell>
        <mxCell id="4jKNq6Q--q4MzQR4nOdX-38" value="" style="endArrow=none;html=1;rounded=0;exitX=1;exitY=0.5;exitDx=0;exitDy=0;entryX=0;entryY=1;entryDx=0;entryDy=0;" edge="1" parent="1" source="4jKNq6Q--q4MzQR4nOdX-17" target="4jKNq6Q--q4MzQR4nOdX-2">
          <mxGeometry width="50" height="50" relative="1" as="geometry">
            <mxPoint x="-200" y="150" as="sourcePoint" />
            <mxPoint x="-150" y="100" as="targetPoint" />
          </mxGeometry>
        </mxCell>
        <mxCell id="4jKNq6Q--q4MzQR4nOdX-39" value="" style="endArrow=none;html=1;rounded=0;exitX=1;exitY=0.5;exitDx=0;exitDy=0;entryX=0;entryY=0.5;entryDx=0;entryDy=0;" edge="1" parent="1" source="4jKNq6Q--q4MzQR4nOdX-16" target="4jKNq6Q--q4MzQR4nOdX-2">
          <mxGeometry width="50" height="50" relative="1" as="geometry">
            <mxPoint x="-220" y="170" as="sourcePoint" />
            <mxPoint x="-170" y="120" as="targetPoint" />
          </mxGeometry>
        </mxCell>
        <mxCell id="4jKNq6Q--q4MzQR4nOdX-40" value="" style="endArrow=none;html=1;rounded=0;exitX=1;exitY=0.5;exitDx=0;exitDy=0;entryX=0;entryY=0.25;entryDx=0;entryDy=0;" edge="1" parent="1" source="4jKNq6Q--q4MzQR4nOdX-15" target="4jKNq6Q--q4MzQR4nOdX-2">
          <mxGeometry width="50" height="50" relative="1" as="geometry">
            <mxPoint x="-180" y="-20" as="sourcePoint" />
            <mxPoint x="-130" y="-70" as="targetPoint" />
          </mxGeometry>
        </mxCell>
        <mxCell id="4jKNq6Q--q4MzQR4nOdX-41" value="" style="endArrow=none;html=1;rounded=0;exitX=1;exitY=1;exitDx=0;exitDy=0;entryX=0;entryY=0;entryDx=0;entryDy=0;" edge="1" parent="1" source="4jKNq6Q--q4MzQR4nOdX-14" target="4jKNq6Q--q4MzQR4nOdX-2">
          <mxGeometry width="50" height="50" relative="1" as="geometry">
            <mxPoint x="-180" y="-20" as="sourcePoint" />
            <mxPoint x="-130" y="-70" as="targetPoint" />
          </mxGeometry>
        </mxCell>
        <mxCell id="4jKNq6Q--q4MzQR4nOdX-42" value="" style="endArrow=none;html=1;rounded=0;exitX=0.5;exitY=1;exitDx=0;exitDy=0;entryX=0.25;entryY=0;entryDx=0;entryDy=0;" edge="1" parent="1" source="4jKNq6Q--q4MzQR4nOdX-13" target="4jKNq6Q--q4MzQR4nOdX-2">
          <mxGeometry width="50" height="50" relative="1" as="geometry">
            <mxPoint x="-140" y="-50" as="sourcePoint" />
            <mxPoint x="-90" y="-100" as="targetPoint" />
          </mxGeometry>
        </mxCell>
        <mxCell id="4jKNq6Q--q4MzQR4nOdX-43" value="" style="endArrow=none;html=1;rounded=0;entryX=0.5;entryY=1;entryDx=0;entryDy=0;exitX=0.5;exitY=0;exitDx=0;exitDy=0;" edge="1" parent="1" source="4jKNq6Q--q4MzQR4nOdX-2" target="4jKNq6Q--q4MzQR4nOdX-12">
          <mxGeometry width="50" height="50" relative="1" as="geometry">
            <mxPoint x="-130" y="-30" as="sourcePoint" />
            <mxPoint x="-80" y="-80" as="targetPoint" />
          </mxGeometry>
        </mxCell>
        <mxCell id="4jKNq6Q--q4MzQR4nOdX-44" value="" style="endArrow=none;html=1;rounded=0;entryX=0.5;entryY=1;entryDx=0;entryDy=0;exitX=0.75;exitY=0;exitDx=0;exitDy=0;" edge="1" parent="1" source="4jKNq6Q--q4MzQR4nOdX-2" target="4jKNq6Q--q4MzQR4nOdX-11">
          <mxGeometry width="50" height="50" relative="1" as="geometry">
            <mxPoint x="-100" y="-30" as="sourcePoint" />
            <mxPoint x="-50" y="-80" as="targetPoint" />
          </mxGeometry>
        </mxCell>
        <mxCell id="4jKNq6Q--q4MzQR4nOdX-45" value="" style="endArrow=none;html=1;rounded=0;entryX=0;entryY=0.5;entryDx=0;entryDy=0;exitX=0.75;exitY=0;exitDx=0;exitDy=0;" edge="1" parent="1" source="4jKNq6Q--q4MzQR4nOdX-2" target="4jKNq6Q--q4MzQR4nOdX-6">
          <mxGeometry width="50" height="50" relative="1" as="geometry">
            <mxPoint x="-60" y="-10" as="sourcePoint" />
            <mxPoint y="-50" as="targetPoint" />
          </mxGeometry>
        </mxCell>
        <mxCell id="4jKNq6Q--q4MzQR4nOdX-46" value="" style="endArrow=none;html=1;rounded=0;entryX=0;entryY=0.5;entryDx=0;entryDy=0;exitX=1;exitY=0;exitDx=0;exitDy=0;" edge="1" parent="1" source="4jKNq6Q--q4MzQR4nOdX-2" target="4jKNq6Q--q4MzQR4nOdX-10">
          <mxGeometry width="50" height="50" relative="1" as="geometry">
            <mxPoint x="-50" y="10" as="sourcePoint" />
            <mxPoint y="-40" as="targetPoint" />
          </mxGeometry>
        </mxCell>
        <mxCell id="4jKNq6Q--q4MzQR4nOdX-47" value="" style="endArrow=none;html=1;rounded=0;entryX=0;entryY=0.5;entryDx=0;entryDy=0;exitX=1;exitY=0.25;exitDx=0;exitDy=0;" edge="1" parent="1" source="4jKNq6Q--q4MzQR4nOdX-2" target="4jKNq6Q--q4MzQR4nOdX-7">
          <mxGeometry width="50" height="50" relative="1" as="geometry">
            <mxPoint x="-40" y="30" as="sourcePoint" />
            <mxPoint x="10" y="-20" as="targetPoint" />
          </mxGeometry>
        </mxCell>
        <mxCell id="4jKNq6Q--q4MzQR4nOdX-48" value="" style="endArrow=none;html=1;rounded=0;entryX=0;entryY=0.5;entryDx=0;entryDy=0;exitX=1;exitY=0.75;exitDx=0;exitDy=0;" edge="1" parent="1" source="4jKNq6Q--q4MzQR4nOdX-2" target="4jKNq6Q--q4MzQR4nOdX-9">
          <mxGeometry width="50" height="50" relative="1" as="geometry">
            <mxPoint x="-40" y="70" as="sourcePoint" />
            <mxPoint x="10" y="20" as="targetPoint" />
          </mxGeometry>
        </mxCell>
        <mxCell id="4jKNq6Q--q4MzQR4nOdX-49" value="UserID" style="text;html=1;strokeColor=none;fillColor=none;align=center;verticalAlign=middle;whiteSpace=wrap;rounded=0;" vertex="1" parent="1">
          <mxGeometry x="-245" y="-170" width="60" height="30" as="geometry" />
        </mxCell>
        <mxCell id="4jKNq6Q--q4MzQR4nOdX-50" value="Projects" style="text;html=1;strokeColor=none;fillColor=none;align=center;verticalAlign=middle;whiteSpace=wrap;rounded=0;" vertex="1" parent="1">
          <mxGeometry x="-285" y="-120" width="60" height="30" as="geometry" />
        </mxCell>
        <mxCell id="4jKNq6Q--q4MzQR4nOdX-51" value="Email" style="text;html=1;strokeColor=none;fillColor=none;align=center;verticalAlign=middle;whiteSpace=wrap;rounded=0;" vertex="1" parent="1">
          <mxGeometry x="-310" y="-60" width="60" height="30" as="geometry" />
        </mxCell>
        <mxCell id="4jKNq6Q--q4MzQR4nOdX-52" value="Country" style="text;html=1;strokeColor=none;fillColor=none;align=center;verticalAlign=middle;whiteSpace=wrap;rounded=0;" vertex="1" parent="1">
          <mxGeometry x="-305" width="60" height="30" as="geometry" />
        </mxCell>
        <mxCell id="4jKNq6Q--q4MzQR4nOdX-53" value="Collaboration" style="text;html=1;strokeColor=none;fillColor=none;align=center;verticalAlign=middle;whiteSpace=wrap;rounded=0;" vertex="1" parent="1">
          <mxGeometry x="-285" y="60" width="60" height="30" as="geometry" />
        </mxCell>
        <mxCell id="4jKNq6Q--q4MzQR4nOdX-54" value="Name" style="text;html=1;strokeColor=none;fillColor=none;align=center;verticalAlign=middle;whiteSpace=wrap;rounded=0;" vertex="1" parent="1">
          <mxGeometry x="-145" y="-150" width="60" height="30" as="geometry" />
        </mxCell>
        <mxCell id="4jKNq6Q--q4MzQR4nOdX-55" value="Username" style="text;html=1;strokeColor=none;fillColor=none;align=center;verticalAlign=middle;whiteSpace=wrap;rounded=0;" vertex="1" parent="1">
          <mxGeometry x="-45" y="-160" width="60" height="30" as="geometry" />
        </mxCell>
        <mxCell id="4jKNq6Q--q4MzQR4nOdX-56" value="Password" style="text;html=1;strokeColor=none;fillColor=none;align=center;verticalAlign=middle;whiteSpace=wrap;rounded=0;" vertex="1" parent="1">
          <mxGeometry x="65" y="-150" width="60" height="30" as="geometry" />
        </mxCell>
        <mxCell id="4jKNq6Q--q4MzQR4nOdX-57" value="Github" style="text;html=1;strokeColor=none;fillColor=none;align=center;verticalAlign=middle;whiteSpace=wrap;rounded=0;" vertex="1" parent="1">
          <mxGeometry x="25" y="-90" width="60" height="30" as="geometry" />
        </mxCell>
        <mxCell id="4jKNq6Q--q4MzQR4nOdX-58" value="Linkedln" style="text;html=1;strokeColor=none;fillColor=none;align=center;verticalAlign=middle;whiteSpace=wrap;rounded=0;" vertex="1" parent="1">
          <mxGeometry x="35" y="-35" width="60" height="30" as="geometry" />
        </mxCell>
        <mxCell id="4jKNq6Q--q4MzQR4nOdX-59" value="Profile Pic" style="text;html=1;strokeColor=none;fillColor=none;align=center;verticalAlign=middle;whiteSpace=wrap;rounded=0;" vertex="1" parent="1">
          <mxGeometry x="35" y="20" width="60" height="30" as="geometry" />
        </mxCell>
        <mxCell id="4jKNq6Q--q4MzQR4nOdX-60" value="USER" style="text;html=1;strokeColor=none;fillColor=none;align=center;verticalAlign=middle;whiteSpace=wrap;rounded=0;" vertex="1" parent="1">
          <mxGeometry x="-150" y="15" width="60" height="30" as="geometry" />
        </mxCell>
        <mxCell id="4jKNq6Q--q4MzQR4nOdX-61" value="has" style="text;html=1;strokeColor=none;fillColor=none;align=center;verticalAlign=middle;whiteSpace=wrap;rounded=0;" vertex="1" parent="1">
          <mxGeometry x="-150" y="265" width="60" height="30" as="geometry" />
        </mxCell>
        <mxCell id="4jKNq6Q--q4MzQR4nOdX-62" value="participates in" style="text;html=1;strokeColor=none;fillColor=none;align=center;verticalAlign=middle;whiteSpace=wrap;rounded=0;" vertex="1" parent="1">
          <mxGeometry x="410" y="268" width="60" height="30" as="geometry" />
        </mxCell>
        <mxCell id="4jKNq6Q--q4MzQR4nOdX-63" value="PROJECT" style="text;html=1;strokeColor=none;fillColor=none;align=center;verticalAlign=middle;whiteSpace=wrap;rounded=0;" vertex="1" parent="1">
          <mxGeometry x="-150" y="415" width="60" height="30" as="geometry" />
        </mxCell>
        <mxCell id="4jKNq6Q--q4MzQR4nOdX-65" value="DISCUSSIONS" style="text;html=1;strokeColor=none;fillColor=none;align=center;verticalAlign=middle;whiteSpace=wrap;rounded=0;" vertex="1" parent="1">
          <mxGeometry x="410" y="414" width="60" height="30" as="geometry" />
        </mxCell>
        <mxCell id="4jKNq6Q--q4MzQR4nOdX-66" value="Texts" style="text;html=1;strokeColor=none;fillColor=none;align=center;verticalAlign=middle;whiteSpace=wrap;rounded=0;" vertex="1" parent="1">
          <mxGeometry x="260" y="360" width="60" height="30" as="geometry" />
        </mxCell>
        <mxCell id="4jKNq6Q--q4MzQR4nOdX-67" value="Comments" style="text;html=1;strokeColor=none;fillColor=none;align=center;verticalAlign=middle;whiteSpace=wrap;rounded=0;" vertex="1" parent="1">
          <mxGeometry x="260" y="435" width="60" height="30" as="geometry" />
        </mxCell>
        <mxCell id="4jKNq6Q--q4MzQR4nOdX-68" value="ProjectId" style="text;html=1;strokeColor=none;fillColor=none;align=center;verticalAlign=middle;whiteSpace=wrap;rounded=0;" vertex="1" parent="1">
          <mxGeometry x="-250" y="340" width="60" height="30" as="geometry" />
        </mxCell>
        <mxCell id="4jKNq6Q--q4MzQR4nOdX-69" value="Project Name" style="text;html=1;strokeColor=none;fillColor=none;align=center;verticalAlign=middle;whiteSpace=wrap;rounded=0;" vertex="1" parent="1">
          <mxGeometry x="-350" y="375" width="60" height="30" as="geometry" />
        </mxCell>
        <mxCell id="4jKNq6Q--q4MzQR4nOdX-70" value="Github" style="text;html=1;strokeColor=none;fillColor=none;align=center;verticalAlign=middle;whiteSpace=wrap;rounded=0;" vertex="1" parent="1">
          <mxGeometry x="-310" y="445" width="60" height="30" as="geometry" />
        </mxCell>
        <mxCell id="4jKNq6Q--q4MzQR4nOdX-71" value="Details" style="text;html=1;strokeColor=none;fillColor=none;align=center;verticalAlign=middle;whiteSpace=wrap;rounded=0;" vertex="1" parent="1">
          <mxGeometry x="-290" y="515" width="60" height="30" as="geometry" />
        </mxCell>
        <mxCell id="4jKNq6Q--q4MzQR4nOdX-72" value="Collaborators" style="text;html=1;strokeColor=none;fillColor=none;align=center;verticalAlign=middle;whiteSpace=wrap;rounded=0;" vertex="1" parent="1">
          <mxGeometry x="-180" y="545" width="60" height="30" as="geometry" />
        </mxCell>
        <mxCell id="4jKNq6Q--q4MzQR4nOdX-73" value="" style="endArrow=none;html=1;rounded=0;entryX=0.25;entryY=1;entryDx=0;entryDy=0;exitX=0.75;exitY=1;exitDx=0;exitDy=0;" edge="1" parent="1" source="4jKNq6Q--q4MzQR4nOdX-49" target="4jKNq6Q--q4MzQR4nOdX-49">
          <mxGeometry width="50" height="50" relative="1" as="geometry">
            <mxPoint x="-400" y="-90" as="sourcePoint" />
            <mxPoint x="-350" y="-140" as="targetPoint" />
          </mxGeometry>
        </mxCell>
        <mxCell id="4jKNq6Q--q4MzQR4nOdX-74" value="1" style="text;html=1;strokeColor=none;fillColor=none;align=center;verticalAlign=middle;whiteSpace=wrap;rounded=0;" vertex="1" parent="1">
          <mxGeometry x="-138" y="214" width="60" height="30" as="geometry" />
        </mxCell>
        <mxCell id="4jKNq6Q--q4MzQR4nOdX-75" value="M" style="text;html=1;strokeColor=none;fillColor=none;align=center;verticalAlign=middle;whiteSpace=wrap;rounded=0;" vertex="1" parent="1">
          <mxGeometry x="-137" y="316" width="60" height="30" as="geometry" />
        </mxCell>
        <mxCell id="4jKNq6Q--q4MzQR4nOdX-76" value="M" style="text;html=1;strokeColor=none;fillColor=none;align=center;verticalAlign=middle;whiteSpace=wrap;rounded=0;" vertex="1" parent="1">
          <mxGeometry x="423" y="214" width="60" height="30" as="geometry" />
        </mxCell>
        <mxCell id="4jKNq6Q--q4MzQR4nOdX-77" value="M" style="text;html=1;strokeColor=none;fillColor=none;align=center;verticalAlign=middle;whiteSpace=wrap;rounded=0;" vertex="1" parent="1">
          <mxGeometry x="422" y="314" width="60" height="30" as="geometry" />
        </mxCell>
        <mxCell id="4jKNq6Q--q4MzQR4nOdX-78" value="" style="endArrow=none;html=1;rounded=0;exitX=0.25;exitY=1;exitDx=0;exitDy=0;entryX=0.75;entryY=1;entryDx=0;entryDy=0;" edge="1" parent="1" source="4jKNq6Q--q4MzQR4nOdX-68" target="4jKNq6Q--q4MzQR4nOdX-68">
          <mxGeometry width="50" height="50" relative="1" as="geometry">
            <mxPoint x="-30" y="380" as="sourcePoint" />
            <mxPoint x="20" y="330" as="targetPoint" />
          </mxGeometry>
        </mxCell>
        <mxCell id="eapwSJUX0M6UsKpWvzy_-3" value="" style="ellipse;whiteSpace=wrap;html=1;" vertex="1" parent="1">
          <mxGeometry x="-88" y="521" width="100" height="60" as="geometry" />
        </mxCell>
        <mxCell id="eapwSJUX0M6UsKpWvzy_-4" value="Pending Collaboration Request" style="text;html=1;strokeColor=none;fillColor=none;align=center;verticalAlign=middle;whiteSpace=wrap;rounded=0;" vertex="1" parent="1">
          <mxGeometry x="-68" y="536" width="60" height="30" as="geometry" />
        </mxCell>
        <mxCell id="eapwSJUX0M6UsKpWvzy_-5" value="" style="endArrow=none;html=1;rounded=0;entryX=0.75;entryY=1;entryDx=0;entryDy=0;exitX=0.5;exitY=0;exitDx=0;exitDy=0;" edge="1" parent="1" source="eapwSJUX0M6UsKpWvzy_-3" target="4jKNq6Q--q4MzQR4nOdX-5">
          <mxGeometry width="50" height="50" relative="1" as="geometry">
            <mxPoint x="-101" y="451" as="sourcePoint" />
            <mxPoint x="-51" y="401" as="targetPoint" />
          </mxGeometry>
        </mxCell>
      </root>
    </mxGraphModel>
  </diagram>
  <diagram id="7RNqn2PnH-P4vNoIWWUE" name="USE_CASE_Diagram">
    <mxGraphModel dx="1450" dy="966" grid="0" gridSize="10" guides="1" tooltips="1" connect="1" arrows="1" fold="1" page="0" pageScale="1" pageWidth="850" pageHeight="1100" math="0" shadow="0">
      <root>
        <mxCell id="0" />
        <mxCell id="1" parent="0" />
        <mxCell id="TqBh9BJz7hSqgkw0uNk--1" value="" style="rounded=0;whiteSpace=wrap;html=1;" vertex="1" parent="1">
          <mxGeometry y="-40" width="280" height="520" as="geometry" />
        </mxCell>
        <mxCell id="TqBh9BJz7hSqgkw0uNk--2" value="" style="ellipse;whiteSpace=wrap;html=1;" vertex="1" parent="1">
          <mxGeometry x="90" y="-30" width="100" height="50" as="geometry" />
        </mxCell>
        <mxCell id="TqBh9BJz7hSqgkw0uNk--3" value="" style="ellipse;whiteSpace=wrap;html=1;" vertex="1" parent="1">
          <mxGeometry x="40" y="30" width="100" height="50" as="geometry" />
        </mxCell>
        <mxCell id="TqBh9BJz7hSqgkw0uNk--4" value="" style="ellipse;whiteSpace=wrap;html=1;" vertex="1" parent="1">
          <mxGeometry x="130" y="90" width="100" height="50" as="geometry" />
        </mxCell>
        <mxCell id="TqBh9BJz7hSqgkw0uNk--5" value="" style="ellipse;whiteSpace=wrap;html=1;" vertex="1" parent="1">
          <mxGeometry x="70" y="250" width="100" height="50" as="geometry" />
        </mxCell>
        <mxCell id="TqBh9BJz7hSqgkw0uNk--6" value="" style="ellipse;whiteSpace=wrap;html=1;" vertex="1" parent="1">
          <mxGeometry x="30" y="120" width="100" height="50" as="geometry" />
        </mxCell>
        <mxCell id="TqBh9BJz7hSqgkw0uNk--7" value="" style="ellipse;whiteSpace=wrap;html=1;" vertex="1" parent="1">
          <mxGeometry x="70" y="190" width="100" height="50" as="geometry" />
        </mxCell>
        <mxCell id="TqBh9BJz7hSqgkw0uNk--8" value="" style="ellipse;whiteSpace=wrap;html=1;" vertex="1" parent="1">
          <mxGeometry x="70" y="310" width="100" height="50" as="geometry" />
        </mxCell>
        <mxCell id="TqBh9BJz7hSqgkw0uNk--9" value="" style="ellipse;whiteSpace=wrap;html=1;" vertex="1" parent="1">
          <mxGeometry x="70" y="390" width="100" height="50" as="geometry" />
        </mxCell>
        <mxCell id="TqBh9BJz7hSqgkw0uNk--11" value="User" style="shape=umlActor;verticalLabelPosition=bottom;verticalAlign=top;html=1;outlineConnect=0;" vertex="1" parent="1">
          <mxGeometry x="370" y="140" width="30" height="60" as="geometry" />
        </mxCell>
        <mxCell id="TqBh9BJz7hSqgkw0uNk--12" value="Register" style="text;html=1;strokeColor=none;fillColor=none;align=center;verticalAlign=middle;whiteSpace=wrap;rounded=0;" vertex="1" parent="1">
          <mxGeometry x="110" y="-20" width="60" height="30" as="geometry" />
        </mxCell>
        <mxCell id="TqBh9BJz7hSqgkw0uNk--13" value="Login" style="text;html=1;strokeColor=none;fillColor=none;align=center;verticalAlign=middle;whiteSpace=wrap;rounded=0;" vertex="1" parent="1">
          <mxGeometry x="60" y="40" width="60" height="30" as="geometry" />
        </mxCell>
        <mxCell id="TqBh9BJz7hSqgkw0uNk--14" value="Authenticate" style="text;html=1;strokeColor=none;fillColor=none;align=center;verticalAlign=middle;whiteSpace=wrap;rounded=0;" vertex="1" parent="1">
          <mxGeometry x="150" y="100" width="60" height="30" as="geometry" />
        </mxCell>
        <mxCell id="TqBh9BJz7hSqgkw0uNk--15" value="Forget Password" style="text;html=1;strokeColor=none;fillColor=none;align=center;verticalAlign=middle;whiteSpace=wrap;rounded=0;" vertex="1" parent="1">
          <mxGeometry x="50" y="120" width="60" height="40" as="geometry" />
        </mxCell>
        <mxCell id="TqBh9BJz7hSqgkw0uNk--16" value="List Your Project" style="text;html=1;strokeColor=none;fillColor=none;align=center;verticalAlign=middle;whiteSpace=wrap;rounded=0;" vertex="1" parent="1">
          <mxGeometry x="90" y="200" width="60" height="30" as="geometry" />
        </mxCell>
        <mxCell id="TqBh9BJz7hSqgkw0uNk--17" value="Collaborate" style="text;html=1;strokeColor=none;fillColor=none;align=center;verticalAlign=middle;whiteSpace=wrap;rounded=0;" vertex="1" parent="1">
          <mxGeometry x="90" y="260" width="60" height="30" as="geometry" />
        </mxCell>
        <mxCell id="TqBh9BJz7hSqgkw0uNk--18" value="Discuss" style="text;html=1;strokeColor=none;fillColor=none;align=center;verticalAlign=middle;whiteSpace=wrap;rounded=0;" vertex="1" parent="1">
          <mxGeometry x="90" y="320" width="60" height="30" as="geometry" />
        </mxCell>
        <mxCell id="TqBh9BJz7hSqgkw0uNk--19" value="Comments" style="text;html=1;strokeColor=none;fillColor=none;align=center;verticalAlign=middle;whiteSpace=wrap;rounded=0;" vertex="1" parent="1">
          <mxGeometry x="90" y="400" width="60" height="30" as="geometry" />
        </mxCell>
        <mxCell id="TqBh9BJz7hSqgkw0uNk--20" value="Project Buddy System" style="text;html=1;strokeColor=none;fillColor=none;align=center;verticalAlign=middle;whiteSpace=wrap;rounded=0;" vertex="1" parent="1">
          <mxGeometry x="75" y="450" width="130" height="30" as="geometry" />
        </mxCell>
        <mxCell id="TqBh9BJz7hSqgkw0uNk--22" value="" style="endArrow=classic;html=1;rounded=0;entryX=0;entryY=1;entryDx=0;entryDy=0;exitX=0;exitY=0;exitDx=0;exitDy=0;" edge="1" parent="1" source="TqBh9BJz7hSqgkw0uNk--6" target="TqBh9BJz7hSqgkw0uNk--3">
          <mxGeometry width="50" height="50" relative="1" as="geometry">
            <mxPoint x="20" y="140" as="sourcePoint" />
            <mxPoint x="70" y="90" as="targetPoint" />
          </mxGeometry>
        </mxCell>
        <mxCell id="TqBh9BJz7hSqgkw0uNk--23" value="" style="endArrow=classic;html=1;rounded=0;exitX=1;exitY=1;exitDx=0;exitDy=0;entryX=0.5;entryY=0;entryDx=0;entryDy=0;" edge="1" parent="1" source="TqBh9BJz7hSqgkw0uNk--3" target="TqBh9BJz7hSqgkw0uNk--4">
          <mxGeometry width="50" height="50" relative="1" as="geometry">
            <mxPoint x="160" y="90" as="sourcePoint" />
            <mxPoint x="210" y="40" as="targetPoint" />
          </mxGeometry>
        </mxCell>
        <mxCell id="TqBh9BJz7hSqgkw0uNk--24" value="" style="endArrow=classic;html=1;rounded=0;entryX=0.5;entryY=1;entryDx=0;entryDy=0;exitX=0.5;exitY=0;exitDx=0;exitDy=0;" edge="1" parent="1" source="TqBh9BJz7hSqgkw0uNk--9" target="TqBh9BJz7hSqgkw0uNk--8">
          <mxGeometry width="50" height="50" relative="1" as="geometry">
            <mxPoint x="190" y="420" as="sourcePoint" />
            <mxPoint x="240" y="370" as="targetPoint" />
          </mxGeometry>
        </mxCell>
        <mxCell id="TqBh9BJz7hSqgkw0uNk--25" value="&lt;font style=&quot;font-size: 7px;&quot;&gt;&amp;lt;&amp;lt;extend&amp;gt;&amp;gt;&lt;/font&gt;" style="text;html=1;strokeColor=none;fillColor=none;align=center;verticalAlign=middle;whiteSpace=wrap;rounded=0;fontSize=10;" vertex="1" parent="1">
          <mxGeometry x="-3" y="87" width="60" height="30" as="geometry" />
        </mxCell>
        <mxCell id="TqBh9BJz7hSqgkw0uNk--26" value="&lt;font style=&quot;font-size: 8px;&quot;&gt;&amp;lt;&amp;lt;include&amp;gt;&amp;gt;&lt;/font&gt;" style="text;html=1;strokeColor=none;fillColor=none;align=center;verticalAlign=middle;whiteSpace=wrap;rounded=0;" vertex="1" parent="1">
          <mxGeometry x="142" y="58" width="60" height="30" as="geometry" />
        </mxCell>
        <mxCell id="TqBh9BJz7hSqgkw0uNk--27" value="&amp;lt;&amp;lt;extend&amp;gt;&amp;gt;" style="text;html=1;strokeColor=none;fillColor=none;align=center;verticalAlign=middle;whiteSpace=wrap;rounded=0;" vertex="1" parent="1">
          <mxGeometry x="140" y="360" width="60" height="30" as="geometry" />
        </mxCell>
        <mxCell id="TqBh9BJz7hSqgkw0uNk--28" value="" style="endArrow=none;html=1;rounded=0;exitX=1;exitY=0.5;exitDx=0;exitDy=0;entryX=0.25;entryY=0.1;entryDx=0;entryDy=0;entryPerimeter=0;" edge="1" parent="1" source="TqBh9BJz7hSqgkw0uNk--2" target="TqBh9BJz7hSqgkw0uNk--11">
          <mxGeometry width="50" height="50" relative="1" as="geometry">
            <mxPoint x="370" y="50" as="sourcePoint" />
            <mxPoint x="420" as="targetPoint" />
          </mxGeometry>
        </mxCell>
        <mxCell id="TqBh9BJz7hSqgkw0uNk--29" value="" style="endArrow=none;html=1;rounded=0;exitX=1;exitY=0;exitDx=0;exitDy=0;entryX=0.25;entryY=0.1;entryDx=0;entryDy=0;entryPerimeter=0;" edge="1" parent="1" source="TqBh9BJz7hSqgkw0uNk--3" target="TqBh9BJz7hSqgkw0uNk--11">
          <mxGeometry width="50" height="50" relative="1" as="geometry">
            <mxPoint x="380" y="60" as="sourcePoint" />
            <mxPoint x="430" y="10" as="targetPoint" />
          </mxGeometry>
        </mxCell>
        <mxCell id="TqBh9BJz7hSqgkw0uNk--31" value="" style="endArrow=none;html=1;rounded=0;exitX=1;exitY=0;exitDx=0;exitDy=0;entryX=0.25;entryY=0.1;entryDx=0;entryDy=0;entryPerimeter=0;" edge="1" parent="1" source="TqBh9BJz7hSqgkw0uNk--7" target="TqBh9BJz7hSqgkw0uNk--11">
          <mxGeometry width="50" height="50" relative="1" as="geometry">
            <mxPoint x="340" y="320" as="sourcePoint" />
            <mxPoint x="390" y="270" as="targetPoint" />
          </mxGeometry>
        </mxCell>
        <mxCell id="TqBh9BJz7hSqgkw0uNk--32" value="" style="endArrow=none;html=1;rounded=0;exitX=1;exitY=0;exitDx=0;exitDy=0;entryX=0.25;entryY=0.1;entryDx=0;entryDy=0;entryPerimeter=0;" edge="1" parent="1" source="TqBh9BJz7hSqgkw0uNk--5" target="TqBh9BJz7hSqgkw0uNk--11">
          <mxGeometry width="50" height="50" relative="1" as="geometry">
            <mxPoint x="330" y="330" as="sourcePoint" />
            <mxPoint x="380" y="280" as="targetPoint" />
          </mxGeometry>
        </mxCell>
        <mxCell id="TqBh9BJz7hSqgkw0uNk--33" value="" style="endArrow=none;html=1;rounded=0;exitX=1;exitY=0;exitDx=0;exitDy=0;entryX=0.25;entryY=0.1;entryDx=0;entryDy=0;entryPerimeter=0;" edge="1" parent="1" source="TqBh9BJz7hSqgkw0uNk--8" target="TqBh9BJz7hSqgkw0uNk--11">
          <mxGeometry width="50" height="50" relative="1" as="geometry">
            <mxPoint x="350" y="330" as="sourcePoint" />
            <mxPoint x="400" y="280" as="targetPoint" />
          </mxGeometry>
        </mxCell>
      </root>
    </mxGraphModel>
  </diagram>
  <diagram id="WC_346cqw46KYz12jNG8" name="Sequence Diagram">
    <mxGraphModel dx="1275" dy="872" grid="0" gridSize="10" guides="1" tooltips="1" connect="1" arrows="1" fold="1" page="0" pageScale="1" pageWidth="850" pageHeight="1100" math="0" shadow="0">
      <root>
        <mxCell id="0" />
        <mxCell id="1" parent="0" />
        <mxCell id="xxnQwtqcnDcDq5wnZST3-5" value="" style="rounded=0;whiteSpace=wrap;html=1;rotation=90;" vertex="1" parent="1">
          <mxGeometry x="460" y="2840" width="75.16" height="21.75" as="geometry" />
        </mxCell>
        <mxCell id="BwyU6I4A-7bW7PIGsTzX-27" value="" style="rounded=0;whiteSpace=wrap;html=1;rotation=90;" vertex="1" parent="1">
          <mxGeometry x="-270.87" y="251.63" width="345" height="21.75" as="geometry" />
        </mxCell>
        <mxCell id="BwyU6I4A-7bW7PIGsTzX-1" value="Register:" style="text;html=1;strokeColor=none;fillColor=none;align=center;verticalAlign=middle;whiteSpace=wrap;rounded=0;" vertex="1" parent="1">
          <mxGeometry x="-290" y="-130" width="60" height="30" as="geometry" />
        </mxCell>
        <mxCell id="BwyU6I4A-7bW7PIGsTzX-2" value="" style="rounded=0;whiteSpace=wrap;html=1;" vertex="1" parent="1">
          <mxGeometry x="-160" width="120" height="60" as="geometry" />
        </mxCell>
        <mxCell id="BwyU6I4A-7bW7PIGsTzX-3" value="" style="rounded=0;whiteSpace=wrap;html=1;" vertex="1" parent="1">
          <mxGeometry x="120" width="120" height="60" as="geometry" />
        </mxCell>
        <mxCell id="BwyU6I4A-7bW7PIGsTzX-4" value="" style="rounded=0;whiteSpace=wrap;html=1;" vertex="1" parent="1">
          <mxGeometry x="400" width="120" height="60" as="geometry" />
        </mxCell>
        <mxCell id="BwyU6I4A-7bW7PIGsTzX-8" value="" style="endArrow=classic;html=1;rounded=0;" edge="1" parent="1" source="BwyU6I4A-7bW7PIGsTzX-30">
          <mxGeometry width="50" height="50" relative="1" as="geometry">
            <mxPoint x="-100" y="120" as="sourcePoint" />
            <mxPoint x="180" y="120" as="targetPoint" />
          </mxGeometry>
        </mxCell>
        <mxCell id="BwyU6I4A-7bW7PIGsTzX-17" value="Email" style="text;html=1;strokeColor=none;fillColor=none;align=center;verticalAlign=middle;whiteSpace=wrap;rounded=0;" vertex="1" parent="1">
          <mxGeometry x="10" y="85" width="60" height="30" as="geometry" />
        </mxCell>
        <mxCell id="BwyU6I4A-7bW7PIGsTzX-20" value="Check account exists" style="text;html=1;strokeColor=none;fillColor=none;align=center;verticalAlign=middle;whiteSpace=wrap;rounded=0;" vertex="1" parent="1">
          <mxGeometry x="290" y="123" width="60" height="30" as="geometry" />
        </mxCell>
        <mxCell id="BwyU6I4A-7bW7PIGsTzX-21" value="Exist/does not exist" style="text;html=1;strokeColor=none;fillColor=none;align=center;verticalAlign=middle;whiteSpace=wrap;rounded=0;" vertex="1" parent="1">
          <mxGeometry x="290" y="165" width="60" height="30" as="geometry" />
        </mxCell>
        <mxCell id="BwyU6I4A-7bW7PIGsTzX-22" value="Create User" style="text;html=1;strokeColor=none;fillColor=none;align=center;verticalAlign=middle;whiteSpace=wrap;rounded=0;" vertex="1" parent="1">
          <mxGeometry x="290" y="325" width="60" height="30" as="geometry" />
        </mxCell>
        <mxCell id="BwyU6I4A-7bW7PIGsTzX-23" value="Enter Details" style="text;html=1;strokeColor=none;fillColor=none;align=center;verticalAlign=middle;whiteSpace=wrap;rounded=0;" vertex="1" parent="1">
          <mxGeometry x="10" y="205" width="60" height="30" as="geometry" />
        </mxCell>
        <mxCell id="BwyU6I4A-7bW7PIGsTzX-24" value="Details" style="text;html=1;strokeColor=none;fillColor=none;align=center;verticalAlign=middle;whiteSpace=wrap;rounded=0;" vertex="1" parent="1">
          <mxGeometry x="10" y="285" width="60" height="30" as="geometry" />
        </mxCell>
        <mxCell id="BwyU6I4A-7bW7PIGsTzX-25" value="Registered Successfully" style="text;html=1;strokeColor=none;fillColor=none;align=center;verticalAlign=middle;whiteSpace=wrap;rounded=0;" vertex="1" parent="1">
          <mxGeometry x="290" y="405" width="60" height="30" as="geometry" />
        </mxCell>
        <mxCell id="BwyU6I4A-7bW7PIGsTzX-26" value="Registered Successfully" style="text;html=1;strokeColor=none;fillColor=none;align=center;verticalAlign=middle;whiteSpace=wrap;rounded=0;" vertex="1" parent="1">
          <mxGeometry y="375" width="60" height="30" as="geometry" />
        </mxCell>
        <mxCell id="BwyU6I4A-7bW7PIGsTzX-30" value="" style="rounded=0;whiteSpace=wrap;html=1;rotation=90;" vertex="1" parent="1">
          <mxGeometry x="5" y="250" width="345" height="21.75" as="geometry" />
        </mxCell>
        <mxCell id="BwyU6I4A-7bW7PIGsTzX-31" value="" style="endArrow=classic;html=1;rounded=0;" edge="1" parent="1">
          <mxGeometry width="50" height="50" relative="1" as="geometry">
            <mxPoint x="-100" y="120" as="sourcePoint" />
            <mxPoint x="182" y="120" as="targetPoint" />
          </mxGeometry>
        </mxCell>
        <mxCell id="BwyU6I4A-7bW7PIGsTzX-11" value="" style="endArrow=classic;html=1;rounded=0;" edge="1" parent="1">
          <mxGeometry width="50" height="50" relative="1" as="geometry">
            <mxPoint x="180" y="240" as="sourcePoint" />
            <mxPoint x="-100" y="240" as="targetPoint" />
          </mxGeometry>
        </mxCell>
        <mxCell id="BwyU6I4A-7bW7PIGsTzX-12" value="" style="endArrow=classic;html=1;rounded=0;" edge="1" parent="1">
          <mxGeometry width="50" height="50" relative="1" as="geometry">
            <mxPoint x="-100" y="320" as="sourcePoint" />
            <mxPoint x="180" y="320" as="targetPoint" />
          </mxGeometry>
        </mxCell>
        <mxCell id="BwyU6I4A-7bW7PIGsTzX-15" value="" style="endArrow=classic;html=1;rounded=0;" edge="1" parent="1">
          <mxGeometry width="50" height="50" relative="1" as="geometry">
            <mxPoint x="180" y="410" as="sourcePoint" />
            <mxPoint x="-100" y="410" as="targetPoint" />
          </mxGeometry>
        </mxCell>
        <mxCell id="BwyU6I4A-7bW7PIGsTzX-9" value="" style="endArrow=classic;html=1;rounded=0;" edge="1" parent="1" source="BwyU6I4A-7bW7PIGsTzX-29">
          <mxGeometry width="50" height="50" relative="1" as="geometry">
            <mxPoint x="180" y="160" as="sourcePoint" />
            <mxPoint x="460" y="160" as="targetPoint" />
          </mxGeometry>
        </mxCell>
        <mxCell id="BwyU6I4A-7bW7PIGsTzX-29" value="" style="rounded=0;whiteSpace=wrap;html=1;rotation=90;" vertex="1" parent="1">
          <mxGeometry x="399.38" y="165.26" width="121.25" height="21.75" as="geometry" />
        </mxCell>
        <mxCell id="BwyU6I4A-7bW7PIGsTzX-32" value="" style="endArrow=classic;html=1;rounded=0;" edge="1" parent="1">
          <mxGeometry width="50" height="50" relative="1" as="geometry">
            <mxPoint x="180" y="160" as="sourcePoint" />
            <mxPoint x="460" y="160" as="targetPoint" />
          </mxGeometry>
        </mxCell>
        <mxCell id="BwyU6I4A-7bW7PIGsTzX-10" value="" style="endArrow=classic;html=1;rounded=0;" edge="1" parent="1">
          <mxGeometry width="50" height="50" relative="1" as="geometry">
            <mxPoint x="460" y="200" as="sourcePoint" />
            <mxPoint x="180" y="200" as="targetPoint" />
          </mxGeometry>
        </mxCell>
        <mxCell id="BwyU6I4A-7bW7PIGsTzX-33" value="" style="rounded=0;whiteSpace=wrap;html=1;rotation=90;" vertex="1" parent="1">
          <mxGeometry x="398.75" y="355" width="121.25" height="21.75" as="geometry" />
        </mxCell>
        <mxCell id="BwyU6I4A-7bW7PIGsTzX-13" value="" style="endArrow=classic;html=1;rounded=0;" edge="1" parent="1">
          <mxGeometry width="50" height="50" relative="1" as="geometry">
            <mxPoint x="180" y="360" as="sourcePoint" />
            <mxPoint x="460" y="360" as="targetPoint" />
          </mxGeometry>
        </mxCell>
        <mxCell id="BwyU6I4A-7bW7PIGsTzX-14" value="" style="endArrow=classic;html=1;rounded=0;" edge="1" parent="1">
          <mxGeometry width="50" height="50" relative="1" as="geometry">
            <mxPoint x="460" y="400" as="sourcePoint" />
            <mxPoint x="180" y="400" as="targetPoint" />
          </mxGeometry>
        </mxCell>
        <mxCell id="BwyU6I4A-7bW7PIGsTzX-35" value="" style="endArrow=none;dashed=1;html=1;rounded=0;entryX=0.5;entryY=1;entryDx=0;entryDy=0;" edge="1" parent="1" target="BwyU6I4A-7bW7PIGsTzX-2">
          <mxGeometry width="50" height="50" relative="1" as="geometry">
            <mxPoint x="-100" y="460" as="sourcePoint" />
            <mxPoint x="200" y="190" as="targetPoint" />
          </mxGeometry>
        </mxCell>
        <mxCell id="BwyU6I4A-7bW7PIGsTzX-36" value="" style="endArrow=none;dashed=1;html=1;rounded=0;entryX=0.5;entryY=1;entryDx=0;entryDy=0;" edge="1" parent="1" target="BwyU6I4A-7bW7PIGsTzX-3">
          <mxGeometry width="50" height="50" relative="1" as="geometry">
            <mxPoint x="180" y="440" as="sourcePoint" />
            <mxPoint x="-90" y="70" as="targetPoint" />
          </mxGeometry>
        </mxCell>
        <mxCell id="BwyU6I4A-7bW7PIGsTzX-37" value="" style="endArrow=none;dashed=1;html=1;rounded=0;entryX=0.5;entryY=1;entryDx=0;entryDy=0;" edge="1" parent="1" target="BwyU6I4A-7bW7PIGsTzX-4">
          <mxGeometry width="50" height="50" relative="1" as="geometry">
            <mxPoint x="460" y="440" as="sourcePoint" />
            <mxPoint x="-80" y="80" as="targetPoint" />
          </mxGeometry>
        </mxCell>
        <mxCell id="BwyU6I4A-7bW7PIGsTzX-39" value="Register" style="text;html=1;strokeColor=none;fillColor=none;align=center;verticalAlign=middle;whiteSpace=wrap;rounded=0;" vertex="1" parent="1">
          <mxGeometry x="-122" y="4" width="43" height="19" as="geometry" />
        </mxCell>
        <mxCell id="BwyU6I4A-7bW7PIGsTzX-40" value="Boundary" style="text;html=1;strokeColor=none;fillColor=none;align=center;verticalAlign=middle;whiteSpace=wrap;rounded=0;" vertex="1" parent="1">
          <mxGeometry x="-130" y="27" width="60" height="30" as="geometry" />
        </mxCell>
        <mxCell id="BwyU6I4A-7bW7PIGsTzX-43" value="Check" style="text;html=1;strokeColor=none;fillColor=none;align=center;verticalAlign=middle;whiteSpace=wrap;rounded=0;" vertex="1" parent="1">
          <mxGeometry x="158" y="4" width="44" height="20" as="geometry" />
        </mxCell>
        <mxCell id="BwyU6I4A-7bW7PIGsTzX-44" value="Already" style="text;html=1;strokeColor=none;fillColor=none;align=center;verticalAlign=middle;whiteSpace=wrap;rounded=0;" vertex="1" parent="1">
          <mxGeometry x="150" y="15" width="60" height="30" as="geometry" />
        </mxCell>
        <mxCell id="BwyU6I4A-7bW7PIGsTzX-47" value="Exists" style="text;html=1;strokeColor=none;fillColor=none;align=center;verticalAlign=middle;whiteSpace=wrap;rounded=0;" vertex="1" parent="1">
          <mxGeometry x="147" y="32" width="60" height="30" as="geometry" />
        </mxCell>
        <mxCell id="BwyU6I4A-7bW7PIGsTzX-49" value="User" style="text;html=1;strokeColor=none;fillColor=none;align=center;verticalAlign=middle;whiteSpace=wrap;rounded=0;" vertex="1" parent="1">
          <mxGeometry x="430" width="60" height="30" as="geometry" />
        </mxCell>
        <mxCell id="BwyU6I4A-7bW7PIGsTzX-51" value="Details" style="text;html=1;strokeColor=none;fillColor=none;align=center;verticalAlign=middle;whiteSpace=wrap;rounded=0;" vertex="1" parent="1">
          <mxGeometry x="429" y="21" width="60" height="30" as="geometry" />
        </mxCell>
        <mxCell id="BwyU6I4A-7bW7PIGsTzX-53" value="Login" style="text;html=1;strokeColor=none;fillColor=none;align=center;verticalAlign=middle;whiteSpace=wrap;rounded=0;" vertex="1" parent="1">
          <mxGeometry x="-331" y="650" width="60" height="30" as="geometry" />
        </mxCell>
        <mxCell id="BwyU6I4A-7bW7PIGsTzX-54" value="" style="rounded=0;whiteSpace=wrap;html=1;rotation=90;" vertex="1" parent="1">
          <mxGeometry x="-260.87" y="981.63" width="345" height="21.75" as="geometry" />
        </mxCell>
        <mxCell id="BwyU6I4A-7bW7PIGsTzX-55" value="" style="rounded=0;whiteSpace=wrap;html=1;" vertex="1" parent="1">
          <mxGeometry x="-150" y="730" width="120" height="60" as="geometry" />
        </mxCell>
        <mxCell id="BwyU6I4A-7bW7PIGsTzX-56" value="" style="rounded=0;whiteSpace=wrap;html=1;" vertex="1" parent="1">
          <mxGeometry x="130" y="730" width="120" height="60" as="geometry" />
        </mxCell>
        <mxCell id="BwyU6I4A-7bW7PIGsTzX-57" value="" style="rounded=0;whiteSpace=wrap;html=1;" vertex="1" parent="1">
          <mxGeometry x="410" y="730" width="120" height="60" as="geometry" />
        </mxCell>
        <mxCell id="BwyU6I4A-7bW7PIGsTzX-58" value="" style="endArrow=classic;html=1;rounded=0;" edge="1" parent="1" source="BwyU6I4A-7bW7PIGsTzX-67">
          <mxGeometry width="50" height="50" relative="1" as="geometry">
            <mxPoint x="-90" y="850" as="sourcePoint" />
            <mxPoint x="190" y="850" as="targetPoint" />
          </mxGeometry>
        </mxCell>
        <mxCell id="BwyU6I4A-7bW7PIGsTzX-59" value="Email" style="text;html=1;strokeColor=none;fillColor=none;align=center;verticalAlign=middle;whiteSpace=wrap;rounded=0;" vertex="1" parent="1">
          <mxGeometry x="20" y="815" width="60" height="30" as="geometry" />
        </mxCell>
        <mxCell id="BwyU6I4A-7bW7PIGsTzX-60" value="Check account exists" style="text;html=1;strokeColor=none;fillColor=none;align=center;verticalAlign=middle;whiteSpace=wrap;rounded=0;" vertex="1" parent="1">
          <mxGeometry x="300" y="853" width="60" height="30" as="geometry" />
        </mxCell>
        <mxCell id="BwyU6I4A-7bW7PIGsTzX-61" value="[Invalid Email]" style="text;html=1;strokeColor=none;fillColor=none;align=center;verticalAlign=middle;whiteSpace=wrap;rounded=0;" vertex="1" parent="1">
          <mxGeometry x="10" y="923" width="80" height="30" as="geometry" />
        </mxCell>
        <mxCell id="BwyU6I4A-7bW7PIGsTzX-62" value="Check Password" style="text;html=1;strokeColor=none;fillColor=none;align=center;verticalAlign=middle;whiteSpace=wrap;rounded=0;" vertex="1" parent="1">
          <mxGeometry x="300" y="960" width="60" height="30" as="geometry" />
        </mxCell>
        <mxCell id="BwyU6I4A-7bW7PIGsTzX-65" value="[Invalid]" style="text;html=1;strokeColor=none;fillColor=none;align=center;verticalAlign=middle;whiteSpace=wrap;rounded=0;" vertex="1" parent="1">
          <mxGeometry x="10" y="1011.38" width="60" height="30" as="geometry" />
        </mxCell>
        <mxCell id="BwyU6I4A-7bW7PIGsTzX-66" value="Incorrect Password" style="text;html=1;strokeColor=none;fillColor=none;align=center;verticalAlign=middle;whiteSpace=wrap;rounded=0;" vertex="1" parent="1">
          <mxGeometry x="10" y="1044" width="60" height="30" as="geometry" />
        </mxCell>
        <mxCell id="BwyU6I4A-7bW7PIGsTzX-67" value="" style="rounded=0;whiteSpace=wrap;html=1;rotation=90;" vertex="1" parent="1">
          <mxGeometry x="15" y="980" width="345" height="21.75" as="geometry" />
        </mxCell>
        <mxCell id="BwyU6I4A-7bW7PIGsTzX-68" value="" style="endArrow=classic;html=1;rounded=0;" edge="1" parent="1">
          <mxGeometry width="50" height="50" relative="1" as="geometry">
            <mxPoint x="-90" y="850" as="sourcePoint" />
            <mxPoint x="192" y="850" as="targetPoint" />
          </mxGeometry>
        </mxCell>
        <mxCell id="BwyU6I4A-7bW7PIGsTzX-71" value="" style="endArrow=classic;html=1;rounded=0;" edge="1" parent="1">
          <mxGeometry width="50" height="50" relative="1" as="geometry">
            <mxPoint x="190" y="1140" as="sourcePoint" />
            <mxPoint x="-90" y="1140" as="targetPoint" />
          </mxGeometry>
        </mxCell>
        <mxCell id="BwyU6I4A-7bW7PIGsTzX-72" value="" style="endArrow=classic;html=1;rounded=0;" edge="1" parent="1" source="BwyU6I4A-7bW7PIGsTzX-73">
          <mxGeometry width="50" height="50" relative="1" as="geometry">
            <mxPoint x="190" y="890" as="sourcePoint" />
            <mxPoint x="470" y="890" as="targetPoint" />
          </mxGeometry>
        </mxCell>
        <mxCell id="BwyU6I4A-7bW7PIGsTzX-73" value="" style="rounded=0;whiteSpace=wrap;html=1;rotation=90;" vertex="1" parent="1">
          <mxGeometry x="444.85" y="890.1" width="50.32" height="21.75" as="geometry" />
        </mxCell>
        <mxCell id="BwyU6I4A-7bW7PIGsTzX-74" value="" style="endArrow=classic;html=1;rounded=0;" edge="1" parent="1">
          <mxGeometry width="50" height="50" relative="1" as="geometry">
            <mxPoint x="190" y="900" as="sourcePoint" />
            <mxPoint x="470" y="900" as="targetPoint" />
          </mxGeometry>
        </mxCell>
        <mxCell id="BwyU6I4A-7bW7PIGsTzX-75" value="" style="endArrow=classic;html=1;rounded=0;" edge="1" parent="1">
          <mxGeometry width="50" height="50" relative="1" as="geometry">
            <mxPoint x="190" y="950" as="sourcePoint" />
            <mxPoint x="-90" y="950" as="targetPoint" />
          </mxGeometry>
        </mxCell>
        <mxCell id="BwyU6I4A-7bW7PIGsTzX-76" value="" style="rounded=0;whiteSpace=wrap;html=1;rotation=90;" vertex="1" parent="1">
          <mxGeometry x="448.13" y="981.88" width="45" height="21.75" as="geometry" />
        </mxCell>
        <mxCell id="BwyU6I4A-7bW7PIGsTzX-77" value="" style="endArrow=classic;html=1;rounded=0;" edge="1" parent="1">
          <mxGeometry width="50" height="50" relative="1" as="geometry">
            <mxPoint x="190" y="992.01" as="sourcePoint" />
            <mxPoint x="470" y="992.01" as="targetPoint" />
          </mxGeometry>
        </mxCell>
        <mxCell id="BwyU6I4A-7bW7PIGsTzX-78" value="" style="endArrow=classic;html=1;rounded=0;" edge="1" parent="1">
          <mxGeometry width="50" height="50" relative="1" as="geometry">
            <mxPoint x="190" y="1040" as="sourcePoint" />
            <mxPoint x="-90" y="1040" as="targetPoint" />
          </mxGeometry>
        </mxCell>
        <mxCell id="BwyU6I4A-7bW7PIGsTzX-79" value="" style="endArrow=none;dashed=1;html=1;rounded=0;entryX=0.5;entryY=1;entryDx=0;entryDy=0;" edge="1" parent="1" target="BwyU6I4A-7bW7PIGsTzX-55">
          <mxGeometry width="50" height="50" relative="1" as="geometry">
            <mxPoint x="-90" y="1190" as="sourcePoint" />
            <mxPoint x="210" y="920" as="targetPoint" />
          </mxGeometry>
        </mxCell>
        <mxCell id="BwyU6I4A-7bW7PIGsTzX-80" value="" style="endArrow=none;dashed=1;html=1;rounded=0;entryX=0.5;entryY=1;entryDx=0;entryDy=0;" edge="1" parent="1" target="BwyU6I4A-7bW7PIGsTzX-56">
          <mxGeometry width="50" height="50" relative="1" as="geometry">
            <mxPoint x="190" y="1170" as="sourcePoint" />
            <mxPoint x="-80" y="800" as="targetPoint" />
          </mxGeometry>
        </mxCell>
        <mxCell id="BwyU6I4A-7bW7PIGsTzX-81" value="" style="endArrow=none;dashed=1;html=1;rounded=0;entryX=0.5;entryY=1;entryDx=0;entryDy=0;" edge="1" parent="1" target="BwyU6I4A-7bW7PIGsTzX-57">
          <mxGeometry width="50" height="50" relative="1" as="geometry">
            <mxPoint x="470" y="1170" as="sourcePoint" />
            <mxPoint x="-70" y="810" as="targetPoint" />
          </mxGeometry>
        </mxCell>
        <mxCell id="BwyU6I4A-7bW7PIGsTzX-82" value="Login" style="text;html=1;strokeColor=none;fillColor=none;align=center;verticalAlign=middle;whiteSpace=wrap;rounded=0;" vertex="1" parent="1">
          <mxGeometry x="-112" y="734" width="44" height="20" as="geometry" />
        </mxCell>
        <mxCell id="BwyU6I4A-7bW7PIGsTzX-83" value="Boundary" style="text;html=1;strokeColor=none;fillColor=none;align=center;verticalAlign=middle;whiteSpace=wrap;rounded=0;" vertex="1" parent="1">
          <mxGeometry x="-120" y="757" width="60" height="30" as="geometry" />
        </mxCell>
        <mxCell id="BwyU6I4A-7bW7PIGsTzX-86" value="Verification" style="text;html=1;strokeColor=none;fillColor=none;align=center;verticalAlign=middle;whiteSpace=wrap;rounded=0;" vertex="1" parent="1">
          <mxGeometry x="168" y="749" width="44" height="20" as="geometry" />
        </mxCell>
        <mxCell id="BwyU6I4A-7bW7PIGsTzX-92" value="User" style="text;html=1;strokeColor=none;fillColor=none;align=center;verticalAlign=middle;whiteSpace=wrap;rounded=0;" vertex="1" parent="1">
          <mxGeometry x="440" y="730" width="60" height="30" as="geometry" />
        </mxCell>
        <mxCell id="BwyU6I4A-7bW7PIGsTzX-94" value="Details" style="text;html=1;strokeColor=none;fillColor=none;align=center;verticalAlign=middle;whiteSpace=wrap;rounded=0;" vertex="1" parent="1">
          <mxGeometry x="442" y="756" width="57" height="25" as="geometry" />
        </mxCell>
        <mxCell id="BwyU6I4A-7bW7PIGsTzX-96" value="" style="endArrow=classic;html=1;rounded=0;" edge="1" parent="1">
          <mxGeometry width="50" height="50" relative="1" as="geometry">
            <mxPoint x="-90" y="890" as="sourcePoint" />
            <mxPoint x="190" y="890" as="targetPoint" />
          </mxGeometry>
        </mxCell>
        <mxCell id="BwyU6I4A-7bW7PIGsTzX-97" value="Password" style="text;html=1;strokeColor=none;fillColor=none;align=center;verticalAlign=middle;whiteSpace=wrap;rounded=0;" vertex="1" parent="1">
          <mxGeometry x="19" y="865" width="60" height="30" as="geometry" />
        </mxCell>
        <mxCell id="BwyU6I4A-7bW7PIGsTzX-99" value="Account Does Not Exist" style="text;html=1;strokeColor=none;fillColor=none;align=center;verticalAlign=middle;whiteSpace=wrap;rounded=0;" vertex="1" parent="1">
          <mxGeometry x="-19" y="951" width="136" height="30" as="geometry" />
        </mxCell>
        <mxCell id="BwyU6I4A-7bW7PIGsTzX-100" value="[Valid]" style="text;html=1;strokeColor=none;fillColor=none;align=center;verticalAlign=middle;whiteSpace=wrap;rounded=0;" vertex="1" parent="1">
          <mxGeometry x="10" y="1110" width="60" height="30" as="geometry" />
        </mxCell>
        <mxCell id="BwyU6I4A-7bW7PIGsTzX-101" value="Show Dashboard" style="text;html=1;strokeColor=none;fillColor=none;align=center;verticalAlign=middle;whiteSpace=wrap;rounded=0;" vertex="1" parent="1">
          <mxGeometry x="-5" y="1138" width="95" height="30" as="geometry" />
        </mxCell>
        <mxCell id="BwyU6I4A-7bW7PIGsTzX-103" value="List Your Project" style="text;html=1;strokeColor=none;fillColor=none;align=center;verticalAlign=middle;whiteSpace=wrap;rounded=0;" vertex="1" parent="1">
          <mxGeometry x="-220" y="1210" width="60" height="30" as="geometry" />
        </mxCell>
        <mxCell id="BwyU6I4A-7bW7PIGsTzX-104" value="" style="rounded=0;whiteSpace=wrap;html=1;rotation=90;" vertex="1" parent="1">
          <mxGeometry x="-250.87" y="1561.63" width="345" height="21.75" as="geometry" />
        </mxCell>
        <mxCell id="BwyU6I4A-7bW7PIGsTzX-105" value="" style="rounded=0;whiteSpace=wrap;html=1;" vertex="1" parent="1">
          <mxGeometry x="-140" y="1310" width="120" height="60" as="geometry" />
        </mxCell>
        <mxCell id="BwyU6I4A-7bW7PIGsTzX-106" value="" style="rounded=0;whiteSpace=wrap;html=1;" vertex="1" parent="1">
          <mxGeometry x="140" y="1310" width="120" height="60" as="geometry" />
        </mxCell>
        <mxCell id="BwyU6I4A-7bW7PIGsTzX-107" value="" style="rounded=0;whiteSpace=wrap;html=1;" vertex="1" parent="1">
          <mxGeometry x="420" y="1310" width="120" height="60" as="geometry" />
        </mxCell>
        <mxCell id="BwyU6I4A-7bW7PIGsTzX-108" value="" style="endArrow=classic;html=1;rounded=0;" edge="1" parent="1" source="BwyU6I4A-7bW7PIGsTzX-115">
          <mxGeometry width="50" height="50" relative="1" as="geometry">
            <mxPoint x="-80" y="1430" as="sourcePoint" />
            <mxPoint x="200" y="1430" as="targetPoint" />
          </mxGeometry>
        </mxCell>
        <mxCell id="BwyU6I4A-7bW7PIGsTzX-109" value="Create Project" style="text;html=1;strokeColor=none;fillColor=none;align=center;verticalAlign=middle;whiteSpace=wrap;rounded=0;" vertex="1" parent="1">
          <mxGeometry x="30" y="1395" width="60" height="30" as="geometry" />
        </mxCell>
        <mxCell id="BwyU6I4A-7bW7PIGsTzX-112" value="Create Project Record" style="text;html=1;strokeColor=none;fillColor=none;align=center;verticalAlign=middle;whiteSpace=wrap;rounded=0;" vertex="1" parent="1">
          <mxGeometry x="280" y="1540" width="140" height="30" as="geometry" />
        </mxCell>
        <mxCell id="BwyU6I4A-7bW7PIGsTzX-114" value="Acknowledgement Message" style="text;html=1;strokeColor=none;fillColor=none;align=center;verticalAlign=middle;whiteSpace=wrap;rounded=0;" vertex="1" parent="1">
          <mxGeometry x="250" y="1630" width="160" height="30" as="geometry" />
        </mxCell>
        <mxCell id="BwyU6I4A-7bW7PIGsTzX-115" value="" style="rounded=0;whiteSpace=wrap;html=1;rotation=90;" vertex="1" parent="1">
          <mxGeometry x="25" y="1560" width="345" height="21.75" as="geometry" />
        </mxCell>
        <mxCell id="BwyU6I4A-7bW7PIGsTzX-116" value="" style="endArrow=classic;html=1;rounded=0;" edge="1" parent="1">
          <mxGeometry width="50" height="50" relative="1" as="geometry">
            <mxPoint x="-80" y="1430" as="sourcePoint" />
            <mxPoint x="202" y="1430" as="targetPoint" />
          </mxGeometry>
        </mxCell>
        <mxCell id="BwyU6I4A-7bW7PIGsTzX-117" value="" style="endArrow=classic;html=1;rounded=0;" edge="1" parent="1">
          <mxGeometry width="50" height="50" relative="1" as="geometry">
            <mxPoint x="200" y="1720" as="sourcePoint" />
            <mxPoint x="-80" y="1720" as="targetPoint" />
          </mxGeometry>
        </mxCell>
        <mxCell id="BwyU6I4A-7bW7PIGsTzX-120" value="" style="endArrow=classic;html=1;rounded=0;" edge="1" parent="1">
          <mxGeometry width="50" height="50" relative="1" as="geometry">
            <mxPoint x="200" y="1460" as="sourcePoint" />
            <mxPoint x="200" y="1480" as="targetPoint" />
            <Array as="points">
              <mxPoint x="260" y="1460" />
              <mxPoint x="260" y="1480" />
            </Array>
          </mxGeometry>
        </mxCell>
        <mxCell id="BwyU6I4A-7bW7PIGsTzX-122" value="" style="rounded=0;whiteSpace=wrap;html=1;rotation=90;" vertex="1" parent="1">
          <mxGeometry x="429.69" y="1590.32" width="101.87" height="21.75" as="geometry" />
        </mxCell>
        <mxCell id="BwyU6I4A-7bW7PIGsTzX-123" value="" style="endArrow=classic;html=1;rounded=0;" edge="1" parent="1">
          <mxGeometry width="50" height="50" relative="1" as="geometry">
            <mxPoint x="200" y="1572.01" as="sourcePoint" />
            <mxPoint x="480" y="1572.01" as="targetPoint" />
          </mxGeometry>
        </mxCell>
        <mxCell id="BwyU6I4A-7bW7PIGsTzX-124" value="" style="endArrow=classic;html=1;rounded=0;" edge="1" parent="1">
          <mxGeometry width="50" height="50" relative="1" as="geometry">
            <mxPoint x="480" y="1624" as="sourcePoint" />
            <mxPoint x="200" y="1624" as="targetPoint" />
          </mxGeometry>
        </mxCell>
        <mxCell id="BwyU6I4A-7bW7PIGsTzX-125" value="" style="endArrow=none;dashed=1;html=1;rounded=0;entryX=0.5;entryY=1;entryDx=0;entryDy=0;" edge="1" parent="1" target="BwyU6I4A-7bW7PIGsTzX-105">
          <mxGeometry width="50" height="50" relative="1" as="geometry">
            <mxPoint x="-80" y="1770" as="sourcePoint" />
            <mxPoint x="220" y="1500" as="targetPoint" />
          </mxGeometry>
        </mxCell>
        <mxCell id="BwyU6I4A-7bW7PIGsTzX-126" value="" style="endArrow=none;dashed=1;html=1;rounded=0;entryX=0.5;entryY=1;entryDx=0;entryDy=0;" edge="1" parent="1" target="BwyU6I4A-7bW7PIGsTzX-106">
          <mxGeometry width="50" height="50" relative="1" as="geometry">
            <mxPoint x="200" y="1750" as="sourcePoint" />
            <mxPoint x="-70" y="1380" as="targetPoint" />
          </mxGeometry>
        </mxCell>
        <mxCell id="BwyU6I4A-7bW7PIGsTzX-128" value="Create" style="text;html=1;strokeColor=none;fillColor=none;align=center;verticalAlign=middle;whiteSpace=wrap;rounded=0;" vertex="1" parent="1">
          <mxGeometry x="-102" y="1314" width="44" height="20" as="geometry" />
        </mxCell>
        <mxCell id="BwyU6I4A-7bW7PIGsTzX-129" value="Project" style="text;html=1;strokeColor=none;fillColor=none;align=center;verticalAlign=middle;whiteSpace=wrap;rounded=0;" vertex="1" parent="1">
          <mxGeometry x="-110" y="1337" width="60" height="30" as="geometry" />
        </mxCell>
        <mxCell id="BwyU6I4A-7bW7PIGsTzX-130" value="Add&lt;br&gt;Project" style="text;html=1;strokeColor=none;fillColor=none;align=center;verticalAlign=middle;whiteSpace=wrap;rounded=0;" vertex="1" parent="1">
          <mxGeometry x="178" y="1329" width="44" height="20" as="geometry" />
        </mxCell>
        <mxCell id="BwyU6I4A-7bW7PIGsTzX-131" value="Project" style="text;html=1;strokeColor=none;fillColor=none;align=center;verticalAlign=middle;whiteSpace=wrap;rounded=0;" vertex="1" parent="1">
          <mxGeometry x="450" y="1310" width="60" height="30" as="geometry" />
        </mxCell>
        <mxCell id="BwyU6I4A-7bW7PIGsTzX-132" value="Record" style="text;html=1;strokeColor=none;fillColor=none;align=center;verticalAlign=middle;whiteSpace=wrap;rounded=0;" vertex="1" parent="1">
          <mxGeometry x="452" y="1336" width="57" height="25" as="geometry" />
        </mxCell>
        <mxCell id="BwyU6I4A-7bW7PIGsTzX-136" value="Acknowledgement Message" style="text;html=1;strokeColor=none;fillColor=none;align=center;verticalAlign=middle;whiteSpace=wrap;rounded=0;" vertex="1" parent="1">
          <mxGeometry x="-30" y="1690" width="180" height="30" as="geometry" />
        </mxCell>
        <mxCell id="BwyU6I4A-7bW7PIGsTzX-138" value="Generate&lt;br&gt;Project&lt;br&gt;ID" style="text;html=1;strokeColor=none;fillColor=none;align=center;verticalAlign=middle;whiteSpace=wrap;rounded=0;" vertex="1" parent="1">
          <mxGeometry x="260" y="1450" width="60" height="30" as="geometry" />
        </mxCell>
        <mxCell id="BwyU6I4A-7bW7PIGsTzX-139" value="" style="endArrow=classic;html=1;rounded=0;" edge="1" parent="1">
          <mxGeometry width="50" height="50" relative="1" as="geometry">
            <mxPoint x="-80" y="1520" as="sourcePoint" />
            <mxPoint x="200" y="1520" as="targetPoint" />
          </mxGeometry>
        </mxCell>
        <mxCell id="BwyU6I4A-7bW7PIGsTzX-140" value="Enter Project Details" style="text;html=1;strokeColor=none;fillColor=none;align=center;verticalAlign=middle;whiteSpace=wrap;rounded=0;" vertex="1" parent="1">
          <mxGeometry x="7" y="1488" width="115" height="30" as="geometry" />
        </mxCell>
        <mxCell id="BwyU6I4A-7bW7PIGsTzX-142" value="" style="endArrow=none;dashed=1;html=1;rounded=0;entryX=0.5;entryY=1;entryDx=0;entryDy=0;" edge="1" parent="1" target="BwyU6I4A-7bW7PIGsTzX-107">
          <mxGeometry width="50" height="50" relative="1" as="geometry">
            <mxPoint x="480" y="1740" as="sourcePoint" />
            <mxPoint x="510" y="1450" as="targetPoint" />
          </mxGeometry>
        </mxCell>
        <mxCell id="BwyU6I4A-7bW7PIGsTzX-143" value="Collaboraton&lt;br&gt;" style="text;html=1;strokeColor=none;fillColor=none;align=center;verticalAlign=middle;whiteSpace=wrap;rounded=0;" vertex="1" parent="1">
          <mxGeometry x="-220" y="1820" width="60" height="30" as="geometry" />
        </mxCell>
        <mxCell id="BwyU6I4A-7bW7PIGsTzX-144" value="" style="rounded=0;whiteSpace=wrap;html=1;rotation=90;" vertex="1" parent="1">
          <mxGeometry x="-240.87" y="2171.63" width="345" height="21.75" as="geometry" />
        </mxCell>
        <mxCell id="BwyU6I4A-7bW7PIGsTzX-145" value="" style="rounded=0;whiteSpace=wrap;html=1;" vertex="1" parent="1">
          <mxGeometry x="-130" y="1920" width="120" height="60" as="geometry" />
        </mxCell>
        <mxCell id="BwyU6I4A-7bW7PIGsTzX-146" value="" style="rounded=0;whiteSpace=wrap;html=1;" vertex="1" parent="1">
          <mxGeometry x="150" y="1920" width="120" height="60" as="geometry" />
        </mxCell>
        <mxCell id="BwyU6I4A-7bW7PIGsTzX-147" value="" style="rounded=0;whiteSpace=wrap;html=1;" vertex="1" parent="1">
          <mxGeometry x="430" y="1920" width="120" height="60" as="geometry" />
        </mxCell>
        <mxCell id="BwyU6I4A-7bW7PIGsTzX-148" value="" style="endArrow=classic;html=1;rounded=0;" edge="1" parent="1" source="BwyU6I4A-7bW7PIGsTzX-152">
          <mxGeometry width="50" height="50" relative="1" as="geometry">
            <mxPoint x="-70" y="2040" as="sourcePoint" />
            <mxPoint x="210" y="2040" as="targetPoint" />
          </mxGeometry>
        </mxCell>
        <mxCell id="BwyU6I4A-7bW7PIGsTzX-149" value="Collaboration Request" style="text;html=1;strokeColor=none;fillColor=none;align=center;verticalAlign=middle;whiteSpace=wrap;rounded=0;" vertex="1" parent="1">
          <mxGeometry x="40" y="2005" width="60" height="30" as="geometry" />
        </mxCell>
        <mxCell id="BwyU6I4A-7bW7PIGsTzX-150" value="Add Collaborator" style="text;html=1;strokeColor=none;fillColor=none;align=center;verticalAlign=middle;whiteSpace=wrap;rounded=0;" vertex="1" parent="1">
          <mxGeometry x="290" y="2182" width="140" height="30" as="geometry" />
        </mxCell>
        <mxCell id="BwyU6I4A-7bW7PIGsTzX-151" value="Acknowledgement" style="text;html=1;strokeColor=none;fillColor=none;align=center;verticalAlign=middle;whiteSpace=wrap;rounded=0;" vertex="1" parent="1">
          <mxGeometry x="260" y="2240" width="160" height="30" as="geometry" />
        </mxCell>
        <mxCell id="BwyU6I4A-7bW7PIGsTzX-152" value="" style="rounded=0;whiteSpace=wrap;html=1;rotation=90;" vertex="1" parent="1">
          <mxGeometry x="35" y="2170" width="345" height="21.75" as="geometry" />
        </mxCell>
        <mxCell id="BwyU6I4A-7bW7PIGsTzX-153" value="" style="endArrow=classic;html=1;rounded=0;" edge="1" parent="1">
          <mxGeometry width="50" height="50" relative="1" as="geometry">
            <mxPoint x="-70" y="2040" as="sourcePoint" />
            <mxPoint x="212" y="2040" as="targetPoint" />
          </mxGeometry>
        </mxCell>
        <mxCell id="BwyU6I4A-7bW7PIGsTzX-154" value="" style="endArrow=classic;html=1;rounded=0;" edge="1" parent="1">
          <mxGeometry width="50" height="50" relative="1" as="geometry">
            <mxPoint x="210" y="2330" as="sourcePoint" />
            <mxPoint x="-70" y="2330" as="targetPoint" />
          </mxGeometry>
        </mxCell>
        <mxCell id="BwyU6I4A-7bW7PIGsTzX-155" value="" style="endArrow=classic;html=1;rounded=0;" edge="1" parent="1">
          <mxGeometry width="50" height="50" relative="1" as="geometry">
            <mxPoint x="210" y="2070" as="sourcePoint" />
            <mxPoint x="210" y="2090" as="targetPoint" />
            <Array as="points">
              <mxPoint x="270" y="2070" />
              <mxPoint x="270" y="2090" />
            </Array>
          </mxGeometry>
        </mxCell>
        <mxCell id="BwyU6I4A-7bW7PIGsTzX-156" value="" style="rounded=0;whiteSpace=wrap;html=1;rotation=90;" vertex="1" parent="1">
          <mxGeometry x="439.69" y="2200.3199999999997" width="101.87" height="21.75" as="geometry" />
        </mxCell>
        <mxCell id="BwyU6I4A-7bW7PIGsTzX-157" value="" style="endArrow=classic;html=1;rounded=0;" edge="1" parent="1">
          <mxGeometry width="50" height="50" relative="1" as="geometry">
            <mxPoint x="210" y="2182.01" as="sourcePoint" />
            <mxPoint x="490" y="2182.01" as="targetPoint" />
          </mxGeometry>
        </mxCell>
        <mxCell id="BwyU6I4A-7bW7PIGsTzX-158" value="" style="endArrow=classic;html=1;rounded=0;" edge="1" parent="1">
          <mxGeometry width="50" height="50" relative="1" as="geometry">
            <mxPoint x="490" y="2234" as="sourcePoint" />
            <mxPoint x="210" y="2234" as="targetPoint" />
          </mxGeometry>
        </mxCell>
        <mxCell id="BwyU6I4A-7bW7PIGsTzX-159" value="" style="endArrow=none;dashed=1;html=1;rounded=0;entryX=0.5;entryY=1;entryDx=0;entryDy=0;" edge="1" parent="1" target="BwyU6I4A-7bW7PIGsTzX-145">
          <mxGeometry width="50" height="50" relative="1" as="geometry">
            <mxPoint x="-70" y="2380" as="sourcePoint" />
            <mxPoint x="230" y="2110" as="targetPoint" />
          </mxGeometry>
        </mxCell>
        <mxCell id="BwyU6I4A-7bW7PIGsTzX-160" value="" style="endArrow=none;dashed=1;html=1;rounded=0;entryX=0.5;entryY=1;entryDx=0;entryDy=0;" edge="1" parent="1" target="BwyU6I4A-7bW7PIGsTzX-146">
          <mxGeometry width="50" height="50" relative="1" as="geometry">
            <mxPoint x="210" y="2360" as="sourcePoint" />
            <mxPoint x="-60" y="1990" as="targetPoint" />
          </mxGeometry>
        </mxCell>
        <mxCell id="BwyU6I4A-7bW7PIGsTzX-161" value="Create" style="text;html=1;strokeColor=none;fillColor=none;align=center;verticalAlign=middle;whiteSpace=wrap;rounded=0;" vertex="1" parent="1">
          <mxGeometry x="-92" y="1924" width="44" height="20" as="geometry" />
        </mxCell>
        <mxCell id="BwyU6I4A-7bW7PIGsTzX-162" value="Collaboration" style="text;html=1;strokeColor=none;fillColor=none;align=center;verticalAlign=middle;whiteSpace=wrap;rounded=0;" vertex="1" parent="1">
          <mxGeometry x="-100" y="1947" width="60" height="30" as="geometry" />
        </mxCell>
        <mxCell id="BwyU6I4A-7bW7PIGsTzX-163" value="Collaboration Controller" style="text;html=1;strokeColor=none;fillColor=none;align=center;verticalAlign=middle;whiteSpace=wrap;rounded=0;" vertex="1" parent="1">
          <mxGeometry x="188" y="1939" width="44" height="20" as="geometry" />
        </mxCell>
        <mxCell id="BwyU6I4A-7bW7PIGsTzX-164" value="Project" style="text;html=1;strokeColor=none;fillColor=none;align=center;verticalAlign=middle;whiteSpace=wrap;rounded=0;" vertex="1" parent="1">
          <mxGeometry x="460" y="1920" width="60" height="30" as="geometry" />
        </mxCell>
        <mxCell id="BwyU6I4A-7bW7PIGsTzX-165" value="Record" style="text;html=1;strokeColor=none;fillColor=none;align=center;verticalAlign=middle;whiteSpace=wrap;rounded=0;" vertex="1" parent="1">
          <mxGeometry x="462" y="1946" width="57" height="25" as="geometry" />
        </mxCell>
        <mxCell id="BwyU6I4A-7bW7PIGsTzX-166" value="Collaborator" style="text;html=1;strokeColor=none;fillColor=none;align=center;verticalAlign=middle;whiteSpace=wrap;rounded=0;" vertex="1" parent="1">
          <mxGeometry x="-20" y="2300" width="180" height="30" as="geometry" />
        </mxCell>
        <mxCell id="BwyU6I4A-7bW7PIGsTzX-167" value="Verify Request" style="text;html=1;strokeColor=none;fillColor=none;align=center;verticalAlign=middle;whiteSpace=wrap;rounded=0;" vertex="1" parent="1">
          <mxGeometry x="270" y="2060" width="60" height="30" as="geometry" />
        </mxCell>
        <mxCell id="BwyU6I4A-7bW7PIGsTzX-168" value="" style="endArrow=classic;html=1;rounded=0;" edge="1" parent="1">
          <mxGeometry width="50" height="50" relative="1" as="geometry">
            <mxPoint x="-70" y="2130" as="sourcePoint" />
            <mxPoint x="210" y="2130" as="targetPoint" />
          </mxGeometry>
        </mxCell>
        <mxCell id="BwyU6I4A-7bW7PIGsTzX-169" value="Request Denied" style="text;html=1;strokeColor=none;fillColor=none;align=center;verticalAlign=middle;whiteSpace=wrap;rounded=0;" vertex="1" parent="1">
          <mxGeometry x="12.5" y="2130" width="115" height="30" as="geometry" />
        </mxCell>
        <mxCell id="BwyU6I4A-7bW7PIGsTzX-170" value="" style="endArrow=none;dashed=1;html=1;rounded=0;entryX=0.5;entryY=1;entryDx=0;entryDy=0;" edge="1" parent="1" target="BwyU6I4A-7bW7PIGsTzX-147">
          <mxGeometry width="50" height="50" relative="1" as="geometry">
            <mxPoint x="490" y="2350" as="sourcePoint" />
            <mxPoint x="520" y="2060" as="targetPoint" />
          </mxGeometry>
        </mxCell>
        <mxCell id="BwyU6I4A-7bW7PIGsTzX-171" value="[invalid]" style="text;html=1;strokeColor=none;fillColor=none;align=center;verticalAlign=middle;whiteSpace=wrap;rounded=0;" vertex="1" parent="1">
          <mxGeometry x="40" y="2100" width="60" height="30" as="geometry" />
        </mxCell>
        <mxCell id="BwyU6I4A-7bW7PIGsTzX-172" value="[Valid]" style="text;html=1;strokeColor=none;fillColor=none;align=center;verticalAlign=middle;whiteSpace=wrap;rounded=0;" vertex="1" parent="1">
          <mxGeometry x="330" y="2150" width="60" height="30" as="geometry" />
        </mxCell>
        <mxCell id="BwyU6I4A-7bW7PIGsTzX-173" value="Added Message" style="text;html=1;strokeColor=none;fillColor=none;align=center;verticalAlign=middle;whiteSpace=wrap;rounded=0;" vertex="1" parent="1">
          <mxGeometry x="19" y="2337" width="102" height="30" as="geometry" />
        </mxCell>
        <mxCell id="1p2WvffCdweuvYEAGvgS-1" value="Discuss" style="text;html=1;strokeColor=none;fillColor=none;align=center;verticalAlign=middle;whiteSpace=wrap;rounded=0;" vertex="1" parent="1">
          <mxGeometry x="-220" y="2400" width="60" height="30" as="geometry" />
        </mxCell>
        <mxCell id="1p2WvffCdweuvYEAGvgS-2" value="" style="rounded=0;whiteSpace=wrap;html=1;rotation=90;" vertex="1" parent="1">
          <mxGeometry x="-230.87" y="2761.63" width="345" height="21.75" as="geometry" />
        </mxCell>
        <mxCell id="1p2WvffCdweuvYEAGvgS-3" value="" style="rounded=0;whiteSpace=wrap;html=1;" vertex="1" parent="1">
          <mxGeometry x="-120" y="2510" width="120" height="60" as="geometry" />
        </mxCell>
        <mxCell id="1p2WvffCdweuvYEAGvgS-4" value="" style="rounded=0;whiteSpace=wrap;html=1;" vertex="1" parent="1">
          <mxGeometry x="160" y="2510" width="120" height="60" as="geometry" />
        </mxCell>
        <mxCell id="1p2WvffCdweuvYEAGvgS-5" value="" style="rounded=0;whiteSpace=wrap;html=1;" vertex="1" parent="1">
          <mxGeometry x="440" y="2510" width="120" height="60" as="geometry" />
        </mxCell>
        <mxCell id="1p2WvffCdweuvYEAGvgS-6" value="" style="endArrow=classic;html=1;rounded=0;" edge="1" parent="1" source="1p2WvffCdweuvYEAGvgS-10">
          <mxGeometry width="50" height="50" relative="1" as="geometry">
            <mxPoint x="-60" y="2630" as="sourcePoint" />
            <mxPoint x="220" y="2630" as="targetPoint" />
          </mxGeometry>
        </mxCell>
        <mxCell id="1p2WvffCdweuvYEAGvgS-7" value="Start Discussion" style="text;html=1;strokeColor=none;fillColor=none;align=center;verticalAlign=middle;whiteSpace=wrap;rounded=0;" vertex="1" parent="1">
          <mxGeometry x="25" y="2600" width="100" height="30" as="geometry" />
        </mxCell>
        <mxCell id="1p2WvffCdweuvYEAGvgS-8" value="Text" style="text;html=1;strokeColor=none;fillColor=none;align=center;verticalAlign=middle;whiteSpace=wrap;rounded=0;" vertex="1" parent="1">
          <mxGeometry y="2800" width="140" height="30" as="geometry" />
        </mxCell>
        <mxCell id="1p2WvffCdweuvYEAGvgS-9" value="Store Message" style="text;html=1;strokeColor=none;fillColor=none;align=center;verticalAlign=middle;whiteSpace=wrap;rounded=0;" vertex="1" parent="1">
          <mxGeometry x="288.13" y="2805" width="160" height="30" as="geometry" />
        </mxCell>
        <mxCell id="1p2WvffCdweuvYEAGvgS-10" value="" style="rounded=0;whiteSpace=wrap;html=1;rotation=90;" vertex="1" parent="1">
          <mxGeometry x="45" y="2760" width="345" height="21.75" as="geometry" />
        </mxCell>
        <mxCell id="1p2WvffCdweuvYEAGvgS-11" value="" style="endArrow=classic;html=1;rounded=0;" edge="1" parent="1">
          <mxGeometry width="50" height="50" relative="1" as="geometry">
            <mxPoint x="-60" y="2630" as="sourcePoint" />
            <mxPoint x="222" y="2630" as="targetPoint" />
          </mxGeometry>
        </mxCell>
        <mxCell id="1p2WvffCdweuvYEAGvgS-12" value="" style="endArrow=classic;html=1;rounded=0;" edge="1" parent="1">
          <mxGeometry width="50" height="50" relative="1" as="geometry">
            <mxPoint x="220" y="2920" as="sourcePoint" />
            <mxPoint x="-60" y="2920" as="targetPoint" />
          </mxGeometry>
        </mxCell>
        <mxCell id="1p2WvffCdweuvYEAGvgS-13" value="" style="endArrow=classic;html=1;rounded=0;" edge="1" parent="1">
          <mxGeometry width="50" height="50" relative="1" as="geometry">
            <mxPoint x="-60" y="2650" as="sourcePoint" />
            <mxPoint x="220" y="2650" as="targetPoint" />
            <Array as="points">
              <mxPoint x="60" y="2650" />
            </Array>
          </mxGeometry>
        </mxCell>
        <mxCell id="1p2WvffCdweuvYEAGvgS-14" value="" style="rounded=0;whiteSpace=wrap;html=1;rotation=90;" vertex="1" parent="1">
          <mxGeometry x="463.04" y="2667.28" width="75.16" height="21.75" as="geometry" />
        </mxCell>
        <mxCell id="1p2WvffCdweuvYEAGvgS-15" value="" style="endArrow=classic;html=1;rounded=0;" edge="1" parent="1">
          <mxGeometry width="50" height="50" relative="1" as="geometry">
            <mxPoint x="-58" y="2800.78" as="sourcePoint" />
            <mxPoint x="222" y="2800.78" as="targetPoint" />
          </mxGeometry>
        </mxCell>
        <mxCell id="1p2WvffCdweuvYEAGvgS-17" value="" style="endArrow=none;dashed=1;html=1;rounded=0;entryX=0.5;entryY=1;entryDx=0;entryDy=0;" edge="1" parent="1" target="1p2WvffCdweuvYEAGvgS-3">
          <mxGeometry width="50" height="50" relative="1" as="geometry">
            <mxPoint x="-60" y="2970" as="sourcePoint" />
            <mxPoint x="240" y="2700" as="targetPoint" />
          </mxGeometry>
        </mxCell>
        <mxCell id="1p2WvffCdweuvYEAGvgS-18" value="" style="endArrow=none;dashed=1;html=1;rounded=0;entryX=0.5;entryY=1;entryDx=0;entryDy=0;" edge="1" parent="1" target="1p2WvffCdweuvYEAGvgS-4">
          <mxGeometry width="50" height="50" relative="1" as="geometry">
            <mxPoint x="220" y="2950" as="sourcePoint" />
            <mxPoint x="-50" y="2580" as="targetPoint" />
          </mxGeometry>
        </mxCell>
        <mxCell id="1p2WvffCdweuvYEAGvgS-19" value="Start" style="text;html=1;strokeColor=none;fillColor=none;align=center;verticalAlign=middle;whiteSpace=wrap;rounded=0;" vertex="1" parent="1">
          <mxGeometry x="-82" y="2514" width="44" height="20" as="geometry" />
        </mxCell>
        <mxCell id="1p2WvffCdweuvYEAGvgS-20" value="Discussion" style="text;html=1;strokeColor=none;fillColor=none;align=center;verticalAlign=middle;whiteSpace=wrap;rounded=0;" vertex="1" parent="1">
          <mxGeometry x="-90" y="2537" width="60" height="30" as="geometry" />
        </mxCell>
        <mxCell id="1p2WvffCdweuvYEAGvgS-21" value="Discussion Controller" style="text;html=1;strokeColor=none;fillColor=none;align=center;verticalAlign=middle;whiteSpace=wrap;rounded=0;" vertex="1" parent="1">
          <mxGeometry x="198" y="2529" width="44" height="20" as="geometry" />
        </mxCell>
        <mxCell id="1p2WvffCdweuvYEAGvgS-22" value="Discussion" style="text;html=1;strokeColor=none;fillColor=none;align=center;verticalAlign=middle;whiteSpace=wrap;rounded=0;" vertex="1" parent="1">
          <mxGeometry x="470" y="2510" width="60" height="30" as="geometry" />
        </mxCell>
        <mxCell id="1p2WvffCdweuvYEAGvgS-23" value="Record" style="text;html=1;strokeColor=none;fillColor=none;align=center;verticalAlign=middle;whiteSpace=wrap;rounded=0;" vertex="1" parent="1">
          <mxGeometry x="472" y="2536" width="57" height="25" as="geometry" />
        </mxCell>
        <mxCell id="1p2WvffCdweuvYEAGvgS-24" value="Show Comment" style="text;html=1;strokeColor=none;fillColor=none;align=center;verticalAlign=middle;whiteSpace=wrap;rounded=0;" vertex="1" parent="1">
          <mxGeometry x="-10" y="2890" width="180" height="30" as="geometry" />
        </mxCell>
        <mxCell id="1p2WvffCdweuvYEAGvgS-25" value="Message" style="text;html=1;strokeColor=none;fillColor=none;align=center;verticalAlign=middle;whiteSpace=wrap;rounded=0;" vertex="1" parent="1">
          <mxGeometry x="44.129999999999995" y="2642" width="60" height="30" as="geometry" />
        </mxCell>
        <mxCell id="1p2WvffCdweuvYEAGvgS-26" value="" style="endArrow=classic;html=1;rounded=0;" edge="1" parent="1">
          <mxGeometry width="50" height="50" relative="1" as="geometry">
            <mxPoint x="-60" y="2767" as="sourcePoint" />
            <mxPoint x="220" y="2767" as="targetPoint" />
          </mxGeometry>
        </mxCell>
        <mxCell id="1p2WvffCdweuvYEAGvgS-27" value="Comment" style="text;html=1;strokeColor=none;fillColor=none;align=center;verticalAlign=middle;whiteSpace=wrap;rounded=0;" vertex="1" parent="1">
          <mxGeometry x="22.5" y="2743" width="115" height="30" as="geometry" />
        </mxCell>
        <mxCell id="1p2WvffCdweuvYEAGvgS-28" value="" style="endArrow=none;dashed=1;html=1;rounded=0;entryX=0.5;entryY=1;entryDx=0;entryDy=0;" edge="1" parent="1" target="1p2WvffCdweuvYEAGvgS-5">
          <mxGeometry width="50" height="50" relative="1" as="geometry">
            <mxPoint x="498" y="2940" as="sourcePoint" />
            <mxPoint x="530" y="2650" as="targetPoint" />
          </mxGeometry>
        </mxCell>
        <mxCell id="1p2WvffCdweuvYEAGvgS-32" value="" style="endArrow=classic;html=1;rounded=0;" edge="1" parent="1">
          <mxGeometry width="50" height="50" relative="1" as="geometry">
            <mxPoint x="220" y="2660" as="sourcePoint" />
            <mxPoint x="500" y="2660" as="targetPoint" />
          </mxGeometry>
        </mxCell>
        <mxCell id="1p2WvffCdweuvYEAGvgS-33" value="" style="endArrow=classic;html=1;rounded=0;" edge="1" parent="1">
          <mxGeometry width="50" height="50" relative="1" as="geometry">
            <mxPoint x="500" y="2700" as="sourcePoint" />
            <mxPoint x="220" y="2700" as="targetPoint" />
          </mxGeometry>
        </mxCell>
        <mxCell id="1p2WvffCdweuvYEAGvgS-34" value="Store Message" style="text;html=1;strokeColor=none;fillColor=none;align=center;verticalAlign=middle;whiteSpace=wrap;rounded=0;" vertex="1" parent="1">
          <mxGeometry x="324.5" y="2630" width="91" height="30" as="geometry" />
        </mxCell>
        <mxCell id="1p2WvffCdweuvYEAGvgS-35" value="Show Message" style="text;html=1;strokeColor=none;fillColor=none;align=center;verticalAlign=middle;whiteSpace=wrap;rounded=0;" vertex="1" parent="1">
          <mxGeometry x="323.5" y="2670" width="91" height="30" as="geometry" />
        </mxCell>
        <mxCell id="1p2WvffCdweuvYEAGvgS-36" value="" style="endArrow=classic;html=1;rounded=0;" edge="1" parent="1">
          <mxGeometry width="50" height="50" relative="1" as="geometry">
            <mxPoint x="220" y="2740" as="sourcePoint" />
            <mxPoint x="-60" y="2740" as="targetPoint" />
          </mxGeometry>
        </mxCell>
        <mxCell id="1p2WvffCdweuvYEAGvgS-37" value="Show Message" style="text;html=1;strokeColor=none;fillColor=none;align=center;verticalAlign=middle;whiteSpace=wrap;rounded=0;" vertex="1" parent="1">
          <mxGeometry x="37.5" y="2710" width="90" height="30" as="geometry" />
        </mxCell>
        <mxCell id="xxnQwtqcnDcDq5wnZST3-1" value="" style="endArrow=classic;html=1;rounded=0;" edge="1" parent="1">
          <mxGeometry width="50" height="50" relative="1" as="geometry">
            <mxPoint x="220" y="2830" as="sourcePoint" />
            <mxPoint x="500" y="2830" as="targetPoint" />
          </mxGeometry>
        </mxCell>
        <mxCell id="xxnQwtqcnDcDq5wnZST3-2" value="" style="endArrow=classic;html=1;rounded=0;" edge="1" parent="1">
          <mxGeometry width="50" height="50" relative="1" as="geometry">
            <mxPoint x="500" y="2870" as="sourcePoint" />
            <mxPoint x="220" y="2870" as="targetPoint" />
          </mxGeometry>
        </mxCell>
        <mxCell id="xxnQwtqcnDcDq5wnZST3-3" value="Show Comment" style="text;html=1;strokeColor=none;fillColor=none;align=center;verticalAlign=middle;whiteSpace=wrap;rounded=0;" vertex="1" parent="1">
          <mxGeometry x="330" y="2870" width="60" height="30" as="geometry" />
        </mxCell>
      </root>
    </mxGraphModel>
  </diagram>
  <diagram id="qWPbjUIHk69XQSvT_wQw" name="Collaboration">
    <mxGraphModel dx="1635" dy="1466" grid="0" gridSize="10" guides="1" tooltips="1" connect="1" arrows="1" fold="1" page="0" pageScale="1" pageWidth="850" pageHeight="1100" math="0" shadow="0">
      <root>
        <mxCell id="0" />
        <mxCell id="1" parent="0" />
        <mxCell id="8Tx6SXwO2rZ4uyeSZcDE-1" value="Register&lt;br&gt;" style="text;html=1;strokeColor=none;fillColor=none;align=center;verticalAlign=middle;whiteSpace=wrap;rounded=0;" vertex="1" parent="1">
          <mxGeometry x="-260" y="-540" width="60" height="30" as="geometry" />
        </mxCell>
        <mxCell id="8Tx6SXwO2rZ4uyeSZcDE-2" value="" style="rounded=0;whiteSpace=wrap;html=1;" vertex="1" parent="1">
          <mxGeometry x="-80" y="-360" width="120" height="60" as="geometry" />
        </mxCell>
        <mxCell id="8Tx6SXwO2rZ4uyeSZcDE-3" value="" style="rounded=0;whiteSpace=wrap;html=1;" vertex="1" parent="1">
          <mxGeometry x="240" y="-440" width="120" height="60" as="geometry" />
        </mxCell>
        <mxCell id="8Tx6SXwO2rZ4uyeSZcDE-4" value="" style="rounded=0;whiteSpace=wrap;html=1;" vertex="1" parent="1">
          <mxGeometry x="240" y="-120" width="120" height="60" as="geometry" />
        </mxCell>
        <mxCell id="8Tx6SXwO2rZ4uyeSZcDE-5" value="Register Boundary" style="text;html=1;strokeColor=none;fillColor=none;align=center;verticalAlign=middle;whiteSpace=wrap;rounded=0;" vertex="1" parent="1">
          <mxGeometry x="-50" y="-345" width="60" height="30" as="geometry" />
        </mxCell>
        <mxCell id="8Tx6SXwO2rZ4uyeSZcDE-6" value="Check Already Exists" style="text;html=1;strokeColor=none;fillColor=none;align=center;verticalAlign=middle;whiteSpace=wrap;rounded=0;" vertex="1" parent="1">
          <mxGeometry x="270" y="-425" width="60" height="30" as="geometry" />
        </mxCell>
        <mxCell id="8Tx6SXwO2rZ4uyeSZcDE-7" value="User Details" style="text;html=1;strokeColor=none;fillColor=none;align=center;verticalAlign=middle;whiteSpace=wrap;rounded=0;" vertex="1" parent="1">
          <mxGeometry x="270" y="-105" width="60" height="30" as="geometry" />
        </mxCell>
        <mxCell id="8Tx6SXwO2rZ4uyeSZcDE-8" value="" style="curved=1;endArrow=classic;html=1;rounded=0;exitX=1;exitY=0;exitDx=0;exitDy=0;entryX=0;entryY=0;entryDx=0;entryDy=0;" edge="1" parent="1" source="8Tx6SXwO2rZ4uyeSZcDE-2" target="8Tx6SXwO2rZ4uyeSZcDE-3">
          <mxGeometry width="50" height="50" relative="1" as="geometry">
            <mxPoint x="90" y="-390" as="sourcePoint" />
            <mxPoint x="140" y="-440" as="targetPoint" />
            <Array as="points">
              <mxPoint x="90" y="-440" />
            </Array>
          </mxGeometry>
        </mxCell>
        <mxCell id="8Tx6SXwO2rZ4uyeSZcDE-9" value="" style="curved=1;endArrow=classic;html=1;rounded=0;entryX=1;entryY=0.75;entryDx=0;entryDy=0;exitX=0;exitY=1;exitDx=0;exitDy=0;" edge="1" parent="1" source="8Tx6SXwO2rZ4uyeSZcDE-3" target="8Tx6SXwO2rZ4uyeSZcDE-2">
          <mxGeometry width="50" height="50" relative="1" as="geometry">
            <mxPoint x="130" y="-310" as="sourcePoint" />
            <mxPoint x="180" y="-360" as="targetPoint" />
            <Array as="points">
              <mxPoint x="220" y="-330" />
            </Array>
          </mxGeometry>
        </mxCell>
        <mxCell id="8Tx6SXwO2rZ4uyeSZcDE-10" value="" style="curved=1;endArrow=classic;html=1;rounded=0;entryX=0.25;entryY=0;entryDx=0;entryDy=0;exitX=0.75;exitY=0;exitDx=0;exitDy=0;" edge="1" parent="1" source="8Tx6SXwO2rZ4uyeSZcDE-2" target="8Tx6SXwO2rZ4uyeSZcDE-3">
          <mxGeometry width="50" height="50" relative="1" as="geometry">
            <mxPoint x="70" y="-440" as="sourcePoint" />
            <mxPoint x="120" y="-490" as="targetPoint" />
            <Array as="points">
              <mxPoint x="60" y="-550" />
            </Array>
          </mxGeometry>
        </mxCell>
        <mxCell id="8Tx6SXwO2rZ4uyeSZcDE-11" value="" style="curved=1;endArrow=classic;html=1;rounded=0;exitX=0.25;exitY=1;exitDx=0;exitDy=0;entryX=0.75;entryY=1;entryDx=0;entryDy=0;" edge="1" parent="1" source="8Tx6SXwO2rZ4uyeSZcDE-3" target="8Tx6SXwO2rZ4uyeSZcDE-2">
          <mxGeometry width="50" height="50" relative="1" as="geometry">
            <mxPoint x="280" y="-280" as="sourcePoint" />
            <mxPoint x="330" y="-330" as="targetPoint" />
            <Array as="points">
              <mxPoint x="200" y="-250" />
            </Array>
          </mxGeometry>
        </mxCell>
        <mxCell id="8Tx6SXwO2rZ4uyeSZcDE-12" value="" style="curved=1;endArrow=classic;html=1;rounded=0;exitX=1;exitY=1;exitDx=0;exitDy=0;entryX=1;entryY=0;entryDx=0;entryDy=0;" edge="1" parent="1" source="8Tx6SXwO2rZ4uyeSZcDE-3" target="8Tx6SXwO2rZ4uyeSZcDE-4">
          <mxGeometry width="50" height="50" relative="1" as="geometry">
            <mxPoint x="440" y="-270" as="sourcePoint" />
            <mxPoint x="490" y="-320" as="targetPoint" />
            <Array as="points">
              <mxPoint x="410" y="-360" />
              <mxPoint x="440" y="-320" />
              <mxPoint x="440" y="-280" />
            </Array>
          </mxGeometry>
        </mxCell>
        <mxCell id="8Tx6SXwO2rZ4uyeSZcDE-13" value="" style="curved=1;endArrow=classic;html=1;rounded=0;exitX=1;exitY=0.5;exitDx=0;exitDy=0;entryX=1;entryY=1;entryDx=0;entryDy=0;" edge="1" parent="1" source="8Tx6SXwO2rZ4uyeSZcDE-3" target="8Tx6SXwO2rZ4uyeSZcDE-4">
          <mxGeometry width="50" height="50" relative="1" as="geometry">
            <mxPoint x="500" y="-320" as="sourcePoint" />
            <mxPoint x="550" y="-370" as="targetPoint" />
            <Array as="points">
              <mxPoint x="670" y="-360" />
            </Array>
          </mxGeometry>
        </mxCell>
        <mxCell id="8Tx6SXwO2rZ4uyeSZcDE-14" value="" style="endArrow=classic;html=1;rounded=0;entryX=0.75;entryY=1;entryDx=0;entryDy=0;exitX=0.75;exitY=0;exitDx=0;exitDy=0;" edge="1" parent="1" source="8Tx6SXwO2rZ4uyeSZcDE-4" target="8Tx6SXwO2rZ4uyeSZcDE-3">
          <mxGeometry width="50" height="50" relative="1" as="geometry">
            <mxPoint x="240" y="-180" as="sourcePoint" />
            <mxPoint x="290" y="-230" as="targetPoint" />
          </mxGeometry>
        </mxCell>
        <mxCell id="8Tx6SXwO2rZ4uyeSZcDE-15" value="" style="endArrow=classic;html=1;rounded=0;entryX=0.5;entryY=1;entryDx=0;entryDy=0;exitX=0.5;exitY=0;exitDx=0;exitDy=0;" edge="1" parent="1" source="8Tx6SXwO2rZ4uyeSZcDE-4" target="8Tx6SXwO2rZ4uyeSZcDE-3">
          <mxGeometry width="50" height="50" relative="1" as="geometry">
            <mxPoint x="210" y="-190" as="sourcePoint" />
            <mxPoint x="260" y="-240" as="targetPoint" />
          </mxGeometry>
        </mxCell>
        <mxCell id="8Tx6SXwO2rZ4uyeSZcDE-16" value="1.Email" style="text;html=1;strokeColor=none;fillColor=none;align=center;verticalAlign=middle;whiteSpace=wrap;rounded=0;" vertex="1" parent="1">
          <mxGeometry x="100" y="-510" width="60" height="30" as="geometry" />
        </mxCell>
        <mxCell id="8Tx6SXwO2rZ4uyeSZcDE-17" value="2.Check Account Exists" style="text;html=1;strokeColor=none;fillColor=none;align=center;verticalAlign=middle;whiteSpace=wrap;rounded=0;" vertex="1" parent="1">
          <mxGeometry x="520" y="-310" width="60" height="30" as="geometry" />
        </mxCell>
        <mxCell id="8Tx6SXwO2rZ4uyeSZcDE-20" value="3.Exists/Does not Exist" style="text;html=1;strokeColor=none;fillColor=none;align=center;verticalAlign=middle;whiteSpace=wrap;rounded=0;rotation=0;" vertex="1" parent="1">
          <mxGeometry x="340" y="-291" width="60" height="30" as="geometry" />
        </mxCell>
        <mxCell id="8Tx6SXwO2rZ4uyeSZcDE-21" value="4.Enter Details" style="text;html=1;strokeColor=none;fillColor=none;align=center;verticalAlign=middle;whiteSpace=wrap;rounded=0;" vertex="1" parent="1">
          <mxGeometry x="115" y="-365" width="60" height="30" as="geometry" />
        </mxCell>
        <mxCell id="8Tx6SXwO2rZ4uyeSZcDE-22" value="5.Details" style="text;html=1;strokeColor=none;fillColor=none;align=center;verticalAlign=middle;whiteSpace=wrap;rounded=0;" vertex="1" parent="1">
          <mxGeometry x="110" y="-455" width="60" height="30" as="geometry" />
        </mxCell>
        <mxCell id="8Tx6SXwO2rZ4uyeSZcDE-23" value="6.Create User" style="text;html=1;strokeColor=none;fillColor=none;align=center;verticalAlign=middle;whiteSpace=wrap;rounded=0;" vertex="1" parent="1">
          <mxGeometry x="438" y="-315" width="60" height="30" as="geometry" />
        </mxCell>
        <mxCell id="8Tx6SXwO2rZ4uyeSZcDE-24" value="7.Registered Successfully" style="text;html=1;strokeColor=none;fillColor=none;align=center;verticalAlign=middle;whiteSpace=wrap;rounded=0;" vertex="1" parent="1">
          <mxGeometry x="230" y="-230" width="60" height="30" as="geometry" />
        </mxCell>
        <mxCell id="8Tx6SXwO2rZ4uyeSZcDE-27" value="8.Registered Successfully" style="text;html=1;strokeColor=none;fillColor=none;align=center;verticalAlign=middle;whiteSpace=wrap;rounded=0;" vertex="1" parent="1">
          <mxGeometry x="120" y="-280" width="60" height="30" as="geometry" />
        </mxCell>
        <mxCell id="8Tx6SXwO2rZ4uyeSZcDE-28" value="LOgin" style="text;html=1;strokeColor=none;fillColor=none;align=center;verticalAlign=middle;whiteSpace=wrap;rounded=0;" vertex="1" parent="1">
          <mxGeometry x="-240" y="20" width="60" height="30" as="geometry" />
        </mxCell>
        <mxCell id="8Tx6SXwO2rZ4uyeSZcDE-29" value="" style="rounded=0;whiteSpace=wrap;html=1;" vertex="1" parent="1">
          <mxGeometry x="-70" y="260" width="120" height="60" as="geometry" />
        </mxCell>
        <mxCell id="8Tx6SXwO2rZ4uyeSZcDE-30" value="" style="rounded=0;whiteSpace=wrap;html=1;" vertex="1" parent="1">
          <mxGeometry x="250" y="180" width="120" height="60" as="geometry" />
        </mxCell>
        <mxCell id="8Tx6SXwO2rZ4uyeSZcDE-31" value="" style="rounded=0;whiteSpace=wrap;html=1;" vertex="1" parent="1">
          <mxGeometry x="250" y="500" width="120" height="60" as="geometry" />
        </mxCell>
        <mxCell id="8Tx6SXwO2rZ4uyeSZcDE-32" value="Login Boundary" style="text;html=1;strokeColor=none;fillColor=none;align=center;verticalAlign=middle;whiteSpace=wrap;rounded=0;" vertex="1" parent="1">
          <mxGeometry x="-40" y="275" width="60" height="30" as="geometry" />
        </mxCell>
        <mxCell id="8Tx6SXwO2rZ4uyeSZcDE-33" value="Verification" style="text;html=1;strokeColor=none;fillColor=none;align=center;verticalAlign=middle;whiteSpace=wrap;rounded=0;" vertex="1" parent="1">
          <mxGeometry x="280" y="195" width="60" height="30" as="geometry" />
        </mxCell>
        <mxCell id="8Tx6SXwO2rZ4uyeSZcDE-34" value="User Details" style="text;html=1;strokeColor=none;fillColor=none;align=center;verticalAlign=middle;whiteSpace=wrap;rounded=0;" vertex="1" parent="1">
          <mxGeometry x="280" y="515" width="60" height="30" as="geometry" />
        </mxCell>
        <mxCell id="8Tx6SXwO2rZ4uyeSZcDE-35" value="" style="curved=1;endArrow=classic;html=1;rounded=0;exitX=1;exitY=0;exitDx=0;exitDy=0;entryX=0;entryY=0;entryDx=0;entryDy=0;" edge="1" parent="1" source="8Tx6SXwO2rZ4uyeSZcDE-29" target="8Tx6SXwO2rZ4uyeSZcDE-30">
          <mxGeometry width="50" height="50" relative="1" as="geometry">
            <mxPoint x="100" y="230" as="sourcePoint" />
            <mxPoint x="150" y="180" as="targetPoint" />
            <Array as="points">
              <mxPoint x="100" y="180" />
            </Array>
          </mxGeometry>
        </mxCell>
        <mxCell id="8Tx6SXwO2rZ4uyeSZcDE-36" value="" style="curved=1;endArrow=classic;html=1;rounded=0;entryX=1;entryY=0.75;entryDx=0;entryDy=0;exitX=0;exitY=1;exitDx=0;exitDy=0;" edge="1" parent="1" source="8Tx6SXwO2rZ4uyeSZcDE-30" target="8Tx6SXwO2rZ4uyeSZcDE-29">
          <mxGeometry width="50" height="50" relative="1" as="geometry">
            <mxPoint x="140" y="310" as="sourcePoint" />
            <mxPoint x="190" y="260" as="targetPoint" />
            <Array as="points">
              <mxPoint x="230" y="290" />
            </Array>
          </mxGeometry>
        </mxCell>
        <mxCell id="8Tx6SXwO2rZ4uyeSZcDE-37" value="" style="curved=1;endArrow=classic;html=1;rounded=0;exitX=0.25;exitY=1;exitDx=0;exitDy=0;entryX=0.75;entryY=1;entryDx=0;entryDy=0;" edge="1" parent="1" source="8Tx6SXwO2rZ4uyeSZcDE-30" target="8Tx6SXwO2rZ4uyeSZcDE-29">
          <mxGeometry width="50" height="50" relative="1" as="geometry">
            <mxPoint x="290" y="340" as="sourcePoint" />
            <mxPoint x="340" y="290" as="targetPoint" />
            <Array as="points">
              <mxPoint x="210" y="370" />
            </Array>
          </mxGeometry>
        </mxCell>
        <mxCell id="8Tx6SXwO2rZ4uyeSZcDE-38" value="" style="curved=1;endArrow=classic;html=1;rounded=0;exitX=1;exitY=1;exitDx=0;exitDy=0;entryX=1;entryY=0;entryDx=0;entryDy=0;" edge="1" parent="1" source="8Tx6SXwO2rZ4uyeSZcDE-30" target="8Tx6SXwO2rZ4uyeSZcDE-31">
          <mxGeometry width="50" height="50" relative="1" as="geometry">
            <mxPoint x="450" y="350" as="sourcePoint" />
            <mxPoint x="500" y="300" as="targetPoint" />
            <Array as="points">
              <mxPoint x="420" y="260" />
              <mxPoint x="450" y="300" />
              <mxPoint x="450" y="340" />
            </Array>
          </mxGeometry>
        </mxCell>
        <mxCell id="8Tx6SXwO2rZ4uyeSZcDE-39" value="" style="curved=1;endArrow=classic;html=1;rounded=0;exitX=1;exitY=0.5;exitDx=0;exitDy=0;entryX=1;entryY=1;entryDx=0;entryDy=0;" edge="1" parent="1" source="8Tx6SXwO2rZ4uyeSZcDE-30" target="8Tx6SXwO2rZ4uyeSZcDE-31">
          <mxGeometry width="50" height="50" relative="1" as="geometry">
            <mxPoint x="510" y="300" as="sourcePoint" />
            <mxPoint x="560" y="250" as="targetPoint" />
            <Array as="points">
              <mxPoint x="680" y="260" />
            </Array>
          </mxGeometry>
        </mxCell>
        <mxCell id="8Tx6SXwO2rZ4uyeSZcDE-42" value="1.Email" style="text;html=1;strokeColor=none;fillColor=none;align=center;verticalAlign=middle;whiteSpace=wrap;rounded=0;" vertex="1" parent="1">
          <mxGeometry x="110" y="110" width="60" height="30" as="geometry" />
        </mxCell>
        <mxCell id="8Tx6SXwO2rZ4uyeSZcDE-43" value="3.Check Account Exists" style="text;html=1;strokeColor=none;fillColor=none;align=center;verticalAlign=middle;whiteSpace=wrap;rounded=0;" vertex="1" parent="1">
          <mxGeometry x="530" y="310" width="60" height="30" as="geometry" />
        </mxCell>
        <mxCell id="8Tx6SXwO2rZ4uyeSZcDE-45" value="4.[invalid Email]&lt;br&gt;Acc Does not Exist" style="text;html=1;strokeColor=none;fillColor=none;align=center;verticalAlign=middle;whiteSpace=wrap;rounded=0;rotation=-20;" vertex="1" parent="1">
          <mxGeometry x="120" y="245" width="95" height="30" as="geometry" />
        </mxCell>
        <mxCell id="8Tx6SXwO2rZ4uyeSZcDE-46" value="2.Password" style="text;html=1;strokeColor=none;fillColor=none;align=center;verticalAlign=middle;whiteSpace=wrap;rounded=0;" vertex="1" parent="1">
          <mxGeometry x="115" y="162" width="60" height="30" as="geometry" />
        </mxCell>
        <mxCell id="8Tx6SXwO2rZ4uyeSZcDE-47" value="5.Check Password" style="text;html=1;strokeColor=none;fillColor=none;align=center;verticalAlign=middle;whiteSpace=wrap;rounded=0;" vertex="1" parent="1">
          <mxGeometry x="448" y="305" width="60" height="30" as="geometry" />
        </mxCell>
        <mxCell id="8Tx6SXwO2rZ4uyeSZcDE-49" value="6.[Invalid]&lt;br&gt;Incorrect Password" style="text;html=1;strokeColor=none;fillColor=none;align=center;verticalAlign=middle;whiteSpace=wrap;rounded=0;" vertex="1" parent="1">
          <mxGeometry x="130" y="340" width="60" height="30" as="geometry" />
        </mxCell>
        <mxCell id="8Tx6SXwO2rZ4uyeSZcDE-50" value="" style="curved=1;endArrow=classic;html=1;rounded=0;entryX=0.25;entryY=0;entryDx=0;entryDy=0;exitX=0.75;exitY=0;exitDx=0;exitDy=0;" edge="1" parent="1">
          <mxGeometry width="50" height="50" relative="1" as="geometry">
            <mxPoint x="20" y="260" as="sourcePoint" />
            <mxPoint x="280" y="180" as="targetPoint" />
            <Array as="points">
              <mxPoint x="70" y="70" />
            </Array>
          </mxGeometry>
        </mxCell>
        <mxCell id="8Tx6SXwO2rZ4uyeSZcDE-51" value="" style="curved=1;endArrow=classic;html=1;rounded=0;entryX=0.75;entryY=1;entryDx=0;entryDy=0;exitX=0;exitY=1;exitDx=0;exitDy=0;" edge="1" parent="1" source="8Tx6SXwO2rZ4uyeSZcDE-29" target="8Tx6SXwO2rZ4uyeSZcDE-30">
          <mxGeometry width="50" height="50" relative="1" as="geometry">
            <mxPoint x="230" y="430" as="sourcePoint" />
            <mxPoint x="280" y="380" as="targetPoint" />
            <Array as="points">
              <mxPoint x="270" y="580" />
            </Array>
          </mxGeometry>
        </mxCell>
        <mxCell id="8Tx6SXwO2rZ4uyeSZcDE-52" value="7.[Valid]&lt;br&gt;Show Dashboard" style="text;html=1;strokeColor=none;fillColor=none;align=center;verticalAlign=middle;whiteSpace=wrap;rounded=0;" vertex="1" parent="1">
          <mxGeometry x="104" y="443" width="60" height="30" as="geometry" />
        </mxCell>
        <mxCell id="8Tx6SXwO2rZ4uyeSZcDE-53" value="List Your Project" style="text;html=1;strokeColor=none;fillColor=none;align=center;verticalAlign=middle;whiteSpace=wrap;rounded=0;" vertex="1" parent="1">
          <mxGeometry x="-236" y="652" width="60" height="30" as="geometry" />
        </mxCell>
        <mxCell id="8Tx6SXwO2rZ4uyeSZcDE-54" value="" style="rounded=0;whiteSpace=wrap;html=1;" vertex="1" parent="1">
          <mxGeometry x="-60" y="910" width="120" height="60" as="geometry" />
        </mxCell>
        <mxCell id="8Tx6SXwO2rZ4uyeSZcDE-55" value="" style="rounded=0;whiteSpace=wrap;html=1;" vertex="1" parent="1">
          <mxGeometry x="260" y="830" width="120" height="60" as="geometry" />
        </mxCell>
        <mxCell id="8Tx6SXwO2rZ4uyeSZcDE-56" value="" style="rounded=0;whiteSpace=wrap;html=1;" vertex="1" parent="1">
          <mxGeometry x="260" y="1150" width="120" height="60" as="geometry" />
        </mxCell>
        <mxCell id="8Tx6SXwO2rZ4uyeSZcDE-57" value="Create Project" style="text;html=1;strokeColor=none;fillColor=none;align=center;verticalAlign=middle;whiteSpace=wrap;rounded=0;" vertex="1" parent="1">
          <mxGeometry x="-30" y="925" width="60" height="30" as="geometry" />
        </mxCell>
        <mxCell id="8Tx6SXwO2rZ4uyeSZcDE-58" value="Add Project" style="text;html=1;strokeColor=none;fillColor=none;align=center;verticalAlign=middle;whiteSpace=wrap;rounded=0;" vertex="1" parent="1">
          <mxGeometry x="290" y="845" width="60" height="30" as="geometry" />
        </mxCell>
        <mxCell id="8Tx6SXwO2rZ4uyeSZcDE-59" value="Project Record" style="text;html=1;strokeColor=none;fillColor=none;align=center;verticalAlign=middle;whiteSpace=wrap;rounded=0;" vertex="1" parent="1">
          <mxGeometry x="290" y="1165" width="60" height="30" as="geometry" />
        </mxCell>
        <mxCell id="8Tx6SXwO2rZ4uyeSZcDE-60" value="" style="curved=1;endArrow=classic;html=1;rounded=0;exitX=1;exitY=0;exitDx=0;exitDy=0;entryX=0;entryY=0;entryDx=0;entryDy=0;" edge="1" parent="1" source="8Tx6SXwO2rZ4uyeSZcDE-54" target="8Tx6SXwO2rZ4uyeSZcDE-55">
          <mxGeometry width="50" height="50" relative="1" as="geometry">
            <mxPoint x="110" y="880" as="sourcePoint" />
            <mxPoint x="160" y="830" as="targetPoint" />
            <Array as="points">
              <mxPoint x="110" y="830" />
            </Array>
          </mxGeometry>
        </mxCell>
        <mxCell id="8Tx6SXwO2rZ4uyeSZcDE-62" value="" style="curved=1;endArrow=classic;html=1;rounded=0;exitX=0.25;exitY=1;exitDx=0;exitDy=0;entryX=0.75;entryY=1;entryDx=0;entryDy=0;" edge="1" parent="1" source="8Tx6SXwO2rZ4uyeSZcDE-55" target="8Tx6SXwO2rZ4uyeSZcDE-54">
          <mxGeometry width="50" height="50" relative="1" as="geometry">
            <mxPoint x="300" y="990" as="sourcePoint" />
            <mxPoint x="350" y="940" as="targetPoint" />
            <Array as="points">
              <mxPoint x="220" y="1020" />
            </Array>
          </mxGeometry>
        </mxCell>
        <mxCell id="8Tx6SXwO2rZ4uyeSZcDE-63" value="" style="curved=1;endArrow=classic;html=1;rounded=0;exitX=1;exitY=1;exitDx=0;exitDy=0;entryX=1;entryY=0;entryDx=0;entryDy=0;" edge="1" parent="1" source="8Tx6SXwO2rZ4uyeSZcDE-55" target="8Tx6SXwO2rZ4uyeSZcDE-56">
          <mxGeometry width="50" height="50" relative="1" as="geometry">
            <mxPoint x="460" y="1000" as="sourcePoint" />
            <mxPoint x="510" y="950" as="targetPoint" />
            <Array as="points">
              <mxPoint x="430" y="910" />
              <mxPoint x="460" y="950" />
              <mxPoint x="460" y="990" />
            </Array>
          </mxGeometry>
        </mxCell>
        <mxCell id="8Tx6SXwO2rZ4uyeSZcDE-64" value="1.Create Project" style="text;html=1;strokeColor=none;fillColor=none;align=center;verticalAlign=middle;whiteSpace=wrap;rounded=0;" vertex="1" parent="1">
          <mxGeometry x="120" y="757" width="60" height="30" as="geometry" />
        </mxCell>
        <mxCell id="8Tx6SXwO2rZ4uyeSZcDE-67" value="3.Enter Project Details" style="text;html=1;strokeColor=none;fillColor=none;align=center;verticalAlign=middle;whiteSpace=wrap;rounded=0;" vertex="1" parent="1">
          <mxGeometry x="113" y="805" width="88" height="30" as="geometry" />
        </mxCell>
        <mxCell id="8Tx6SXwO2rZ4uyeSZcDE-68" value="4.Create Project Record" style="text;html=1;strokeColor=none;fillColor=none;align=center;verticalAlign=middle;whiteSpace=wrap;rounded=0;" vertex="1" parent="1">
          <mxGeometry x="458" y="955" width="60" height="30" as="geometry" />
        </mxCell>
        <mxCell id="8Tx6SXwO2rZ4uyeSZcDE-69" value="6.Acknowledgement Message" style="text;html=1;strokeColor=none;fillColor=none;align=center;verticalAlign=middle;whiteSpace=wrap;rounded=0;" vertex="1" parent="1">
          <mxGeometry x="140" y="990" width="60" height="30" as="geometry" />
        </mxCell>
        <mxCell id="8Tx6SXwO2rZ4uyeSZcDE-71" value="" style="curved=1;endArrow=classic;html=1;rounded=0;entryX=0.25;entryY=0;entryDx=0;entryDy=0;exitX=0.75;exitY=0;exitDx=0;exitDy=0;" edge="1" parent="1">
          <mxGeometry width="50" height="50" relative="1" as="geometry">
            <mxPoint x="30" y="910" as="sourcePoint" />
            <mxPoint x="290" y="830" as="targetPoint" />
            <Array as="points">
              <mxPoint x="80" y="720" />
            </Array>
          </mxGeometry>
        </mxCell>
        <mxCell id="8Tx6SXwO2rZ4uyeSZcDE-72" value="" style="curved=1;endArrow=classic;html=1;rounded=0;exitX=0.5;exitY=0;exitDx=0;exitDy=0;entryX=1;entryY=0;entryDx=0;entryDy=0;" edge="1" parent="1" source="8Tx6SXwO2rZ4uyeSZcDE-55" target="8Tx6SXwO2rZ4uyeSZcDE-55">
          <mxGeometry width="50" height="50" relative="1" as="geometry">
            <mxPoint x="430" y="779" as="sourcePoint" />
            <mxPoint x="480" y="729" as="targetPoint" />
            <Array as="points">
              <mxPoint x="288" y="762" />
              <mxPoint x="404" y="759" />
            </Array>
          </mxGeometry>
        </mxCell>
        <mxCell id="8Tx6SXwO2rZ4uyeSZcDE-73" value="2.Generate Project ID" style="text;html=1;strokeColor=none;fillColor=none;align=center;verticalAlign=middle;whiteSpace=wrap;rounded=0;" vertex="1" parent="1">
          <mxGeometry x="390" y="747" width="60" height="30" as="geometry" />
        </mxCell>
        <mxCell id="8Tx6SXwO2rZ4uyeSZcDE-74" value="" style="endArrow=classic;html=1;rounded=0;exitX=0.5;exitY=0;exitDx=0;exitDy=0;entryX=0.5;entryY=1;entryDx=0;entryDy=0;" edge="1" parent="1" source="8Tx6SXwO2rZ4uyeSZcDE-56" target="8Tx6SXwO2rZ4uyeSZcDE-55">
          <mxGeometry width="50" height="50" relative="1" as="geometry">
            <mxPoint x="305" y="1095" as="sourcePoint" />
            <mxPoint x="355" y="1045" as="targetPoint" />
          </mxGeometry>
        </mxCell>
        <mxCell id="8Tx6SXwO2rZ4uyeSZcDE-75" value="5.Acknowledgement Message" style="text;html=1;strokeColor=none;fillColor=none;align=center;verticalAlign=middle;whiteSpace=wrap;rounded=0;" vertex="1" parent="1">
          <mxGeometry x="346" y="985" width="60" height="30" as="geometry" />
        </mxCell>
        <mxCell id="8Tx6SXwO2rZ4uyeSZcDE-76" value="Collaborate" style="text;html=1;strokeColor=none;fillColor=none;align=center;verticalAlign=middle;whiteSpace=wrap;rounded=0;" vertex="1" parent="1">
          <mxGeometry x="-215" y="1440" width="60" height="30" as="geometry" />
        </mxCell>
        <mxCell id="8Tx6SXwO2rZ4uyeSZcDE-77" value="" style="rounded=0;whiteSpace=wrap;html=1;" vertex="1" parent="1">
          <mxGeometry x="-50" y="1670" width="120" height="60" as="geometry" />
        </mxCell>
        <mxCell id="8Tx6SXwO2rZ4uyeSZcDE-78" value="" style="rounded=0;whiteSpace=wrap;html=1;" vertex="1" parent="1">
          <mxGeometry x="270" y="1590" width="120" height="60" as="geometry" />
        </mxCell>
        <mxCell id="8Tx6SXwO2rZ4uyeSZcDE-79" value="" style="rounded=0;whiteSpace=wrap;html=1;" vertex="1" parent="1">
          <mxGeometry x="270" y="1910" width="120" height="60" as="geometry" />
        </mxCell>
        <mxCell id="8Tx6SXwO2rZ4uyeSZcDE-80" value="Create Collaboration" style="text;html=1;strokeColor=none;fillColor=none;align=center;verticalAlign=middle;whiteSpace=wrap;rounded=0;" vertex="1" parent="1">
          <mxGeometry x="-20" y="1685" width="60" height="30" as="geometry" />
        </mxCell>
        <mxCell id="8Tx6SXwO2rZ4uyeSZcDE-81" value="Collaboration Controller" style="text;html=1;strokeColor=none;fillColor=none;align=center;verticalAlign=middle;whiteSpace=wrap;rounded=0;" vertex="1" parent="1">
          <mxGeometry x="300" y="1605" width="60" height="30" as="geometry" />
        </mxCell>
        <mxCell id="8Tx6SXwO2rZ4uyeSZcDE-82" value="Project Record" style="text;html=1;strokeColor=none;fillColor=none;align=center;verticalAlign=middle;whiteSpace=wrap;rounded=0;" vertex="1" parent="1">
          <mxGeometry x="300" y="1925" width="60" height="30" as="geometry" />
        </mxCell>
        <mxCell id="8Tx6SXwO2rZ4uyeSZcDE-84" value="" style="curved=1;endArrow=classic;html=1;rounded=0;exitX=0;exitY=0.5;exitDx=0;exitDy=0;entryX=1;entryY=0.25;entryDx=0;entryDy=0;" edge="1" parent="1" source="8Tx6SXwO2rZ4uyeSZcDE-78" target="8Tx6SXwO2rZ4uyeSZcDE-77">
          <mxGeometry width="50" height="50" relative="1" as="geometry">
            <mxPoint x="310" y="1750" as="sourcePoint" />
            <mxPoint x="360" y="1700" as="targetPoint" />
            <Array as="points">
              <mxPoint x="186" y="1671" />
            </Array>
          </mxGeometry>
        </mxCell>
        <mxCell id="8Tx6SXwO2rZ4uyeSZcDE-85" value="" style="curved=1;endArrow=classic;html=1;rounded=0;exitX=1;exitY=1;exitDx=0;exitDy=0;entryX=1;entryY=0;entryDx=0;entryDy=0;" edge="1" parent="1" source="8Tx6SXwO2rZ4uyeSZcDE-78" target="8Tx6SXwO2rZ4uyeSZcDE-79">
          <mxGeometry width="50" height="50" relative="1" as="geometry">
            <mxPoint x="470" y="1760" as="sourcePoint" />
            <mxPoint x="520" y="1710" as="targetPoint" />
            <Array as="points">
              <mxPoint x="440" y="1670" />
              <mxPoint x="470" y="1710" />
              <mxPoint x="470" y="1750" />
            </Array>
          </mxGeometry>
        </mxCell>
        <mxCell id="8Tx6SXwO2rZ4uyeSZcDE-86" value="1.Collaboration Request" style="text;html=1;strokeColor=none;fillColor=none;align=center;verticalAlign=middle;whiteSpace=wrap;rounded=0;" vertex="1" parent="1">
          <mxGeometry x="130" y="1517" width="60" height="30" as="geometry" />
        </mxCell>
        <mxCell id="8Tx6SXwO2rZ4uyeSZcDE-88" value="4.[Valid]&lt;br&gt;Add Collaborator" style="text;html=1;strokeColor=none;fillColor=none;align=center;verticalAlign=middle;whiteSpace=wrap;rounded=0;" vertex="1" parent="1">
          <mxGeometry x="473" y="1715" width="60" height="30" as="geometry" />
        </mxCell>
        <mxCell id="8Tx6SXwO2rZ4uyeSZcDE-89" value="3.[Invalid]&lt;br&gt;Request Denied" style="text;html=1;strokeColor=none;fillColor=none;align=center;verticalAlign=middle;whiteSpace=wrap;rounded=0;" vertex="1" parent="1">
          <mxGeometry x="137.5" y="1620" width="60" height="30" as="geometry" />
        </mxCell>
        <mxCell id="8Tx6SXwO2rZ4uyeSZcDE-90" value="" style="curved=1;endArrow=classic;html=1;rounded=0;entryX=0.25;entryY=0;entryDx=0;entryDy=0;exitX=0.75;exitY=0;exitDx=0;exitDy=0;" edge="1" parent="1">
          <mxGeometry width="50" height="50" relative="1" as="geometry">
            <mxPoint x="40" y="1670" as="sourcePoint" />
            <mxPoint x="300" y="1590" as="targetPoint" />
            <Array as="points">
              <mxPoint x="90" y="1480" />
            </Array>
          </mxGeometry>
        </mxCell>
        <mxCell id="8Tx6SXwO2rZ4uyeSZcDE-91" value="" style="curved=1;endArrow=classic;html=1;rounded=0;exitX=0.5;exitY=0;exitDx=0;exitDy=0;entryX=1;entryY=0;entryDx=0;entryDy=0;" edge="1" parent="1" source="8Tx6SXwO2rZ4uyeSZcDE-78" target="8Tx6SXwO2rZ4uyeSZcDE-78">
          <mxGeometry width="50" height="50" relative="1" as="geometry">
            <mxPoint x="440" y="1539" as="sourcePoint" />
            <mxPoint x="490" y="1489" as="targetPoint" />
            <Array as="points">
              <mxPoint x="298" y="1522" />
              <mxPoint x="414" y="1519" />
            </Array>
          </mxGeometry>
        </mxCell>
        <mxCell id="8Tx6SXwO2rZ4uyeSZcDE-92" value="2.Verify Request" style="text;html=1;strokeColor=none;fillColor=none;align=center;verticalAlign=middle;whiteSpace=wrap;rounded=0;" vertex="1" parent="1">
          <mxGeometry x="400" y="1507" width="60" height="30" as="geometry" />
        </mxCell>
        <mxCell id="8Tx6SXwO2rZ4uyeSZcDE-93" value="" style="endArrow=classic;html=1;rounded=0;exitX=0.5;exitY=0;exitDx=0;exitDy=0;entryX=0.5;entryY=1;entryDx=0;entryDy=0;" edge="1" parent="1" source="8Tx6SXwO2rZ4uyeSZcDE-79" target="8Tx6SXwO2rZ4uyeSZcDE-78">
          <mxGeometry width="50" height="50" relative="1" as="geometry">
            <mxPoint x="315" y="1855" as="sourcePoint" />
            <mxPoint x="365" y="1805" as="targetPoint" />
          </mxGeometry>
        </mxCell>
        <mxCell id="8Tx6SXwO2rZ4uyeSZcDE-94" value="5.Acknowledgement&amp;nbsp;" style="text;html=1;strokeColor=none;fillColor=none;align=center;verticalAlign=middle;whiteSpace=wrap;rounded=0;" vertex="1" parent="1">
          <mxGeometry x="359" y="1745" width="60" height="30" as="geometry" />
        </mxCell>
        <mxCell id="8Tx6SXwO2rZ4uyeSZcDE-95" value="" style="curved=1;endArrow=classic;html=1;rounded=0;entryX=1;entryY=1;entryDx=0;entryDy=0;exitX=0;exitY=1;exitDx=0;exitDy=0;" edge="1" parent="1" source="8Tx6SXwO2rZ4uyeSZcDE-78" target="8Tx6SXwO2rZ4uyeSZcDE-77">
          <mxGeometry width="50" height="50" relative="1" as="geometry">
            <mxPoint x="-13" y="1897" as="sourcePoint" />
            <mxPoint x="37" y="1847" as="targetPoint" />
            <Array as="points">
              <mxPoint x="262" y="1720" />
              <mxPoint x="174" y="1796" />
            </Array>
          </mxGeometry>
        </mxCell>
        <mxCell id="8Tx6SXwO2rZ4uyeSZcDE-96" value="6.Collaborator Added Message" style="text;html=1;strokeColor=none;fillColor=none;align=center;verticalAlign=middle;whiteSpace=wrap;rounded=0;" vertex="1" parent="1">
          <mxGeometry x="141" y="1720" width="60" height="30" as="geometry" />
        </mxCell>
        <mxCell id="8Tx6SXwO2rZ4uyeSZcDE-97" value="Discuss" style="text;html=1;strokeColor=none;fillColor=none;align=center;verticalAlign=middle;whiteSpace=wrap;rounded=0;" vertex="1" parent="1">
          <mxGeometry x="-200" y="2192" width="60" height="30" as="geometry" />
        </mxCell>
        <mxCell id="8Tx6SXwO2rZ4uyeSZcDE-98" value="" style="rounded=0;whiteSpace=wrap;html=1;" vertex="1" parent="1">
          <mxGeometry x="-40" y="2600" width="120" height="60" as="geometry" />
        </mxCell>
        <mxCell id="8Tx6SXwO2rZ4uyeSZcDE-99" value="" style="rounded=0;whiteSpace=wrap;html=1;" vertex="1" parent="1">
          <mxGeometry x="408" y="2446" width="120" height="60" as="geometry" />
        </mxCell>
        <mxCell id="8Tx6SXwO2rZ4uyeSZcDE-100" value="" style="rounded=0;whiteSpace=wrap;html=1;" vertex="1" parent="1">
          <mxGeometry x="280" y="2840" width="120" height="60" as="geometry" />
        </mxCell>
        <mxCell id="8Tx6SXwO2rZ4uyeSZcDE-101" value="Start&lt;br&gt;Discussion" style="text;html=1;strokeColor=none;fillColor=none;align=center;verticalAlign=middle;whiteSpace=wrap;rounded=0;" vertex="1" parent="1">
          <mxGeometry x="-10" y="2615" width="60" height="30" as="geometry" />
        </mxCell>
        <mxCell id="8Tx6SXwO2rZ4uyeSZcDE-102" value="Discussion Controller" style="text;html=1;strokeColor=none;fillColor=none;align=center;verticalAlign=middle;whiteSpace=wrap;rounded=0;" vertex="1" parent="1">
          <mxGeometry x="438" y="2461" width="60" height="30" as="geometry" />
        </mxCell>
        <mxCell id="8Tx6SXwO2rZ4uyeSZcDE-103" value="Discussion Record" style="text;html=1;strokeColor=none;fillColor=none;align=center;verticalAlign=middle;whiteSpace=wrap;rounded=0;" vertex="1" parent="1">
          <mxGeometry x="310" y="2855" width="60" height="30" as="geometry" />
        </mxCell>
        <mxCell id="8Tx6SXwO2rZ4uyeSZcDE-116" value="" style="curved=1;endArrow=classic;html=1;rounded=0;exitX=0.5;exitY=0;exitDx=0;exitDy=0;entryX=0;entryY=0;entryDx=0;entryDy=0;" edge="1" parent="1" source="8Tx6SXwO2rZ4uyeSZcDE-98" target="8Tx6SXwO2rZ4uyeSZcDE-99">
          <mxGeometry width="50" height="50" relative="1" as="geometry">
            <mxPoint x="128" y="2518" as="sourcePoint" />
            <mxPoint x="178" y="2468" as="targetPoint" />
            <Array as="points">
              <mxPoint x="77" y="2469" />
              <mxPoint x="152" y="2431" />
              <mxPoint x="216" y="2417" />
            </Array>
          </mxGeometry>
        </mxCell>
        <mxCell id="8Tx6SXwO2rZ4uyeSZcDE-117" value="" style="curved=1;endArrow=classic;html=1;rounded=0;exitX=1;exitY=0;exitDx=0;exitDy=0;entryX=0;entryY=0.25;entryDx=0;entryDy=0;" edge="1" parent="1" source="8Tx6SXwO2rZ4uyeSZcDE-98" target="8Tx6SXwO2rZ4uyeSZcDE-99">
          <mxGeometry width="50" height="50" relative="1" as="geometry">
            <mxPoint x="129" y="2621" as="sourcePoint" />
            <mxPoint x="179" y="2571" as="targetPoint" />
            <Array as="points">
              <mxPoint x="136" y="2515" />
              <mxPoint x="228" y="2476" />
            </Array>
          </mxGeometry>
        </mxCell>
        <mxCell id="8Tx6SXwO2rZ4uyeSZcDE-118" value="1.Start Disscussion" style="text;html=1;strokeColor=none;fillColor=none;align=center;verticalAlign=middle;whiteSpace=wrap;rounded=0;" vertex="1" parent="1">
          <mxGeometry x="98" y="2402" width="60" height="30" as="geometry" />
        </mxCell>
        <mxCell id="8Tx6SXwO2rZ4uyeSZcDE-119" value="2.Message" style="text;html=1;strokeColor=none;fillColor=none;align=center;verticalAlign=middle;whiteSpace=wrap;rounded=0;" vertex="1" parent="1">
          <mxGeometry x="145" y="2463" width="60" height="30" as="geometry" />
        </mxCell>
        <mxCell id="8Tx6SXwO2rZ4uyeSZcDE-120" value="" style="curved=1;endArrow=classic;html=1;rounded=0;exitX=0.25;exitY=1;exitDx=0;exitDy=0;entryX=0.25;entryY=0;entryDx=0;entryDy=0;" edge="1" parent="1" source="8Tx6SXwO2rZ4uyeSZcDE-99" target="8Tx6SXwO2rZ4uyeSZcDE-100">
          <mxGeometry width="50" height="50" relative="1" as="geometry">
            <mxPoint x="610" y="2657" as="sourcePoint" />
            <mxPoint x="660" y="2607" as="targetPoint" />
            <Array as="points">
              <mxPoint x="458" y="2634" />
            </Array>
          </mxGeometry>
        </mxCell>
        <mxCell id="8Tx6SXwO2rZ4uyeSZcDE-121" value="3.Store Message" style="text;html=1;strokeColor=none;fillColor=none;align=center;verticalAlign=middle;whiteSpace=wrap;rounded=0;" vertex="1" parent="1">
          <mxGeometry x="348" y="2612" width="60" height="30" as="geometry" />
        </mxCell>
        <mxCell id="8Tx6SXwO2rZ4uyeSZcDE-122" value="" style="curved=1;endArrow=classic;html=1;rounded=0;exitX=0.5;exitY=0;exitDx=0;exitDy=0;entryX=0.75;entryY=1;entryDx=0;entryDy=0;" edge="1" parent="1" source="8Tx6SXwO2rZ4uyeSZcDE-100" target="8Tx6SXwO2rZ4uyeSZcDE-99">
          <mxGeometry width="50" height="50" relative="1" as="geometry">
            <mxPoint x="510" y="2776" as="sourcePoint" />
            <mxPoint x="560" y="2726" as="targetPoint" />
            <Array as="points">
              <mxPoint x="570" y="2731" />
            </Array>
          </mxGeometry>
        </mxCell>
        <mxCell id="8Tx6SXwO2rZ4uyeSZcDE-123" value="4.Show Message" style="text;html=1;strokeColor=none;fillColor=none;align=center;verticalAlign=middle;whiteSpace=wrap;rounded=0;" vertex="1" parent="1">
          <mxGeometry x="450" y="2648" width="60" height="30" as="geometry" />
        </mxCell>
        <mxCell id="8Tx6SXwO2rZ4uyeSZcDE-124" value="" style="curved=1;endArrow=classic;html=1;rounded=0;exitX=0.25;exitY=0;exitDx=0;exitDy=0;entryX=0.25;entryY=0;entryDx=0;entryDy=0;" edge="1" parent="1" source="8Tx6SXwO2rZ4uyeSZcDE-99" target="8Tx6SXwO2rZ4uyeSZcDE-98">
          <mxGeometry width="50" height="50" relative="1" as="geometry">
            <mxPoint x="467" y="2414" as="sourcePoint" />
            <mxPoint x="517" y="2364" as="targetPoint" />
            <Array as="points">
              <mxPoint x="171" y="2318" />
              <mxPoint x="-1" y="2488" />
            </Array>
          </mxGeometry>
        </mxCell>
        <mxCell id="8Tx6SXwO2rZ4uyeSZcDE-125" value="5.Show Message" style="text;html=1;strokeColor=none;fillColor=none;align=center;verticalAlign=middle;whiteSpace=wrap;rounded=0;" vertex="1" parent="1">
          <mxGeometry x="118" y="2336" width="60" height="30" as="geometry" />
        </mxCell>
        <mxCell id="8Tx6SXwO2rZ4uyeSZcDE-126" value="" style="endArrow=classic;html=1;rounded=0;exitX=1;exitY=0.25;exitDx=0;exitDy=0;entryX=0;entryY=0.5;entryDx=0;entryDy=0;" edge="1" parent="1" source="8Tx6SXwO2rZ4uyeSZcDE-98" target="8Tx6SXwO2rZ4uyeSZcDE-99">
          <mxGeometry width="50" height="50" relative="1" as="geometry">
            <mxPoint x="155" y="2619" as="sourcePoint" />
            <mxPoint x="205" y="2569" as="targetPoint" />
          </mxGeometry>
        </mxCell>
        <mxCell id="8Tx6SXwO2rZ4uyeSZcDE-128" value="" style="curved=1;endArrow=classic;html=1;rounded=0;exitX=1;exitY=0.75;exitDx=0;exitDy=0;entryX=0;entryY=1;entryDx=0;entryDy=0;" edge="1" parent="1" source="8Tx6SXwO2rZ4uyeSZcDE-98" target="8Tx6SXwO2rZ4uyeSZcDE-99">
          <mxGeometry width="50" height="50" relative="1" as="geometry">
            <mxPoint x="203" y="2650" as="sourcePoint" />
            <mxPoint x="253" y="2600" as="targetPoint" />
            <Array as="points">
              <mxPoint x="253" y="2650" />
            </Array>
          </mxGeometry>
        </mxCell>
        <mxCell id="8Tx6SXwO2rZ4uyeSZcDE-129" value="6.Comment" style="text;html=1;strokeColor=none;fillColor=none;align=center;verticalAlign=middle;whiteSpace=wrap;rounded=0;" vertex="1" parent="1">
          <mxGeometry x="180" y="2522" width="60" height="30" as="geometry" />
        </mxCell>
        <mxCell id="8Tx6SXwO2rZ4uyeSZcDE-130" value="7.Text" style="text;html=1;strokeColor=none;fillColor=none;align=center;verticalAlign=middle;whiteSpace=wrap;rounded=0;" vertex="1" parent="1">
          <mxGeometry x="208" y="2582" width="60" height="30" as="geometry" />
        </mxCell>
        <mxCell id="8Tx6SXwO2rZ4uyeSZcDE-131" value="" style="curved=1;endArrow=classic;html=1;rounded=0;exitX=1;exitY=1;exitDx=0;exitDy=0;entryX=1;entryY=0;entryDx=0;entryDy=0;" edge="1" parent="1" source="8Tx6SXwO2rZ4uyeSZcDE-99" target="8Tx6SXwO2rZ4uyeSZcDE-100">
          <mxGeometry width="50" height="50" relative="1" as="geometry">
            <mxPoint x="621" y="2594" as="sourcePoint" />
            <mxPoint x="671" y="2544" as="targetPoint" />
            <Array as="points">
              <mxPoint x="671" y="2594" />
              <mxPoint x="599" y="2741" />
            </Array>
          </mxGeometry>
        </mxCell>
        <mxCell id="8Tx6SXwO2rZ4uyeSZcDE-132" value="8.Store Comment" style="text;html=1;strokeColor=none;fillColor=none;align=center;verticalAlign=middle;whiteSpace=wrap;rounded=0;" vertex="1" parent="1">
          <mxGeometry x="574" y="2620" width="60" height="30" as="geometry" />
        </mxCell>
        <mxCell id="8Tx6SXwO2rZ4uyeSZcDE-135" value="" style="curved=1;endArrow=classic;html=1;rounded=0;exitX=0.99;exitY=0.647;exitDx=0;exitDy=0;exitPerimeter=0;entryX=1;entryY=0.25;entryDx=0;entryDy=0;" edge="1" parent="1" source="8Tx6SXwO2rZ4uyeSZcDE-100" target="8Tx6SXwO2rZ4uyeSZcDE-99">
          <mxGeometry width="50" height="50" relative="1" as="geometry">
            <mxPoint x="712" y="2688" as="sourcePoint" />
            <mxPoint x="762" y="2638" as="targetPoint" />
            <Array as="points">
              <mxPoint x="639" y="2800" />
              <mxPoint x="776" y="2693" />
              <mxPoint x="789" y="2573" />
            </Array>
          </mxGeometry>
        </mxCell>
        <mxCell id="8Tx6SXwO2rZ4uyeSZcDE-136" value="9.Show Comment" style="text;html=1;strokeColor=none;fillColor=none;align=center;verticalAlign=middle;whiteSpace=wrap;rounded=0;" vertex="1" parent="1">
          <mxGeometry x="710" y="2620" width="60" height="30" as="geometry" />
        </mxCell>
        <mxCell id="8Tx6SXwO2rZ4uyeSZcDE-137" value="" style="curved=1;endArrow=classic;html=1;rounded=0;exitX=0.5;exitY=0;exitDx=0;exitDy=0;entryX=0;entryY=0;entryDx=0;entryDy=0;" edge="1" parent="1" source="8Tx6SXwO2rZ4uyeSZcDE-99" target="8Tx6SXwO2rZ4uyeSZcDE-98">
          <mxGeometry width="50" height="50" relative="1" as="geometry">
            <mxPoint x="417" y="2344" as="sourcePoint" />
            <mxPoint x="467" y="2294" as="targetPoint" />
            <Array as="points">
              <mxPoint x="467" y="2344" />
              <mxPoint x="174" y="2280" />
              <mxPoint x="-63" y="2409" />
            </Array>
          </mxGeometry>
        </mxCell>
        <mxCell id="8Tx6SXwO2rZ4uyeSZcDE-138" value="10.Show Comment" style="text;html=1;strokeColor=none;fillColor=none;align=center;verticalAlign=middle;whiteSpace=wrap;rounded=0;" vertex="1" parent="1">
          <mxGeometry x="144" y="2263" width="110" height="30" as="geometry" />
        </mxCell>
      </root>
    </mxGraphModel>
  </diagram>
</mxfile>
